G04 #@! TF.GenerationSoftware,KiCad,Pcbnew,(5.1.6-0-10_14)*
G04 #@! TF.CreationDate,2020-08-23T05:08:53+09:00*
G04 #@! TF.ProjectId,TAS6422AMP,54415336-3432-4324-914d-502e6b696361,0.3*
G04 #@! TF.SameCoordinates,Original*
G04 #@! TF.FileFunction,Paste,Bot*
G04 #@! TF.FilePolarity,Positive*
%FSLAX46Y46*%
G04 Gerber Fmt 4.6, Leading zero omitted, Abs format (unit mm)*
G04 Created by KiCad (PCBNEW (5.1.6-0-10_14)) date 2020-08-23 05:08:53*
%MOMM*%
%LPD*%
G01*
G04 APERTURE LIST*
G04 APERTURE END LIST*
G04 #@! TO.C,C54*
G36*
G01*
X164447459Y-144852540D02*
X165347461Y-144852540D01*
G75*
G02*
X165597460Y-145102539I0J-249999D01*
G01*
X165597460Y-145752541D01*
G75*
G02*
X165347461Y-146002540I-249999J0D01*
G01*
X164447459Y-146002540D01*
G75*
G02*
X164197460Y-145752541I0J249999D01*
G01*
X164197460Y-145102539D01*
G75*
G02*
X164447459Y-144852540I249999J0D01*
G01*
G37*
G36*
G01*
X164447459Y-142802540D02*
X165347461Y-142802540D01*
G75*
G02*
X165597460Y-143052539I0J-249999D01*
G01*
X165597460Y-143702541D01*
G75*
G02*
X165347461Y-143952540I-249999J0D01*
G01*
X164447459Y-143952540D01*
G75*
G02*
X164197460Y-143702541I0J249999D01*
G01*
X164197460Y-143052539D01*
G75*
G02*
X164447459Y-142802540I249999J0D01*
G01*
G37*
G04 #@! TD*
G04 #@! TO.C,C55*
G36*
G01*
X161747459Y-144952540D02*
X162647461Y-144952540D01*
G75*
G02*
X162897460Y-145202539I0J-249999D01*
G01*
X162897460Y-145852541D01*
G75*
G02*
X162647461Y-146102540I-249999J0D01*
G01*
X161747459Y-146102540D01*
G75*
G02*
X161497460Y-145852541I0J249999D01*
G01*
X161497460Y-145202539D01*
G75*
G02*
X161747459Y-144952540I249999J0D01*
G01*
G37*
G36*
G01*
X161747459Y-142902540D02*
X162647461Y-142902540D01*
G75*
G02*
X162897460Y-143152539I0J-249999D01*
G01*
X162897460Y-143802541D01*
G75*
G02*
X162647461Y-144052540I-249999J0D01*
G01*
X161747459Y-144052540D01*
G75*
G02*
X161497460Y-143802541I0J249999D01*
G01*
X161497460Y-143152539D01*
G75*
G02*
X161747459Y-142902540I249999J0D01*
G01*
G37*
G04 #@! TD*
G04 #@! TO.C,C56*
G36*
G01*
X137947459Y-144852540D02*
X138847461Y-144852540D01*
G75*
G02*
X139097460Y-145102539I0J-249999D01*
G01*
X139097460Y-145752541D01*
G75*
G02*
X138847461Y-146002540I-249999J0D01*
G01*
X137947459Y-146002540D01*
G75*
G02*
X137697460Y-145752541I0J249999D01*
G01*
X137697460Y-145102539D01*
G75*
G02*
X137947459Y-144852540I249999J0D01*
G01*
G37*
G36*
G01*
X137947459Y-142802540D02*
X138847461Y-142802540D01*
G75*
G02*
X139097460Y-143052539I0J-249999D01*
G01*
X139097460Y-143702541D01*
G75*
G02*
X138847461Y-143952540I-249999J0D01*
G01*
X137947459Y-143952540D01*
G75*
G02*
X137697460Y-143702541I0J249999D01*
G01*
X137697460Y-143052539D01*
G75*
G02*
X137947459Y-142802540I249999J0D01*
G01*
G37*
G04 #@! TD*
G04 #@! TO.C,C57*
G36*
G01*
X135747459Y-144852540D02*
X136647461Y-144852540D01*
G75*
G02*
X136897460Y-145102539I0J-249999D01*
G01*
X136897460Y-145752541D01*
G75*
G02*
X136647461Y-146002540I-249999J0D01*
G01*
X135747459Y-146002540D01*
G75*
G02*
X135497460Y-145752541I0J249999D01*
G01*
X135497460Y-145102539D01*
G75*
G02*
X135747459Y-144852540I249999J0D01*
G01*
G37*
G36*
G01*
X135747459Y-142802540D02*
X136647461Y-142802540D01*
G75*
G02*
X136897460Y-143052539I0J-249999D01*
G01*
X136897460Y-143702541D01*
G75*
G02*
X136647461Y-143952540I-249999J0D01*
G01*
X135747459Y-143952540D01*
G75*
G02*
X135497460Y-143702541I0J249999D01*
G01*
X135497460Y-143052539D01*
G75*
G02*
X135747459Y-142802540I249999J0D01*
G01*
G37*
G04 #@! TD*
G04 #@! TO.C,C41*
G36*
G01*
X156247459Y-122052540D02*
X157147461Y-122052540D01*
G75*
G02*
X157397460Y-122302539I0J-249999D01*
G01*
X157397460Y-122952541D01*
G75*
G02*
X157147461Y-123202540I-249999J0D01*
G01*
X156247459Y-123202540D01*
G75*
G02*
X155997460Y-122952541I0J249999D01*
G01*
X155997460Y-122302539D01*
G75*
G02*
X156247459Y-122052540I249999J0D01*
G01*
G37*
G36*
G01*
X156247459Y-120002540D02*
X157147461Y-120002540D01*
G75*
G02*
X157397460Y-120252539I0J-249999D01*
G01*
X157397460Y-120902541D01*
G75*
G02*
X157147461Y-121152540I-249999J0D01*
G01*
X156247459Y-121152540D01*
G75*
G02*
X155997460Y-120902541I0J249999D01*
G01*
X155997460Y-120252539D01*
G75*
G02*
X156247459Y-120002540I249999J0D01*
G01*
G37*
G04 #@! TD*
G04 #@! TO.C,C42*
G36*
G01*
X150894201Y-121055980D02*
X149994199Y-121055980D01*
G75*
G02*
X149744200Y-120805981I0J249999D01*
G01*
X149744200Y-120155979D01*
G75*
G02*
X149994199Y-119905980I249999J0D01*
G01*
X150894201Y-119905980D01*
G75*
G02*
X151144200Y-120155979I0J-249999D01*
G01*
X151144200Y-120805981D01*
G75*
G02*
X150894201Y-121055980I-249999J0D01*
G01*
G37*
G36*
G01*
X150894201Y-123105980D02*
X149994199Y-123105980D01*
G75*
G02*
X149744200Y-122855981I0J249999D01*
G01*
X149744200Y-122205979D01*
G75*
G02*
X149994199Y-121955980I249999J0D01*
G01*
X150894201Y-121955980D01*
G75*
G02*
X151144200Y-122205979I0J-249999D01*
G01*
X151144200Y-122855981D01*
G75*
G02*
X150894201Y-123105980I-249999J0D01*
G01*
G37*
G04 #@! TD*
G04 #@! TO.C,C43*
G36*
G01*
X146647459Y-121952540D02*
X147547461Y-121952540D01*
G75*
G02*
X147797460Y-122202539I0J-249999D01*
G01*
X147797460Y-122852541D01*
G75*
G02*
X147547461Y-123102540I-249999J0D01*
G01*
X146647459Y-123102540D01*
G75*
G02*
X146397460Y-122852541I0J249999D01*
G01*
X146397460Y-122202539D01*
G75*
G02*
X146647459Y-121952540I249999J0D01*
G01*
G37*
G36*
G01*
X146647459Y-119902540D02*
X147547461Y-119902540D01*
G75*
G02*
X147797460Y-120152539I0J-249999D01*
G01*
X147797460Y-120802541D01*
G75*
G02*
X147547461Y-121052540I-249999J0D01*
G01*
X146647459Y-121052540D01*
G75*
G02*
X146397460Y-120802541I0J249999D01*
G01*
X146397460Y-120152539D01*
G75*
G02*
X146647459Y-119902540I249999J0D01*
G01*
G37*
G04 #@! TD*
G04 #@! TO.C,C44*
G36*
G01*
X143957461Y-121092000D02*
X143057459Y-121092000D01*
G75*
G02*
X142807460Y-120842001I0J249999D01*
G01*
X142807460Y-120191999D01*
G75*
G02*
X143057459Y-119942000I249999J0D01*
G01*
X143957461Y-119942000D01*
G75*
G02*
X144207460Y-120191999I0J-249999D01*
G01*
X144207460Y-120842001D01*
G75*
G02*
X143957461Y-121092000I-249999J0D01*
G01*
G37*
G36*
G01*
X143957461Y-123142000D02*
X143057459Y-123142000D01*
G75*
G02*
X142807460Y-122892001I0J249999D01*
G01*
X142807460Y-122241999D01*
G75*
G02*
X143057459Y-121992000I249999J0D01*
G01*
X143957461Y-121992000D01*
G75*
G02*
X144207460Y-122241999I0J-249999D01*
G01*
X144207460Y-122892001D01*
G75*
G02*
X143957461Y-123142000I-249999J0D01*
G01*
G37*
G04 #@! TD*
G04 #@! TO.C,C68*
G36*
G01*
X99004320Y-121773101D02*
X99004320Y-120873099D01*
G75*
G02*
X99254319Y-120623100I249999J0D01*
G01*
X99904321Y-120623100D01*
G75*
G02*
X100154320Y-120873099I0J-249999D01*
G01*
X100154320Y-121773101D01*
G75*
G02*
X99904321Y-122023100I-249999J0D01*
G01*
X99254319Y-122023100D01*
G75*
G02*
X99004320Y-121773101I0J249999D01*
G01*
G37*
G36*
G01*
X101054320Y-121773101D02*
X101054320Y-120873099D01*
G75*
G02*
X101304319Y-120623100I249999J0D01*
G01*
X101954321Y-120623100D01*
G75*
G02*
X102204320Y-120873099I0J-249999D01*
G01*
X102204320Y-121773101D01*
G75*
G02*
X101954321Y-122023100I-249999J0D01*
G01*
X101304319Y-122023100D01*
G75*
G02*
X101054320Y-121773101I0J249999D01*
G01*
G37*
G04 #@! TD*
G04 #@! TO.C,R27*
G36*
G01*
X94551079Y-114381480D02*
X95451081Y-114381480D01*
G75*
G02*
X95701080Y-114631479I0J-249999D01*
G01*
X95701080Y-115281481D01*
G75*
G02*
X95451081Y-115531480I-249999J0D01*
G01*
X94551079Y-115531480D01*
G75*
G02*
X94301080Y-115281481I0J249999D01*
G01*
X94301080Y-114631479D01*
G75*
G02*
X94551079Y-114381480I249999J0D01*
G01*
G37*
G36*
G01*
X94551079Y-116431480D02*
X95451081Y-116431480D01*
G75*
G02*
X95701080Y-116681479I0J-249999D01*
G01*
X95701080Y-117331481D01*
G75*
G02*
X95451081Y-117581480I-249999J0D01*
G01*
X94551079Y-117581480D01*
G75*
G02*
X94301080Y-117331481I0J249999D01*
G01*
X94301080Y-116681479D01*
G75*
G02*
X94551079Y-116431480I249999J0D01*
G01*
G37*
G04 #@! TD*
G04 #@! TO.C,R28*
G36*
G01*
X97032659Y-116406080D02*
X97932661Y-116406080D01*
G75*
G02*
X98182660Y-116656079I0J-249999D01*
G01*
X98182660Y-117306081D01*
G75*
G02*
X97932661Y-117556080I-249999J0D01*
G01*
X97032659Y-117556080D01*
G75*
G02*
X96782660Y-117306081I0J249999D01*
G01*
X96782660Y-116656079D01*
G75*
G02*
X97032659Y-116406080I249999J0D01*
G01*
G37*
G36*
G01*
X97032659Y-114356080D02*
X97932661Y-114356080D01*
G75*
G02*
X98182660Y-114606079I0J-249999D01*
G01*
X98182660Y-115256081D01*
G75*
G02*
X97932661Y-115506080I-249999J0D01*
G01*
X97032659Y-115506080D01*
G75*
G02*
X96782660Y-115256081I0J249999D01*
G01*
X96782660Y-114606079D01*
G75*
G02*
X97032659Y-114356080I249999J0D01*
G01*
G37*
G04 #@! TD*
M02*
