G04 #@! TF.GenerationSoftware,KiCad,Pcbnew,(5.1.6-0-10_14)*
G04 #@! TF.CreationDate,2020-08-23T05:08:53+09:00*
G04 #@! TF.ProjectId,TAS6422AMP,54415336-3432-4324-914d-502e6b696361,0.3*
G04 #@! TF.SameCoordinates,Original*
G04 #@! TF.FileFunction,Soldermask,Top*
G04 #@! TF.FilePolarity,Negative*
%FSLAX46Y46*%
G04 Gerber Fmt 4.6, Leading zero omitted, Abs format (unit mm)*
G04 Created by KiCad (PCBNEW (5.1.6-0-10_14)) date 2020-08-23 05:08:53*
%MOMM*%
%LPD*%
G01*
G04 APERTURE LIST*
%ADD10C,0.100000*%
%ADD11C,3.300000*%
%ADD12O,1.800000X1.800000*%
%ADD13R,1.800000X1.800000*%
%ADD14O,1.900000X2.800000*%
%ADD15R,3.100000X4.100000*%
%ADD16R,5.100000X3.100000*%
%ADD17R,2.100000X2.100000*%
%ADD18C,2.100000*%
%ADD19R,2.600000X3.100000*%
%ADD20C,1.600000*%
%ADD21R,0.535000X2.000000*%
%ADD22C,1.300000*%
%ADD23R,1.300000X1.300000*%
%ADD24C,1.700000*%
%ADD25R,1.700000X1.700000*%
%ADD26O,1.300000X2.100000*%
%ADD27R,1.300000X2.100000*%
%ADD28O,2.100000X3.600000*%
%ADD29O,4.100000X3.100000*%
%ADD30C,4.100000*%
%ADD31R,3.100000X3.100000*%
%ADD32R,10.100000X4.500000*%
%ADD33R,2.300000X3.900000*%
%ADD34R,2.300000X1.600000*%
%ADD35O,1.700000X1.700000*%
%ADD36C,6.500000*%
%ADD37C,0.900000*%
%ADD38R,1.200000X1.200000*%
%ADD39R,1.440000X0.740000*%
%ADD40R,1.100000X1.100000*%
%ADD41C,0.400000*%
%ADD42O,2.500000X2.500000*%
%ADD43R,2.500000X2.500000*%
%ADD44R,0.400000X1.575000*%
%ADD45R,1.575000X0.400000*%
%ADD46R,0.900000X0.900000*%
%ADD47C,3.100000*%
%ADD48C,5.100000*%
%ADD49C,2.600000*%
%ADD50O,2.600000X4.300000*%
%ADD51R,2.000000X2.000000*%
%ADD52R,0.400000X2.700000*%
%ADD53O,2.700000X3.400000*%
%ADD54C,2.985000*%
G04 APERTURE END LIST*
D10*
G36*
X109852460Y-137944860D02*
G01*
X109842300Y-138755120D01*
X109331760Y-139258040D01*
X108470700Y-139275820D01*
X107878880Y-138803380D01*
X107853480Y-138008360D01*
X108325920Y-137294620D01*
X108333540Y-137287000D01*
X109306360Y-137276840D01*
X109852460Y-137944860D01*
G37*
X109852460Y-137944860D02*
X109842300Y-138755120D01*
X109331760Y-139258040D01*
X108470700Y-139275820D01*
X107878880Y-138803380D01*
X107853480Y-138008360D01*
X108325920Y-137294620D01*
X108333540Y-137287000D01*
X109306360Y-137276840D01*
X109852460Y-137944860D01*
D11*
G04 #@! TO.C,H5*
X79885980Y-148818600D03*
G04 #@! TD*
G04 #@! TO.C,H5*
X113885980Y-148818600D03*
G04 #@! TD*
D12*
G04 #@! TO.C,J4*
X90611960Y-107952540D03*
X93151960Y-107952540D03*
X95691960Y-107952540D03*
X98231960Y-107952540D03*
X100771960Y-107952540D03*
D13*
X103311960Y-107952540D03*
G04 #@! TD*
G04 #@! TO.C,C20*
G36*
G01*
X114230000Y-76382138D02*
X114230000Y-77338662D01*
G75*
G02*
X113958262Y-77610400I-271738J0D01*
G01*
X113251738Y-77610400D01*
G75*
G02*
X112980000Y-77338662I0J271738D01*
G01*
X112980000Y-76382138D01*
G75*
G02*
X113251738Y-76110400I271738J0D01*
G01*
X113958262Y-76110400D01*
G75*
G02*
X114230000Y-76382138I0J-271738D01*
G01*
G37*
G36*
G01*
X116280000Y-76382138D02*
X116280000Y-77338662D01*
G75*
G02*
X116008262Y-77610400I-271738J0D01*
G01*
X115301738Y-77610400D01*
G75*
G02*
X115030000Y-77338662I0J271738D01*
G01*
X115030000Y-76382138D01*
G75*
G02*
X115301738Y-76110400I271738J0D01*
G01*
X116008262Y-76110400D01*
G75*
G02*
X116280000Y-76382138I0J-271738D01*
G01*
G37*
G04 #@! TD*
G04 #@! TO.C,C21*
G36*
G01*
X121633262Y-71992500D02*
X120676738Y-71992500D01*
G75*
G02*
X120405000Y-71720762I0J271738D01*
G01*
X120405000Y-71014238D01*
G75*
G02*
X120676738Y-70742500I271738J0D01*
G01*
X121633262Y-70742500D01*
G75*
G02*
X121905000Y-71014238I0J-271738D01*
G01*
X121905000Y-71720762D01*
G75*
G02*
X121633262Y-71992500I-271738J0D01*
G01*
G37*
G36*
G01*
X121633262Y-74042500D02*
X120676738Y-74042500D01*
G75*
G02*
X120405000Y-73770762I0J271738D01*
G01*
X120405000Y-73064238D01*
G75*
G02*
X120676738Y-72792500I271738J0D01*
G01*
X121633262Y-72792500D01*
G75*
G02*
X121905000Y-73064238I0J-271738D01*
G01*
X121905000Y-73770762D01*
G75*
G02*
X121633262Y-74042500I-271738J0D01*
G01*
G37*
G04 #@! TD*
G04 #@! TO.C,C22*
G36*
G01*
X118215738Y-77260400D02*
X119172262Y-77260400D01*
G75*
G02*
X119444000Y-77532138I0J-271738D01*
G01*
X119444000Y-78238662D01*
G75*
G02*
X119172262Y-78510400I-271738J0D01*
G01*
X118215738Y-78510400D01*
G75*
G02*
X117944000Y-78238662I0J271738D01*
G01*
X117944000Y-77532138D01*
G75*
G02*
X118215738Y-77260400I271738J0D01*
G01*
G37*
G36*
G01*
X118215738Y-75210400D02*
X119172262Y-75210400D01*
G75*
G02*
X119444000Y-75482138I0J-271738D01*
G01*
X119444000Y-76188662D01*
G75*
G02*
X119172262Y-76460400I-271738J0D01*
G01*
X118215738Y-76460400D01*
G75*
G02*
X117944000Y-76188662I0J271738D01*
G01*
X117944000Y-75482138D01*
G75*
G02*
X118215738Y-75210400I271738J0D01*
G01*
G37*
G04 #@! TD*
G04 #@! TO.C,C23*
G36*
G01*
X121712262Y-76460400D02*
X120755738Y-76460400D01*
G75*
G02*
X120484000Y-76188662I0J271738D01*
G01*
X120484000Y-75482138D01*
G75*
G02*
X120755738Y-75210400I271738J0D01*
G01*
X121712262Y-75210400D01*
G75*
G02*
X121984000Y-75482138I0J-271738D01*
G01*
X121984000Y-76188662D01*
G75*
G02*
X121712262Y-76460400I-271738J0D01*
G01*
G37*
G36*
G01*
X121712262Y-78510400D02*
X120755738Y-78510400D01*
G75*
G02*
X120484000Y-78238662I0J271738D01*
G01*
X120484000Y-77532138D01*
G75*
G02*
X120755738Y-77260400I271738J0D01*
G01*
X121712262Y-77260400D01*
G75*
G02*
X121984000Y-77532138I0J-271738D01*
G01*
X121984000Y-78238662D01*
G75*
G02*
X121712262Y-78510400I-271738J0D01*
G01*
G37*
G04 #@! TD*
G04 #@! TO.C,C24*
G36*
G01*
X125914000Y-97464138D02*
X125914000Y-98420662D01*
G75*
G02*
X125642262Y-98692400I-271738J0D01*
G01*
X124935738Y-98692400D01*
G75*
G02*
X124664000Y-98420662I0J271738D01*
G01*
X124664000Y-97464138D01*
G75*
G02*
X124935738Y-97192400I271738J0D01*
G01*
X125642262Y-97192400D01*
G75*
G02*
X125914000Y-97464138I0J-271738D01*
G01*
G37*
G36*
G01*
X127964000Y-97464138D02*
X127964000Y-98420662D01*
G75*
G02*
X127692262Y-98692400I-271738J0D01*
G01*
X126985738Y-98692400D01*
G75*
G02*
X126714000Y-98420662I0J271738D01*
G01*
X126714000Y-97464138D01*
G75*
G02*
X126985738Y-97192400I271738J0D01*
G01*
X127692262Y-97192400D01*
G75*
G02*
X127964000Y-97464138I0J-271738D01*
G01*
G37*
G04 #@! TD*
G04 #@! TO.C,C25*
G36*
G01*
X126714000Y-95880662D02*
X126714000Y-94924138D01*
G75*
G02*
X126985738Y-94652400I271738J0D01*
G01*
X127692262Y-94652400D01*
G75*
G02*
X127964000Y-94924138I0J-271738D01*
G01*
X127964000Y-95880662D01*
G75*
G02*
X127692262Y-96152400I-271738J0D01*
G01*
X126985738Y-96152400D01*
G75*
G02*
X126714000Y-95880662I0J271738D01*
G01*
G37*
G36*
G01*
X124664000Y-95880662D02*
X124664000Y-94924138D01*
G75*
G02*
X124935738Y-94652400I271738J0D01*
G01*
X125642262Y-94652400D01*
G75*
G02*
X125914000Y-94924138I0J-271738D01*
G01*
X125914000Y-95880662D01*
G75*
G02*
X125642262Y-96152400I-271738J0D01*
G01*
X124935738Y-96152400D01*
G75*
G02*
X124664000Y-95880662I0J271738D01*
G01*
G37*
G04 #@! TD*
G04 #@! TO.C,C26*
G36*
G01*
X135936262Y-71634400D02*
X134979738Y-71634400D01*
G75*
G02*
X134708000Y-71362662I0J271738D01*
G01*
X134708000Y-70656138D01*
G75*
G02*
X134979738Y-70384400I271738J0D01*
G01*
X135936262Y-70384400D01*
G75*
G02*
X136208000Y-70656138I0J-271738D01*
G01*
X136208000Y-71362662D01*
G75*
G02*
X135936262Y-71634400I-271738J0D01*
G01*
G37*
G36*
G01*
X135936262Y-73684400D02*
X134979738Y-73684400D01*
G75*
G02*
X134708000Y-73412662I0J271738D01*
G01*
X134708000Y-72706138D01*
G75*
G02*
X134979738Y-72434400I271738J0D01*
G01*
X135936262Y-72434400D01*
G75*
G02*
X136208000Y-72706138I0J-271738D01*
G01*
X136208000Y-73412662D01*
G75*
G02*
X135936262Y-73684400I-271738J0D01*
G01*
G37*
G04 #@! TD*
G04 #@! TO.C,C27*
G36*
G01*
X134979738Y-76752400D02*
X135936262Y-76752400D01*
G75*
G02*
X136208000Y-77024138I0J-271738D01*
G01*
X136208000Y-77730662D01*
G75*
G02*
X135936262Y-78002400I-271738J0D01*
G01*
X134979738Y-78002400D01*
G75*
G02*
X134708000Y-77730662I0J271738D01*
G01*
X134708000Y-77024138D01*
G75*
G02*
X134979738Y-76752400I271738J0D01*
G01*
G37*
G36*
G01*
X134979738Y-74702400D02*
X135936262Y-74702400D01*
G75*
G02*
X136208000Y-74974138I0J-271738D01*
G01*
X136208000Y-75680662D01*
G75*
G02*
X135936262Y-75952400I-271738J0D01*
G01*
X134979738Y-75952400D01*
G75*
G02*
X134708000Y-75680662I0J271738D01*
G01*
X134708000Y-74974138D01*
G75*
G02*
X134979738Y-74702400I271738J0D01*
G01*
G37*
G04 #@! TD*
G04 #@! TO.C,C28*
G36*
G01*
X132439738Y-82340400D02*
X133396262Y-82340400D01*
G75*
G02*
X133668000Y-82612138I0J-271738D01*
G01*
X133668000Y-83318662D01*
G75*
G02*
X133396262Y-83590400I-271738J0D01*
G01*
X132439738Y-83590400D01*
G75*
G02*
X132168000Y-83318662I0J271738D01*
G01*
X132168000Y-82612138D01*
G75*
G02*
X132439738Y-82340400I271738J0D01*
G01*
G37*
G36*
G01*
X132439738Y-80290400D02*
X133396262Y-80290400D01*
G75*
G02*
X133668000Y-80562138I0J-271738D01*
G01*
X133668000Y-81268662D01*
G75*
G02*
X133396262Y-81540400I-271738J0D01*
G01*
X132439738Y-81540400D01*
G75*
G02*
X132168000Y-81268662I0J271738D01*
G01*
X132168000Y-80562138D01*
G75*
G02*
X132439738Y-80290400I271738J0D01*
G01*
G37*
G04 #@! TD*
G04 #@! TO.C,C29*
G36*
G01*
X134979738Y-82340400D02*
X135936262Y-82340400D01*
G75*
G02*
X136208000Y-82612138I0J-271738D01*
G01*
X136208000Y-83318662D01*
G75*
G02*
X135936262Y-83590400I-271738J0D01*
G01*
X134979738Y-83590400D01*
G75*
G02*
X134708000Y-83318662I0J271738D01*
G01*
X134708000Y-82612138D01*
G75*
G02*
X134979738Y-82340400I271738J0D01*
G01*
G37*
G36*
G01*
X134979738Y-80290400D02*
X135936262Y-80290400D01*
G75*
G02*
X136208000Y-80562138I0J-271738D01*
G01*
X136208000Y-81268662D01*
G75*
G02*
X135936262Y-81540400I-271738J0D01*
G01*
X134979738Y-81540400D01*
G75*
G02*
X134708000Y-81268662I0J271738D01*
G01*
X134708000Y-80562138D01*
G75*
G02*
X134979738Y-80290400I271738J0D01*
G01*
G37*
G04 #@! TD*
G04 #@! TO.C,C30*
G36*
G01*
X127606738Y-82386100D02*
X128563262Y-82386100D01*
G75*
G02*
X128835000Y-82657838I0J-271738D01*
G01*
X128835000Y-83364362D01*
G75*
G02*
X128563262Y-83636100I-271738J0D01*
G01*
X127606738Y-83636100D01*
G75*
G02*
X127335000Y-83364362I0J271738D01*
G01*
X127335000Y-82657838D01*
G75*
G02*
X127606738Y-82386100I271738J0D01*
G01*
G37*
G36*
G01*
X127606738Y-80336100D02*
X128563262Y-80336100D01*
G75*
G02*
X128835000Y-80607838I0J-271738D01*
G01*
X128835000Y-81314362D01*
G75*
G02*
X128563262Y-81586100I-271738J0D01*
G01*
X127606738Y-81586100D01*
G75*
G02*
X127335000Y-81314362I0J271738D01*
G01*
X127335000Y-80607838D01*
G75*
G02*
X127606738Y-80336100I271738J0D01*
G01*
G37*
G04 #@! TD*
G04 #@! TO.C,C31*
G36*
G01*
X159203000Y-97024738D02*
X159203000Y-97981262D01*
G75*
G02*
X158931262Y-98253000I-271738J0D01*
G01*
X158224738Y-98253000D01*
G75*
G02*
X157953000Y-97981262I0J271738D01*
G01*
X157953000Y-97024738D01*
G75*
G02*
X158224738Y-96753000I271738J0D01*
G01*
X158931262Y-96753000D01*
G75*
G02*
X159203000Y-97024738I0J-271738D01*
G01*
G37*
G36*
G01*
X161253000Y-97024738D02*
X161253000Y-97981262D01*
G75*
G02*
X160981262Y-98253000I-271738J0D01*
G01*
X160274738Y-98253000D01*
G75*
G02*
X160003000Y-97981262I0J271738D01*
G01*
X160003000Y-97024738D01*
G75*
G02*
X160274738Y-96753000I271738J0D01*
G01*
X160981262Y-96753000D01*
G75*
G02*
X161253000Y-97024738I0J-271738D01*
G01*
G37*
G04 #@! TD*
G04 #@! TO.C,C32*
G36*
G01*
X155162738Y-99140000D02*
X156119262Y-99140000D01*
G75*
G02*
X156391000Y-99411738I0J-271738D01*
G01*
X156391000Y-100118262D01*
G75*
G02*
X156119262Y-100390000I-271738J0D01*
G01*
X155162738Y-100390000D01*
G75*
G02*
X154891000Y-100118262I0J271738D01*
G01*
X154891000Y-99411738D01*
G75*
G02*
X155162738Y-99140000I271738J0D01*
G01*
G37*
G36*
G01*
X155162738Y-97090000D02*
X156119262Y-97090000D01*
G75*
G02*
X156391000Y-97361738I0J-271738D01*
G01*
X156391000Y-98068262D01*
G75*
G02*
X156119262Y-98340000I-271738J0D01*
G01*
X155162738Y-98340000D01*
G75*
G02*
X154891000Y-98068262I0J271738D01*
G01*
X154891000Y-97361738D01*
G75*
G02*
X155162738Y-97090000I271738J0D01*
G01*
G37*
G04 #@! TD*
G04 #@! TO.C,C33*
G36*
G01*
X161908262Y-100446000D02*
X160951738Y-100446000D01*
G75*
G02*
X160680000Y-100174262I0J271738D01*
G01*
X160680000Y-99467738D01*
G75*
G02*
X160951738Y-99196000I271738J0D01*
G01*
X161908262Y-99196000D01*
G75*
G02*
X162180000Y-99467738I0J-271738D01*
G01*
X162180000Y-100174262D01*
G75*
G02*
X161908262Y-100446000I-271738J0D01*
G01*
G37*
G36*
G01*
X161908262Y-102496000D02*
X160951738Y-102496000D01*
G75*
G02*
X160680000Y-102224262I0J271738D01*
G01*
X160680000Y-101517738D01*
G75*
G02*
X160951738Y-101246000I271738J0D01*
G01*
X161908262Y-101246000D01*
G75*
G02*
X162180000Y-101517738I0J-271738D01*
G01*
X162180000Y-102224262D01*
G75*
G02*
X161908262Y-102496000I-271738J0D01*
G01*
G37*
G04 #@! TD*
G04 #@! TO.C,C34*
G36*
G01*
X157621738Y-101299000D02*
X158578262Y-101299000D01*
G75*
G02*
X158850000Y-101570738I0J-271738D01*
G01*
X158850000Y-102277262D01*
G75*
G02*
X158578262Y-102549000I-271738J0D01*
G01*
X157621738Y-102549000D01*
G75*
G02*
X157350000Y-102277262I0J271738D01*
G01*
X157350000Y-101570738D01*
G75*
G02*
X157621738Y-101299000I271738J0D01*
G01*
G37*
G36*
G01*
X157621738Y-99249000D02*
X158578262Y-99249000D01*
G75*
G02*
X158850000Y-99520738I0J-271738D01*
G01*
X158850000Y-100227262D01*
G75*
G02*
X158578262Y-100499000I-271738J0D01*
G01*
X157621738Y-100499000D01*
G75*
G02*
X157350000Y-100227262I0J271738D01*
G01*
X157350000Y-99520738D01*
G75*
G02*
X157621738Y-99249000I271738J0D01*
G01*
G37*
G04 #@! TD*
G04 #@! TO.C,C35*
G36*
G01*
X152805738Y-99101900D02*
X153762262Y-99101900D01*
G75*
G02*
X154034000Y-99373638I0J-271738D01*
G01*
X154034000Y-100080162D01*
G75*
G02*
X153762262Y-100351900I-271738J0D01*
G01*
X152805738Y-100351900D01*
G75*
G02*
X152534000Y-100080162I0J271738D01*
G01*
X152534000Y-99373638D01*
G75*
G02*
X152805738Y-99101900I271738J0D01*
G01*
G37*
G36*
G01*
X152805738Y-97051900D02*
X153762262Y-97051900D01*
G75*
G02*
X154034000Y-97323638I0J-271738D01*
G01*
X154034000Y-98030162D01*
G75*
G02*
X153762262Y-98301900I-271738J0D01*
G01*
X152805738Y-98301900D01*
G75*
G02*
X152534000Y-98030162I0J271738D01*
G01*
X152534000Y-97323638D01*
G75*
G02*
X152805738Y-97051900I271738J0D01*
G01*
G37*
G04 #@! TD*
G04 #@! TO.C,C39*
G36*
G01*
X114738000Y-67492138D02*
X114738000Y-68448662D01*
G75*
G02*
X114466262Y-68720400I-271738J0D01*
G01*
X113759738Y-68720400D01*
G75*
G02*
X113488000Y-68448662I0J271738D01*
G01*
X113488000Y-67492138D01*
G75*
G02*
X113759738Y-67220400I271738J0D01*
G01*
X114466262Y-67220400D01*
G75*
G02*
X114738000Y-67492138I0J-271738D01*
G01*
G37*
G36*
G01*
X116788000Y-67492138D02*
X116788000Y-68448662D01*
G75*
G02*
X116516262Y-68720400I-271738J0D01*
G01*
X115809738Y-68720400D01*
G75*
G02*
X115538000Y-68448662I0J271738D01*
G01*
X115538000Y-67492138D01*
G75*
G02*
X115809738Y-67220400I271738J0D01*
G01*
X116516262Y-67220400D01*
G75*
G02*
X116788000Y-67492138I0J-271738D01*
G01*
G37*
G04 #@! TD*
G04 #@! TO.C,C40*
G36*
G01*
X127808262Y-64531400D02*
X126851738Y-64531400D01*
G75*
G02*
X126580000Y-64259662I0J271738D01*
G01*
X126580000Y-63553138D01*
G75*
G02*
X126851738Y-63281400I271738J0D01*
G01*
X127808262Y-63281400D01*
G75*
G02*
X128080000Y-63553138I0J-271738D01*
G01*
X128080000Y-64259662D01*
G75*
G02*
X127808262Y-64531400I-271738J0D01*
G01*
G37*
G36*
G01*
X127808262Y-66581400D02*
X126851738Y-66581400D01*
G75*
G02*
X126580000Y-66309662I0J271738D01*
G01*
X126580000Y-65603138D01*
G75*
G02*
X126851738Y-65331400I271738J0D01*
G01*
X127808262Y-65331400D01*
G75*
G02*
X128080000Y-65603138I0J-271738D01*
G01*
X128080000Y-66309662D01*
G75*
G02*
X127808262Y-66581400I-271738J0D01*
G01*
G37*
G04 #@! TD*
G04 #@! TO.C,C45*
G36*
G01*
X141250738Y-117882620D02*
X142207262Y-117882620D01*
G75*
G02*
X142479000Y-118154358I0J-271738D01*
G01*
X142479000Y-118860882D01*
G75*
G02*
X142207262Y-119132620I-271738J0D01*
G01*
X141250738Y-119132620D01*
G75*
G02*
X140979000Y-118860882I0J271738D01*
G01*
X140979000Y-118154358D01*
G75*
G02*
X141250738Y-117882620I271738J0D01*
G01*
G37*
G36*
G01*
X141250738Y-115832620D02*
X142207262Y-115832620D01*
G75*
G02*
X142479000Y-116104358I0J-271738D01*
G01*
X142479000Y-116810882D01*
G75*
G02*
X142207262Y-117082620I-271738J0D01*
G01*
X141250738Y-117082620D01*
G75*
G02*
X140979000Y-116810882I0J271738D01*
G01*
X140979000Y-116104358D01*
G75*
G02*
X141250738Y-115832620I271738J0D01*
G01*
G37*
G04 #@! TD*
G04 #@! TO.C,C46*
G36*
G01*
X137613918Y-117852140D02*
X138570442Y-117852140D01*
G75*
G02*
X138842180Y-118123878I0J-271738D01*
G01*
X138842180Y-118830402D01*
G75*
G02*
X138570442Y-119102140I-271738J0D01*
G01*
X137613918Y-119102140D01*
G75*
G02*
X137342180Y-118830402I0J271738D01*
G01*
X137342180Y-118123878D01*
G75*
G02*
X137613918Y-117852140I271738J0D01*
G01*
G37*
G36*
G01*
X137613918Y-115802140D02*
X138570442Y-115802140D01*
G75*
G02*
X138842180Y-116073878I0J-271738D01*
G01*
X138842180Y-116780402D01*
G75*
G02*
X138570442Y-117052140I-271738J0D01*
G01*
X137613918Y-117052140D01*
G75*
G02*
X137342180Y-116780402I0J271738D01*
G01*
X137342180Y-116073878D01*
G75*
G02*
X137613918Y-115802140I271738J0D01*
G01*
G37*
G04 #@! TD*
G04 #@! TO.C,C47*
G36*
G01*
X162683000Y-120005262D02*
X162683000Y-119048738D01*
G75*
G02*
X162954738Y-118777000I271738J0D01*
G01*
X163661262Y-118777000D01*
G75*
G02*
X163933000Y-119048738I0J-271738D01*
G01*
X163933000Y-120005262D01*
G75*
G02*
X163661262Y-120277000I-271738J0D01*
G01*
X162954738Y-120277000D01*
G75*
G02*
X162683000Y-120005262I0J271738D01*
G01*
G37*
G36*
G01*
X160633000Y-120005262D02*
X160633000Y-119048738D01*
G75*
G02*
X160904738Y-118777000I271738J0D01*
G01*
X161611262Y-118777000D01*
G75*
G02*
X161883000Y-119048738I0J-271738D01*
G01*
X161883000Y-120005262D01*
G75*
G02*
X161611262Y-120277000I-271738J0D01*
G01*
X160904738Y-120277000D01*
G75*
G02*
X160633000Y-120005262I0J271738D01*
G01*
G37*
G04 #@! TD*
G04 #@! TO.C,C48*
G36*
G01*
X166282738Y-119094000D02*
X167239262Y-119094000D01*
G75*
G02*
X167511000Y-119365738I0J-271738D01*
G01*
X167511000Y-120072262D01*
G75*
G02*
X167239262Y-120344000I-271738J0D01*
G01*
X166282738Y-120344000D01*
G75*
G02*
X166011000Y-120072262I0J271738D01*
G01*
X166011000Y-119365738D01*
G75*
G02*
X166282738Y-119094000I271738J0D01*
G01*
G37*
G36*
G01*
X166282738Y-117044000D02*
X167239262Y-117044000D01*
G75*
G02*
X167511000Y-117315738I0J-271738D01*
G01*
X167511000Y-118022262D01*
G75*
G02*
X167239262Y-118294000I-271738J0D01*
G01*
X166282738Y-118294000D01*
G75*
G02*
X166011000Y-118022262I0J271738D01*
G01*
X166011000Y-117315738D01*
G75*
G02*
X166282738Y-117044000I271738J0D01*
G01*
G37*
G04 #@! TD*
G04 #@! TO.C,C49*
G36*
G01*
X124506262Y-64531400D02*
X123549738Y-64531400D01*
G75*
G02*
X123278000Y-64259662I0J271738D01*
G01*
X123278000Y-63553138D01*
G75*
G02*
X123549738Y-63281400I271738J0D01*
G01*
X124506262Y-63281400D01*
G75*
G02*
X124778000Y-63553138I0J-271738D01*
G01*
X124778000Y-64259662D01*
G75*
G02*
X124506262Y-64531400I-271738J0D01*
G01*
G37*
G36*
G01*
X124506262Y-66581400D02*
X123549738Y-66581400D01*
G75*
G02*
X123278000Y-66309662I0J271738D01*
G01*
X123278000Y-65603138D01*
G75*
G02*
X123549738Y-65331400I271738J0D01*
G01*
X124506262Y-65331400D01*
G75*
G02*
X124778000Y-65603138I0J-271738D01*
G01*
X124778000Y-66309662D01*
G75*
G02*
X124506262Y-66581400I-271738J0D01*
G01*
G37*
G04 #@! TD*
G04 #@! TO.C,D1*
G36*
G01*
X87364180Y-85409760D02*
X86839180Y-85409760D01*
G75*
G02*
X86576680Y-85147260I0J262500D01*
G01*
X86576680Y-84522260D01*
G75*
G02*
X86839180Y-84259760I262500J0D01*
G01*
X87364180Y-84259760D01*
G75*
G02*
X87626680Y-84522260I0J-262500D01*
G01*
X87626680Y-85147260D01*
G75*
G02*
X87364180Y-85409760I-262500J0D01*
G01*
G37*
G36*
G01*
X87364180Y-87159760D02*
X86839180Y-87159760D01*
G75*
G02*
X86576680Y-86897260I0J262500D01*
G01*
X86576680Y-86272260D01*
G75*
G02*
X86839180Y-86009760I262500J0D01*
G01*
X87364180Y-86009760D01*
G75*
G02*
X87626680Y-86272260I0J-262500D01*
G01*
X87626680Y-86897260D01*
G75*
G02*
X87364180Y-87159760I-262500J0D01*
G01*
G37*
G04 #@! TD*
G04 #@! TO.C,FB1*
G36*
G01*
X105972082Y-85078620D02*
X105015558Y-85078620D01*
G75*
G02*
X104743820Y-84806882I0J271738D01*
G01*
X104743820Y-84100358D01*
G75*
G02*
X105015558Y-83828620I271738J0D01*
G01*
X105972082Y-83828620D01*
G75*
G02*
X106243820Y-84100358I0J-271738D01*
G01*
X106243820Y-84806882D01*
G75*
G02*
X105972082Y-85078620I-271738J0D01*
G01*
G37*
G36*
G01*
X105972082Y-87128620D02*
X105015558Y-87128620D01*
G75*
G02*
X104743820Y-86856882I0J271738D01*
G01*
X104743820Y-86150358D01*
G75*
G02*
X105015558Y-85878620I271738J0D01*
G01*
X105972082Y-85878620D01*
G75*
G02*
X106243820Y-86150358I0J-271738D01*
G01*
X106243820Y-86856882D01*
G75*
G02*
X105972082Y-87128620I-271738J0D01*
G01*
G37*
G04 #@! TD*
G04 #@! TO.C,FB2*
G36*
G01*
X124209860Y-73666878D02*
X124209860Y-74623402D01*
G75*
G02*
X123938122Y-74895140I-271738J0D01*
G01*
X123231598Y-74895140D01*
G75*
G02*
X122959860Y-74623402I0J271738D01*
G01*
X122959860Y-73666878D01*
G75*
G02*
X123231598Y-73395140I271738J0D01*
G01*
X123938122Y-73395140D01*
G75*
G02*
X124209860Y-73666878I0J-271738D01*
G01*
G37*
G36*
G01*
X126259860Y-73666878D02*
X126259860Y-74623402D01*
G75*
G02*
X125988122Y-74895140I-271738J0D01*
G01*
X125281598Y-74895140D01*
G75*
G02*
X125009860Y-74623402I0J271738D01*
G01*
X125009860Y-73666878D01*
G75*
G02*
X125281598Y-73395140I271738J0D01*
G01*
X125988122Y-73395140D01*
G75*
G02*
X126259860Y-73666878I0J-271738D01*
G01*
G37*
G04 #@! TD*
D14*
G04 #@! TO.C,J3*
X128278000Y-52672400D03*
X119778000Y-52672400D03*
D15*
X124028000Y-60222400D03*
D16*
X124028000Y-56222400D03*
G04 #@! TD*
G04 #@! TO.C,R2*
G36*
G01*
X99759720Y-67638402D02*
X99759720Y-66681878D01*
G75*
G02*
X100031458Y-66410140I271738J0D01*
G01*
X100737982Y-66410140D01*
G75*
G02*
X101009720Y-66681878I0J-271738D01*
G01*
X101009720Y-67638402D01*
G75*
G02*
X100737982Y-67910140I-271738J0D01*
G01*
X100031458Y-67910140D01*
G75*
G02*
X99759720Y-67638402I0J271738D01*
G01*
G37*
G36*
G01*
X97709720Y-67638402D02*
X97709720Y-66681878D01*
G75*
G02*
X97981458Y-66410140I271738J0D01*
G01*
X98687982Y-66410140D01*
G75*
G02*
X98959720Y-66681878I0J-271738D01*
G01*
X98959720Y-67638402D01*
G75*
G02*
X98687982Y-67910140I-271738J0D01*
G01*
X97981458Y-67910140D01*
G75*
G02*
X97709720Y-67638402I0J271738D01*
G01*
G37*
G04 #@! TD*
G04 #@! TO.C,R3*
G36*
G01*
X84661960Y-67483462D02*
X84661960Y-66526938D01*
G75*
G02*
X84933698Y-66255200I271738J0D01*
G01*
X85640222Y-66255200D01*
G75*
G02*
X85911960Y-66526938I0J-271738D01*
G01*
X85911960Y-67483462D01*
G75*
G02*
X85640222Y-67755200I-271738J0D01*
G01*
X84933698Y-67755200D01*
G75*
G02*
X84661960Y-67483462I0J271738D01*
G01*
G37*
G36*
G01*
X82611960Y-67483462D02*
X82611960Y-66526938D01*
G75*
G02*
X82883698Y-66255200I271738J0D01*
G01*
X83590222Y-66255200D01*
G75*
G02*
X83861960Y-66526938I0J-271738D01*
G01*
X83861960Y-67483462D01*
G75*
G02*
X83590222Y-67755200I-271738J0D01*
G01*
X82883698Y-67755200D01*
G75*
G02*
X82611960Y-67483462I0J271738D01*
G01*
G37*
G04 #@! TD*
G04 #@! TO.C,R4*
G36*
G01*
X86572618Y-89701320D02*
X87529142Y-89701320D01*
G75*
G02*
X87800880Y-89973058I0J-271738D01*
G01*
X87800880Y-90679582D01*
G75*
G02*
X87529142Y-90951320I-271738J0D01*
G01*
X86572618Y-90951320D01*
G75*
G02*
X86300880Y-90679582I0J271738D01*
G01*
X86300880Y-89973058D01*
G75*
G02*
X86572618Y-89701320I271738J0D01*
G01*
G37*
G36*
G01*
X86572618Y-87651320D02*
X87529142Y-87651320D01*
G75*
G02*
X87800880Y-87923058I0J-271738D01*
G01*
X87800880Y-88629582D01*
G75*
G02*
X87529142Y-88901320I-271738J0D01*
G01*
X86572618Y-88901320D01*
G75*
G02*
X86300880Y-88629582I0J271738D01*
G01*
X86300880Y-87923058D01*
G75*
G02*
X86572618Y-87651320I271738J0D01*
G01*
G37*
G04 #@! TD*
G04 #@! TO.C,R5*
G36*
G01*
X98896220Y-63623718D02*
X98896220Y-64580242D01*
G75*
G02*
X98624482Y-64851980I-271738J0D01*
G01*
X97917958Y-64851980D01*
G75*
G02*
X97646220Y-64580242I0J271738D01*
G01*
X97646220Y-63623718D01*
G75*
G02*
X97917958Y-63351980I271738J0D01*
G01*
X98624482Y-63351980D01*
G75*
G02*
X98896220Y-63623718I0J-271738D01*
G01*
G37*
G36*
G01*
X100946220Y-63623718D02*
X100946220Y-64580242D01*
G75*
G02*
X100674482Y-64851980I-271738J0D01*
G01*
X99967958Y-64851980D01*
G75*
G02*
X99696220Y-64580242I0J271738D01*
G01*
X99696220Y-63623718D01*
G75*
G02*
X99967958Y-63351980I271738J0D01*
G01*
X100674482Y-63351980D01*
G75*
G02*
X100946220Y-63623718I0J-271738D01*
G01*
G37*
G04 #@! TD*
G04 #@! TO.C,R6*
G36*
G01*
X83861960Y-63509418D02*
X83861960Y-64465942D01*
G75*
G02*
X83590222Y-64737680I-271738J0D01*
G01*
X82883698Y-64737680D01*
G75*
G02*
X82611960Y-64465942I0J271738D01*
G01*
X82611960Y-63509418D01*
G75*
G02*
X82883698Y-63237680I271738J0D01*
G01*
X83590222Y-63237680D01*
G75*
G02*
X83861960Y-63509418I0J-271738D01*
G01*
G37*
G36*
G01*
X85911960Y-63509418D02*
X85911960Y-64465942D01*
G75*
G02*
X85640222Y-64737680I-271738J0D01*
G01*
X84933698Y-64737680D01*
G75*
G02*
X84661960Y-64465942I0J271738D01*
G01*
X84661960Y-63509418D01*
G75*
G02*
X84933698Y-63237680I271738J0D01*
G01*
X85640222Y-63237680D01*
G75*
G02*
X85911960Y-63509418I0J-271738D01*
G01*
G37*
G04 #@! TD*
G04 #@! TO.C,R7*
G36*
G01*
X104870000Y-70226662D02*
X104870000Y-69270138D01*
G75*
G02*
X105141738Y-68998400I271738J0D01*
G01*
X105848262Y-68998400D01*
G75*
G02*
X106120000Y-69270138I0J-271738D01*
G01*
X106120000Y-70226662D01*
G75*
G02*
X105848262Y-70498400I-271738J0D01*
G01*
X105141738Y-70498400D01*
G75*
G02*
X104870000Y-70226662I0J271738D01*
G01*
G37*
G36*
G01*
X102820000Y-70226662D02*
X102820000Y-69270138D01*
G75*
G02*
X103091738Y-68998400I271738J0D01*
G01*
X103798262Y-68998400D01*
G75*
G02*
X104070000Y-69270138I0J-271738D01*
G01*
X104070000Y-70226662D01*
G75*
G02*
X103798262Y-70498400I-271738J0D01*
G01*
X103091738Y-70498400D01*
G75*
G02*
X102820000Y-70226662I0J271738D01*
G01*
G37*
G04 #@! TD*
G04 #@! TO.C,R8*
G36*
G01*
X93440200Y-70226662D02*
X93440200Y-69270138D01*
G75*
G02*
X93711938Y-68998400I271738J0D01*
G01*
X94418462Y-68998400D01*
G75*
G02*
X94690200Y-69270138I0J-271738D01*
G01*
X94690200Y-70226662D01*
G75*
G02*
X94418462Y-70498400I-271738J0D01*
G01*
X93711938Y-70498400D01*
G75*
G02*
X93440200Y-70226662I0J271738D01*
G01*
G37*
G36*
G01*
X91390200Y-70226662D02*
X91390200Y-69270138D01*
G75*
G02*
X91661938Y-68998400I271738J0D01*
G01*
X92368462Y-68998400D01*
G75*
G02*
X92640200Y-69270138I0J-271738D01*
G01*
X92640200Y-70226662D01*
G75*
G02*
X92368462Y-70498400I-271738J0D01*
G01*
X91661938Y-70498400D01*
G75*
G02*
X91390200Y-70226662I0J271738D01*
G01*
G37*
G04 #@! TD*
G04 #@! TO.C,R9*
G36*
G01*
X85644462Y-73412400D02*
X84687938Y-73412400D01*
G75*
G02*
X84416200Y-73140662I0J271738D01*
G01*
X84416200Y-72434138D01*
G75*
G02*
X84687938Y-72162400I271738J0D01*
G01*
X85644462Y-72162400D01*
G75*
G02*
X85916200Y-72434138I0J-271738D01*
G01*
X85916200Y-73140662D01*
G75*
G02*
X85644462Y-73412400I-271738J0D01*
G01*
G37*
G36*
G01*
X85644462Y-75462400D02*
X84687938Y-75462400D01*
G75*
G02*
X84416200Y-75190662I0J271738D01*
G01*
X84416200Y-74484138D01*
G75*
G02*
X84687938Y-74212400I271738J0D01*
G01*
X85644462Y-74212400D01*
G75*
G02*
X85916200Y-74484138I0J-271738D01*
G01*
X85916200Y-75190662D01*
G75*
G02*
X85644462Y-75462400I-271738J0D01*
G01*
G37*
G04 #@! TD*
G04 #@! TO.C,R10*
G36*
G01*
X98090462Y-73412400D02*
X97133938Y-73412400D01*
G75*
G02*
X96862200Y-73140662I0J271738D01*
G01*
X96862200Y-72434138D01*
G75*
G02*
X97133938Y-72162400I271738J0D01*
G01*
X98090462Y-72162400D01*
G75*
G02*
X98362200Y-72434138I0J-271738D01*
G01*
X98362200Y-73140662D01*
G75*
G02*
X98090462Y-73412400I-271738J0D01*
G01*
G37*
G36*
G01*
X98090462Y-75462400D02*
X97133938Y-75462400D01*
G75*
G02*
X96862200Y-75190662I0J271738D01*
G01*
X96862200Y-74484138D01*
G75*
G02*
X97133938Y-74212400I271738J0D01*
G01*
X98090462Y-74212400D01*
G75*
G02*
X98362200Y-74484138I0J-271738D01*
G01*
X98362200Y-75190662D01*
G75*
G02*
X98090462Y-75462400I-271738J0D01*
G01*
G37*
G04 #@! TD*
G04 #@! TO.C,R11*
G36*
G01*
X126459262Y-69833500D02*
X125502738Y-69833500D01*
G75*
G02*
X125231000Y-69561762I0J271738D01*
G01*
X125231000Y-68855238D01*
G75*
G02*
X125502738Y-68583500I271738J0D01*
G01*
X126459262Y-68583500D01*
G75*
G02*
X126731000Y-68855238I0J-271738D01*
G01*
X126731000Y-69561762D01*
G75*
G02*
X126459262Y-69833500I-271738J0D01*
G01*
G37*
G36*
G01*
X126459262Y-71883500D02*
X125502738Y-71883500D01*
G75*
G02*
X125231000Y-71611762I0J271738D01*
G01*
X125231000Y-70905238D01*
G75*
G02*
X125502738Y-70633500I271738J0D01*
G01*
X126459262Y-70633500D01*
G75*
G02*
X126731000Y-70905238I0J-271738D01*
G01*
X126731000Y-71611762D01*
G75*
G02*
X126459262Y-71883500I-271738J0D01*
G01*
G37*
G04 #@! TD*
G04 #@! TO.C,R12*
G36*
G01*
X119093262Y-71992500D02*
X118136738Y-71992500D01*
G75*
G02*
X117865000Y-71720762I0J271738D01*
G01*
X117865000Y-71014238D01*
G75*
G02*
X118136738Y-70742500I271738J0D01*
G01*
X119093262Y-70742500D01*
G75*
G02*
X119365000Y-71014238I0J-271738D01*
G01*
X119365000Y-71720762D01*
G75*
G02*
X119093262Y-71992500I-271738J0D01*
G01*
G37*
G36*
G01*
X119093262Y-74042500D02*
X118136738Y-74042500D01*
G75*
G02*
X117865000Y-73770762I0J271738D01*
G01*
X117865000Y-73064238D01*
G75*
G02*
X118136738Y-72792500I271738J0D01*
G01*
X119093262Y-72792500D01*
G75*
G02*
X119365000Y-73064238I0J-271738D01*
G01*
X119365000Y-73770762D01*
G75*
G02*
X119093262Y-74042500I-271738J0D01*
G01*
G37*
G04 #@! TD*
G04 #@! TO.C,R13*
G36*
G01*
X115616262Y-95764400D02*
X114659738Y-95764400D01*
G75*
G02*
X114388000Y-95492662I0J271738D01*
G01*
X114388000Y-94786138D01*
G75*
G02*
X114659738Y-94514400I271738J0D01*
G01*
X115616262Y-94514400D01*
G75*
G02*
X115888000Y-94786138I0J-271738D01*
G01*
X115888000Y-95492662D01*
G75*
G02*
X115616262Y-95764400I-271738J0D01*
G01*
G37*
G36*
G01*
X115616262Y-97814400D02*
X114659738Y-97814400D01*
G75*
G02*
X114388000Y-97542662I0J271738D01*
G01*
X114388000Y-96836138D01*
G75*
G02*
X114659738Y-96564400I271738J0D01*
G01*
X115616262Y-96564400D01*
G75*
G02*
X115888000Y-96836138I0J-271738D01*
G01*
X115888000Y-97542662D01*
G75*
G02*
X115616262Y-97814400I-271738J0D01*
G01*
G37*
G04 #@! TD*
G04 #@! TO.C,R14*
G36*
G01*
X118156262Y-95764400D02*
X117199738Y-95764400D01*
G75*
G02*
X116928000Y-95492662I0J271738D01*
G01*
X116928000Y-94786138D01*
G75*
G02*
X117199738Y-94514400I271738J0D01*
G01*
X118156262Y-94514400D01*
G75*
G02*
X118428000Y-94786138I0J-271738D01*
G01*
X118428000Y-95492662D01*
G75*
G02*
X118156262Y-95764400I-271738J0D01*
G01*
G37*
G36*
G01*
X118156262Y-97814400D02*
X117199738Y-97814400D01*
G75*
G02*
X116928000Y-97542662I0J271738D01*
G01*
X116928000Y-96836138D01*
G75*
G02*
X117199738Y-96564400I271738J0D01*
G01*
X118156262Y-96564400D01*
G75*
G02*
X118428000Y-96836138I0J-271738D01*
G01*
X118428000Y-97542662D01*
G75*
G02*
X118156262Y-97814400I-271738J0D01*
G01*
G37*
G04 #@! TD*
G04 #@! TO.C,R15*
G36*
G01*
X120696262Y-95764400D02*
X119739738Y-95764400D01*
G75*
G02*
X119468000Y-95492662I0J271738D01*
G01*
X119468000Y-94786138D01*
G75*
G02*
X119739738Y-94514400I271738J0D01*
G01*
X120696262Y-94514400D01*
G75*
G02*
X120968000Y-94786138I0J-271738D01*
G01*
X120968000Y-95492662D01*
G75*
G02*
X120696262Y-95764400I-271738J0D01*
G01*
G37*
G36*
G01*
X120696262Y-97814400D02*
X119739738Y-97814400D01*
G75*
G02*
X119468000Y-97542662I0J271738D01*
G01*
X119468000Y-96836138D01*
G75*
G02*
X119739738Y-96564400I271738J0D01*
G01*
X120696262Y-96564400D01*
G75*
G02*
X120968000Y-96836138I0J-271738D01*
G01*
X120968000Y-97542662D01*
G75*
G02*
X120696262Y-97814400I-271738J0D01*
G01*
G37*
G04 #@! TD*
G04 #@! TO.C,R16*
G36*
G01*
X123236262Y-95764400D02*
X122279738Y-95764400D01*
G75*
G02*
X122008000Y-95492662I0J271738D01*
G01*
X122008000Y-94786138D01*
G75*
G02*
X122279738Y-94514400I271738J0D01*
G01*
X123236262Y-94514400D01*
G75*
G02*
X123508000Y-94786138I0J-271738D01*
G01*
X123508000Y-95492662D01*
G75*
G02*
X123236262Y-95764400I-271738J0D01*
G01*
G37*
G36*
G01*
X123236262Y-97814400D02*
X122279738Y-97814400D01*
G75*
G02*
X122008000Y-97542662I0J271738D01*
G01*
X122008000Y-96836138D01*
G75*
G02*
X122279738Y-96564400I271738J0D01*
G01*
X123236262Y-96564400D01*
G75*
G02*
X123508000Y-96836138I0J-271738D01*
G01*
X123508000Y-97542662D01*
G75*
G02*
X123236262Y-97814400I-271738J0D01*
G01*
G37*
G04 #@! TD*
G04 #@! TO.C,R17*
G36*
G01*
X119485000Y-68358238D02*
X119485000Y-69314762D01*
G75*
G02*
X119213262Y-69586500I-271738J0D01*
G01*
X118506738Y-69586500D01*
G75*
G02*
X118235000Y-69314762I0J271738D01*
G01*
X118235000Y-68358238D01*
G75*
G02*
X118506738Y-68086500I271738J0D01*
G01*
X119213262Y-68086500D01*
G75*
G02*
X119485000Y-68358238I0J-271738D01*
G01*
G37*
G36*
G01*
X121535000Y-68358238D02*
X121535000Y-69314762D01*
G75*
G02*
X121263262Y-69586500I-271738J0D01*
G01*
X120556738Y-69586500D01*
G75*
G02*
X120285000Y-69314762I0J271738D01*
G01*
X120285000Y-68358238D01*
G75*
G02*
X120556738Y-68086500I271738J0D01*
G01*
X121263262Y-68086500D01*
G75*
G02*
X121535000Y-68358238I0J-271738D01*
G01*
G37*
G04 #@! TD*
G04 #@! TO.C,R18*
G36*
G01*
X125035260Y-77265002D02*
X125035260Y-76308478D01*
G75*
G02*
X125306998Y-76036740I271738J0D01*
G01*
X126013522Y-76036740D01*
G75*
G02*
X126285260Y-76308478I0J-271738D01*
G01*
X126285260Y-77265002D01*
G75*
G02*
X126013522Y-77536740I-271738J0D01*
G01*
X125306998Y-77536740D01*
G75*
G02*
X125035260Y-77265002I0J271738D01*
G01*
G37*
G36*
G01*
X122985260Y-77265002D02*
X122985260Y-76308478D01*
G75*
G02*
X123256998Y-76036740I271738J0D01*
G01*
X123963522Y-76036740D01*
G75*
G02*
X124235260Y-76308478I0J-271738D01*
G01*
X124235260Y-77265002D01*
G75*
G02*
X123963522Y-77536740I-271738J0D01*
G01*
X123256998Y-77536740D01*
G75*
G02*
X122985260Y-77265002I0J271738D01*
G01*
G37*
G04 #@! TD*
G04 #@! TO.C,R19*
G36*
G01*
X126714000Y-93086662D02*
X126714000Y-92130138D01*
G75*
G02*
X126985738Y-91858400I271738J0D01*
G01*
X127692262Y-91858400D01*
G75*
G02*
X127964000Y-92130138I0J-271738D01*
G01*
X127964000Y-93086662D01*
G75*
G02*
X127692262Y-93358400I-271738J0D01*
G01*
X126985738Y-93358400D01*
G75*
G02*
X126714000Y-93086662I0J271738D01*
G01*
G37*
G36*
G01*
X124664000Y-93086662D02*
X124664000Y-92130138D01*
G75*
G02*
X124935738Y-91858400I271738J0D01*
G01*
X125642262Y-91858400D01*
G75*
G02*
X125914000Y-92130138I0J-271738D01*
G01*
X125914000Y-93086662D01*
G75*
G02*
X125642262Y-93358400I-271738J0D01*
G01*
X124935738Y-93358400D01*
G75*
G02*
X124664000Y-93086662I0J271738D01*
G01*
G37*
G04 #@! TD*
G04 #@! TO.C,R20*
G36*
G01*
X126597000Y-89440238D02*
X126597000Y-90396762D01*
G75*
G02*
X126325262Y-90668500I-271738J0D01*
G01*
X125618738Y-90668500D01*
G75*
G02*
X125347000Y-90396762I0J271738D01*
G01*
X125347000Y-89440238D01*
G75*
G02*
X125618738Y-89168500I271738J0D01*
G01*
X126325262Y-89168500D01*
G75*
G02*
X126597000Y-89440238I0J-271738D01*
G01*
G37*
G36*
G01*
X128647000Y-89440238D02*
X128647000Y-90396762D01*
G75*
G02*
X128375262Y-90668500I-271738J0D01*
G01*
X127668738Y-90668500D01*
G75*
G02*
X127397000Y-90396762I0J271738D01*
G01*
X127397000Y-89440238D01*
G75*
G02*
X127668738Y-89168500I271738J0D01*
G01*
X128375262Y-89168500D01*
G75*
G02*
X128647000Y-89440238I0J-271738D01*
G01*
G37*
G04 #@! TD*
G04 #@! TO.C,R21*
G36*
G01*
X129899738Y-82340400D02*
X130856262Y-82340400D01*
G75*
G02*
X131128000Y-82612138I0J-271738D01*
G01*
X131128000Y-83318662D01*
G75*
G02*
X130856262Y-83590400I-271738J0D01*
G01*
X129899738Y-83590400D01*
G75*
G02*
X129628000Y-83318662I0J271738D01*
G01*
X129628000Y-82612138D01*
G75*
G02*
X129899738Y-82340400I271738J0D01*
G01*
G37*
G36*
G01*
X129899738Y-80290400D02*
X130856262Y-80290400D01*
G75*
G02*
X131128000Y-80562138I0J-271738D01*
G01*
X131128000Y-81268662D01*
G75*
G02*
X130856262Y-81540400I-271738J0D01*
G01*
X129899738Y-81540400D01*
G75*
G02*
X129628000Y-81268662I0J271738D01*
G01*
X129628000Y-80562138D01*
G75*
G02*
X129899738Y-80290400I271738J0D01*
G01*
G37*
G04 #@! TD*
G04 #@! TO.C,R22*
G36*
G01*
X124538000Y-81639938D02*
X124538000Y-82596462D01*
G75*
G02*
X124266262Y-82868200I-271738J0D01*
G01*
X123559738Y-82868200D01*
G75*
G02*
X123288000Y-82596462I0J271738D01*
G01*
X123288000Y-81639938D01*
G75*
G02*
X123559738Y-81368200I271738J0D01*
G01*
X124266262Y-81368200D01*
G75*
G02*
X124538000Y-81639938I0J-271738D01*
G01*
G37*
G36*
G01*
X126588000Y-81639938D02*
X126588000Y-82596462D01*
G75*
G02*
X126316262Y-82868200I-271738J0D01*
G01*
X125609738Y-82868200D01*
G75*
G02*
X125338000Y-82596462I0J271738D01*
G01*
X125338000Y-81639938D01*
G75*
G02*
X125609738Y-81368200I271738J0D01*
G01*
X126316262Y-81368200D01*
G75*
G02*
X126588000Y-81639938I0J-271738D01*
G01*
G37*
G04 #@! TD*
G04 #@! TO.C,R23*
G36*
G01*
X136475998Y-101037340D02*
X137432522Y-101037340D01*
G75*
G02*
X137704260Y-101309078I0J-271738D01*
G01*
X137704260Y-102015602D01*
G75*
G02*
X137432522Y-102287340I-271738J0D01*
G01*
X136475998Y-102287340D01*
G75*
G02*
X136204260Y-102015602I0J271738D01*
G01*
X136204260Y-101309078D01*
G75*
G02*
X136475998Y-101037340I271738J0D01*
G01*
G37*
G36*
G01*
X136475998Y-98987340D02*
X137432522Y-98987340D01*
G75*
G02*
X137704260Y-99259078I0J-271738D01*
G01*
X137704260Y-99965602D01*
G75*
G02*
X137432522Y-100237340I-271738J0D01*
G01*
X136475998Y-100237340D01*
G75*
G02*
X136204260Y-99965602I0J271738D01*
G01*
X136204260Y-99259078D01*
G75*
G02*
X136475998Y-98987340I271738J0D01*
G01*
G37*
G04 #@! TD*
G04 #@! TO.C,R24*
G36*
G01*
X139473198Y-101011940D02*
X140429722Y-101011940D01*
G75*
G02*
X140701460Y-101283678I0J-271738D01*
G01*
X140701460Y-101990202D01*
G75*
G02*
X140429722Y-102261940I-271738J0D01*
G01*
X139473198Y-102261940D01*
G75*
G02*
X139201460Y-101990202I0J271738D01*
G01*
X139201460Y-101283678D01*
G75*
G02*
X139473198Y-101011940I271738J0D01*
G01*
G37*
G36*
G01*
X139473198Y-98961940D02*
X140429722Y-98961940D01*
G75*
G02*
X140701460Y-99233678I0J-271738D01*
G01*
X140701460Y-99940202D01*
G75*
G02*
X140429722Y-100211940I-271738J0D01*
G01*
X139473198Y-100211940D01*
G75*
G02*
X139201460Y-99940202I0J271738D01*
G01*
X139201460Y-99233678D01*
G75*
G02*
X139473198Y-98961940I271738J0D01*
G01*
G37*
G04 #@! TD*
G04 #@! TO.C,R25*
G36*
G01*
X142419598Y-100987000D02*
X143376122Y-100987000D01*
G75*
G02*
X143647860Y-101258738I0J-271738D01*
G01*
X143647860Y-101965262D01*
G75*
G02*
X143376122Y-102237000I-271738J0D01*
G01*
X142419598Y-102237000D01*
G75*
G02*
X142147860Y-101965262I0J271738D01*
G01*
X142147860Y-101258738D01*
G75*
G02*
X142419598Y-100987000I271738J0D01*
G01*
G37*
G36*
G01*
X142419598Y-98937000D02*
X143376122Y-98937000D01*
G75*
G02*
X143647860Y-99208738I0J-271738D01*
G01*
X143647860Y-99915262D01*
G75*
G02*
X143376122Y-100187000I-271738J0D01*
G01*
X142419598Y-100187000D01*
G75*
G02*
X142147860Y-99915262I0J271738D01*
G01*
X142147860Y-99208738D01*
G75*
G02*
X142419598Y-98937000I271738J0D01*
G01*
G37*
G04 #@! TD*
G04 #@! TO.C,R26*
G36*
G01*
X140613080Y-96325162D02*
X140613080Y-95368638D01*
G75*
G02*
X140884818Y-95096900I271738J0D01*
G01*
X141591342Y-95096900D01*
G75*
G02*
X141863080Y-95368638I0J-271738D01*
G01*
X141863080Y-96325162D01*
G75*
G02*
X141591342Y-96596900I-271738J0D01*
G01*
X140884818Y-96596900D01*
G75*
G02*
X140613080Y-96325162I0J271738D01*
G01*
G37*
G36*
G01*
X138563080Y-96325162D02*
X138563080Y-95368638D01*
G75*
G02*
X138834818Y-95096900I271738J0D01*
G01*
X139541342Y-95096900D01*
G75*
G02*
X139813080Y-95368638I0J-271738D01*
G01*
X139813080Y-96325162D01*
G75*
G02*
X139541342Y-96596900I-271738J0D01*
G01*
X138834818Y-96596900D01*
G75*
G02*
X138563080Y-96325162I0J271738D01*
G01*
G37*
G04 #@! TD*
G04 #@! TO.C,R33*
G36*
G01*
X111141000Y-68552762D02*
X111141000Y-67596238D01*
G75*
G02*
X111412738Y-67324500I271738J0D01*
G01*
X112119262Y-67324500D01*
G75*
G02*
X112391000Y-67596238I0J-271738D01*
G01*
X112391000Y-68552762D01*
G75*
G02*
X112119262Y-68824500I-271738J0D01*
G01*
X111412738Y-68824500D01*
G75*
G02*
X111141000Y-68552762I0J271738D01*
G01*
G37*
G36*
G01*
X109091000Y-68552762D02*
X109091000Y-67596238D01*
G75*
G02*
X109362738Y-67324500I271738J0D01*
G01*
X110069262Y-67324500D01*
G75*
G02*
X110341000Y-67596238I0J-271738D01*
G01*
X110341000Y-68552762D01*
G75*
G02*
X110069262Y-68824500I-271738J0D01*
G01*
X109362738Y-68824500D01*
G75*
G02*
X109091000Y-68552762I0J271738D01*
G01*
G37*
G04 #@! TD*
G04 #@! TO.C,R34*
G36*
G01*
X120501738Y-65313400D02*
X121458262Y-65313400D01*
G75*
G02*
X121730000Y-65585138I0J-271738D01*
G01*
X121730000Y-66291662D01*
G75*
G02*
X121458262Y-66563400I-271738J0D01*
G01*
X120501738Y-66563400D01*
G75*
G02*
X120230000Y-66291662I0J271738D01*
G01*
X120230000Y-65585138D01*
G75*
G02*
X120501738Y-65313400I271738J0D01*
G01*
G37*
G36*
G01*
X120501738Y-63263400D02*
X121458262Y-63263400D01*
G75*
G02*
X121730000Y-63535138I0J-271738D01*
G01*
X121730000Y-64241662D01*
G75*
G02*
X121458262Y-64513400I-271738J0D01*
G01*
X120501738Y-64513400D01*
G75*
G02*
X120230000Y-64241662I0J271738D01*
G01*
X120230000Y-63535138D01*
G75*
G02*
X120501738Y-63263400I271738J0D01*
G01*
G37*
G04 #@! TD*
G04 #@! TO.C,R35*
G36*
G01*
X108298722Y-114029540D02*
X107342198Y-114029540D01*
G75*
G02*
X107070460Y-113757802I0J271738D01*
G01*
X107070460Y-113051278D01*
G75*
G02*
X107342198Y-112779540I271738J0D01*
G01*
X108298722Y-112779540D01*
G75*
G02*
X108570460Y-113051278I0J-271738D01*
G01*
X108570460Y-113757802D01*
G75*
G02*
X108298722Y-114029540I-271738J0D01*
G01*
G37*
G36*
G01*
X108298722Y-116079540D02*
X107342198Y-116079540D01*
G75*
G02*
X107070460Y-115807802I0J271738D01*
G01*
X107070460Y-115101278D01*
G75*
G02*
X107342198Y-114829540I271738J0D01*
G01*
X108298722Y-114829540D01*
G75*
G02*
X108570460Y-115101278I0J-271738D01*
G01*
X108570460Y-115807802D01*
G75*
G02*
X108298722Y-116079540I-271738J0D01*
G01*
G37*
G04 #@! TD*
G04 #@! TO.C,R36*
G36*
G01*
X105949222Y-113966040D02*
X104992698Y-113966040D01*
G75*
G02*
X104720960Y-113694302I0J271738D01*
G01*
X104720960Y-112987778D01*
G75*
G02*
X104992698Y-112716040I271738J0D01*
G01*
X105949222Y-112716040D01*
G75*
G02*
X106220960Y-112987778I0J-271738D01*
G01*
X106220960Y-113694302D01*
G75*
G02*
X105949222Y-113966040I-271738J0D01*
G01*
G37*
G36*
G01*
X105949222Y-116016040D02*
X104992698Y-116016040D01*
G75*
G02*
X104720960Y-115744302I0J271738D01*
G01*
X104720960Y-115037778D01*
G75*
G02*
X104992698Y-114766040I271738J0D01*
G01*
X105949222Y-114766040D01*
G75*
G02*
X106220960Y-115037778I0J-271738D01*
G01*
X106220960Y-115744302D01*
G75*
G02*
X105949222Y-116016040I-271738J0D01*
G01*
G37*
G04 #@! TD*
G04 #@! TO.C,R37*
G36*
G01*
X107405698Y-118703040D02*
X108362222Y-118703040D01*
G75*
G02*
X108633960Y-118974778I0J-271738D01*
G01*
X108633960Y-119681302D01*
G75*
G02*
X108362222Y-119953040I-271738J0D01*
G01*
X107405698Y-119953040D01*
G75*
G02*
X107133960Y-119681302I0J271738D01*
G01*
X107133960Y-118974778D01*
G75*
G02*
X107405698Y-118703040I271738J0D01*
G01*
G37*
G36*
G01*
X107405698Y-116653040D02*
X108362222Y-116653040D01*
G75*
G02*
X108633960Y-116924778I0J-271738D01*
G01*
X108633960Y-117631302D01*
G75*
G02*
X108362222Y-117903040I-271738J0D01*
G01*
X107405698Y-117903040D01*
G75*
G02*
X107133960Y-117631302I0J271738D01*
G01*
X107133960Y-116924778D01*
G75*
G02*
X107405698Y-116653040I271738J0D01*
G01*
G37*
G04 #@! TD*
G04 #@! TO.C,R38*
G36*
G01*
X156823738Y-74974400D02*
X157780262Y-74974400D01*
G75*
G02*
X158052000Y-75246138I0J-271738D01*
G01*
X158052000Y-75952662D01*
G75*
G02*
X157780262Y-76224400I-271738J0D01*
G01*
X156823738Y-76224400D01*
G75*
G02*
X156552000Y-75952662I0J271738D01*
G01*
X156552000Y-75246138D01*
G75*
G02*
X156823738Y-74974400I271738J0D01*
G01*
G37*
G36*
G01*
X156823738Y-72924400D02*
X157780262Y-72924400D01*
G75*
G02*
X158052000Y-73196138I0J-271738D01*
G01*
X158052000Y-73902662D01*
G75*
G02*
X157780262Y-74174400I-271738J0D01*
G01*
X156823738Y-74174400D01*
G75*
G02*
X156552000Y-73902662I0J271738D01*
G01*
X156552000Y-73196138D01*
G75*
G02*
X156823738Y-72924400I271738J0D01*
G01*
G37*
G04 #@! TD*
G04 #@! TO.C,R39*
G36*
G01*
X157526262Y-69602400D02*
X156569738Y-69602400D01*
G75*
G02*
X156298000Y-69330662I0J271738D01*
G01*
X156298000Y-68624138D01*
G75*
G02*
X156569738Y-68352400I271738J0D01*
G01*
X157526262Y-68352400D01*
G75*
G02*
X157798000Y-68624138I0J-271738D01*
G01*
X157798000Y-69330662D01*
G75*
G02*
X157526262Y-69602400I-271738J0D01*
G01*
G37*
G36*
G01*
X157526262Y-71652400D02*
X156569738Y-71652400D01*
G75*
G02*
X156298000Y-71380662I0J271738D01*
G01*
X156298000Y-70674138D01*
G75*
G02*
X156569738Y-70402400I271738J0D01*
G01*
X157526262Y-70402400D01*
G75*
G02*
X157798000Y-70674138I0J-271738D01*
G01*
X157798000Y-71380662D01*
G75*
G02*
X157526262Y-71652400I-271738J0D01*
G01*
G37*
G04 #@! TD*
G04 #@! TO.C,R40*
G36*
G01*
X155494262Y-74174400D02*
X154537738Y-74174400D01*
G75*
G02*
X154266000Y-73902662I0J271738D01*
G01*
X154266000Y-73196138D01*
G75*
G02*
X154537738Y-72924400I271738J0D01*
G01*
X155494262Y-72924400D01*
G75*
G02*
X155766000Y-73196138I0J-271738D01*
G01*
X155766000Y-73902662D01*
G75*
G02*
X155494262Y-74174400I-271738J0D01*
G01*
G37*
G36*
G01*
X155494262Y-76224400D02*
X154537738Y-76224400D01*
G75*
G02*
X154266000Y-75952662I0J271738D01*
G01*
X154266000Y-75246138D01*
G75*
G02*
X154537738Y-74974400I271738J0D01*
G01*
X155494262Y-74974400D01*
G75*
G02*
X155766000Y-75246138I0J-271738D01*
G01*
X155766000Y-75952662D01*
G75*
G02*
X155494262Y-76224400I-271738J0D01*
G01*
G37*
G04 #@! TD*
G04 #@! TO.C,R41*
G36*
G01*
X140430000Y-73528662D02*
X140430000Y-72572138D01*
G75*
G02*
X140701738Y-72300400I271738J0D01*
G01*
X141408262Y-72300400D01*
G75*
G02*
X141680000Y-72572138I0J-271738D01*
G01*
X141680000Y-73528662D01*
G75*
G02*
X141408262Y-73800400I-271738J0D01*
G01*
X140701738Y-73800400D01*
G75*
G02*
X140430000Y-73528662I0J271738D01*
G01*
G37*
G36*
G01*
X138380000Y-73528662D02*
X138380000Y-72572138D01*
G75*
G02*
X138651738Y-72300400I271738J0D01*
G01*
X139358262Y-72300400D01*
G75*
G02*
X139630000Y-72572138I0J-271738D01*
G01*
X139630000Y-73528662D01*
G75*
G02*
X139358262Y-73800400I-271738J0D01*
G01*
X138651738Y-73800400D01*
G75*
G02*
X138380000Y-73528662I0J271738D01*
G01*
G37*
G04 #@! TD*
G04 #@! TO.C,R42*
G36*
G01*
X143224000Y-70988662D02*
X143224000Y-70032138D01*
G75*
G02*
X143495738Y-69760400I271738J0D01*
G01*
X144202262Y-69760400D01*
G75*
G02*
X144474000Y-70032138I0J-271738D01*
G01*
X144474000Y-70988662D01*
G75*
G02*
X144202262Y-71260400I-271738J0D01*
G01*
X143495738Y-71260400D01*
G75*
G02*
X143224000Y-70988662I0J271738D01*
G01*
G37*
G36*
G01*
X141174000Y-70988662D02*
X141174000Y-70032138D01*
G75*
G02*
X141445738Y-69760400I271738J0D01*
G01*
X142152262Y-69760400D01*
G75*
G02*
X142424000Y-70032138I0J-271738D01*
G01*
X142424000Y-70988662D01*
G75*
G02*
X142152262Y-71260400I-271738J0D01*
G01*
X141445738Y-71260400D01*
G75*
G02*
X141174000Y-70988662I0J271738D01*
G01*
G37*
G04 #@! TD*
G04 #@! TO.C,R43*
G36*
G01*
X146018000Y-73528662D02*
X146018000Y-72572138D01*
G75*
G02*
X146289738Y-72300400I271738J0D01*
G01*
X146996262Y-72300400D01*
G75*
G02*
X147268000Y-72572138I0J-271738D01*
G01*
X147268000Y-73528662D01*
G75*
G02*
X146996262Y-73800400I-271738J0D01*
G01*
X146289738Y-73800400D01*
G75*
G02*
X146018000Y-73528662I0J271738D01*
G01*
G37*
G36*
G01*
X143968000Y-73528662D02*
X143968000Y-72572138D01*
G75*
G02*
X144239738Y-72300400I271738J0D01*
G01*
X144946262Y-72300400D01*
G75*
G02*
X145218000Y-72572138I0J-271738D01*
G01*
X145218000Y-73528662D01*
G75*
G02*
X144946262Y-73800400I-271738J0D01*
G01*
X144239738Y-73800400D01*
G75*
G02*
X143968000Y-73528662I0J271738D01*
G01*
G37*
G04 #@! TD*
G04 #@! TO.C,R44*
G36*
G01*
X148558000Y-70988662D02*
X148558000Y-70032138D01*
G75*
G02*
X148829738Y-69760400I271738J0D01*
G01*
X149536262Y-69760400D01*
G75*
G02*
X149808000Y-70032138I0J-271738D01*
G01*
X149808000Y-70988662D01*
G75*
G02*
X149536262Y-71260400I-271738J0D01*
G01*
X148829738Y-71260400D01*
G75*
G02*
X148558000Y-70988662I0J271738D01*
G01*
G37*
G36*
G01*
X146508000Y-70988662D02*
X146508000Y-70032138D01*
G75*
G02*
X146779738Y-69760400I271738J0D01*
G01*
X147486262Y-69760400D01*
G75*
G02*
X147758000Y-70032138I0J-271738D01*
G01*
X147758000Y-70988662D01*
G75*
G02*
X147486262Y-71260400I-271738J0D01*
G01*
X146779738Y-71260400D01*
G75*
G02*
X146508000Y-70988662I0J271738D01*
G01*
G37*
G04 #@! TD*
G04 #@! TO.C,R45*
G36*
G01*
X92550722Y-122411540D02*
X91594198Y-122411540D01*
G75*
G02*
X91322460Y-122139802I0J271738D01*
G01*
X91322460Y-121433278D01*
G75*
G02*
X91594198Y-121161540I271738J0D01*
G01*
X92550722Y-121161540D01*
G75*
G02*
X92822460Y-121433278I0J-271738D01*
G01*
X92822460Y-122139802D01*
G75*
G02*
X92550722Y-122411540I-271738J0D01*
G01*
G37*
G36*
G01*
X92550722Y-124461540D02*
X91594198Y-124461540D01*
G75*
G02*
X91322460Y-124189802I0J271738D01*
G01*
X91322460Y-123483278D01*
G75*
G02*
X91594198Y-123211540I271738J0D01*
G01*
X92550722Y-123211540D01*
G75*
G02*
X92822460Y-123483278I0J-271738D01*
G01*
X92822460Y-124189802D01*
G75*
G02*
X92550722Y-124461540I-271738J0D01*
G01*
G37*
G04 #@! TD*
G04 #@! TO.C,R46*
G36*
G01*
X105913662Y-122426780D02*
X104957138Y-122426780D01*
G75*
G02*
X104685400Y-122155042I0J271738D01*
G01*
X104685400Y-121448518D01*
G75*
G02*
X104957138Y-121176780I271738J0D01*
G01*
X105913662Y-121176780D01*
G75*
G02*
X106185400Y-121448518I0J-271738D01*
G01*
X106185400Y-122155042D01*
G75*
G02*
X105913662Y-122426780I-271738J0D01*
G01*
G37*
G36*
G01*
X105913662Y-124476780D02*
X104957138Y-124476780D01*
G75*
G02*
X104685400Y-124205042I0J271738D01*
G01*
X104685400Y-123498518D01*
G75*
G02*
X104957138Y-123226780I271738J0D01*
G01*
X105913662Y-123226780D01*
G75*
G02*
X106185400Y-123498518I0J-271738D01*
G01*
X106185400Y-124205042D01*
G75*
G02*
X105913662Y-124476780I-271738J0D01*
G01*
G37*
G04 #@! TD*
G04 #@! TO.C,R47*
G36*
G01*
X86406462Y-122434000D02*
X85449938Y-122434000D01*
G75*
G02*
X85178200Y-122162262I0J271738D01*
G01*
X85178200Y-121455738D01*
G75*
G02*
X85449938Y-121184000I271738J0D01*
G01*
X86406462Y-121184000D01*
G75*
G02*
X86678200Y-121455738I0J-271738D01*
G01*
X86678200Y-122162262D01*
G75*
G02*
X86406462Y-122434000I-271738J0D01*
G01*
G37*
G36*
G01*
X86406462Y-124484000D02*
X85449938Y-124484000D01*
G75*
G02*
X85178200Y-124212262I0J271738D01*
G01*
X85178200Y-123505738D01*
G75*
G02*
X85449938Y-123234000I271738J0D01*
G01*
X86406462Y-123234000D01*
G75*
G02*
X86678200Y-123505738I0J-271738D01*
G01*
X86678200Y-124212262D01*
G75*
G02*
X86406462Y-124484000I-271738J0D01*
G01*
G37*
G04 #@! TD*
G04 #@! TO.C,R48*
G36*
G01*
X78786462Y-122434000D02*
X77829938Y-122434000D01*
G75*
G02*
X77558200Y-122162262I0J271738D01*
G01*
X77558200Y-121455738D01*
G75*
G02*
X77829938Y-121184000I271738J0D01*
G01*
X78786462Y-121184000D01*
G75*
G02*
X79058200Y-121455738I0J-271738D01*
G01*
X79058200Y-122162262D01*
G75*
G02*
X78786462Y-122434000I-271738J0D01*
G01*
G37*
G36*
G01*
X78786462Y-124484000D02*
X77829938Y-124484000D01*
G75*
G02*
X77558200Y-124212262I0J271738D01*
G01*
X77558200Y-123505738D01*
G75*
G02*
X77829938Y-123234000I271738J0D01*
G01*
X78786462Y-123234000D01*
G75*
G02*
X79058200Y-123505738I0J-271738D01*
G01*
X79058200Y-124212262D01*
G75*
G02*
X78786462Y-124484000I-271738J0D01*
G01*
G37*
G04 #@! TD*
G04 #@! TO.C,R49*
G36*
G01*
X83866462Y-122434000D02*
X82909938Y-122434000D01*
G75*
G02*
X82638200Y-122162262I0J271738D01*
G01*
X82638200Y-121455738D01*
G75*
G02*
X82909938Y-121184000I271738J0D01*
G01*
X83866462Y-121184000D01*
G75*
G02*
X84138200Y-121455738I0J-271738D01*
G01*
X84138200Y-122162262D01*
G75*
G02*
X83866462Y-122434000I-271738J0D01*
G01*
G37*
G36*
G01*
X83866462Y-124484000D02*
X82909938Y-124484000D01*
G75*
G02*
X82638200Y-124212262I0J271738D01*
G01*
X82638200Y-123505738D01*
G75*
G02*
X82909938Y-123234000I271738J0D01*
G01*
X83866462Y-123234000D01*
G75*
G02*
X84138200Y-123505738I0J-271738D01*
G01*
X84138200Y-124212262D01*
G75*
G02*
X83866462Y-124484000I-271738J0D01*
G01*
G37*
G04 #@! TD*
G04 #@! TO.C,R50*
G36*
G01*
X88946462Y-122434000D02*
X87989938Y-122434000D01*
G75*
G02*
X87718200Y-122162262I0J271738D01*
G01*
X87718200Y-121455738D01*
G75*
G02*
X87989938Y-121184000I271738J0D01*
G01*
X88946462Y-121184000D01*
G75*
G02*
X89218200Y-121455738I0J-271738D01*
G01*
X89218200Y-122162262D01*
G75*
G02*
X88946462Y-122434000I-271738J0D01*
G01*
G37*
G36*
G01*
X88946462Y-124484000D02*
X87989938Y-124484000D01*
G75*
G02*
X87718200Y-124212262I0J271738D01*
G01*
X87718200Y-123505738D01*
G75*
G02*
X87989938Y-123234000I271738J0D01*
G01*
X88946462Y-123234000D01*
G75*
G02*
X89218200Y-123505738I0J-271738D01*
G01*
X89218200Y-124212262D01*
G75*
G02*
X88946462Y-124484000I-271738J0D01*
G01*
G37*
G04 #@! TD*
G04 #@! TO.C,R51*
G36*
G01*
X108654322Y-122444560D02*
X107697798Y-122444560D01*
G75*
G02*
X107426060Y-122172822I0J271738D01*
G01*
X107426060Y-121466298D01*
G75*
G02*
X107697798Y-121194560I271738J0D01*
G01*
X108654322Y-121194560D01*
G75*
G02*
X108926060Y-121466298I0J-271738D01*
G01*
X108926060Y-122172822D01*
G75*
G02*
X108654322Y-122444560I-271738J0D01*
G01*
G37*
G36*
G01*
X108654322Y-124494560D02*
X107697798Y-124494560D01*
G75*
G02*
X107426060Y-124222822I0J271738D01*
G01*
X107426060Y-123516298D01*
G75*
G02*
X107697798Y-123244560I271738J0D01*
G01*
X108654322Y-123244560D01*
G75*
G02*
X108926060Y-123516298I0J-271738D01*
G01*
X108926060Y-124222822D01*
G75*
G02*
X108654322Y-124494560I-271738J0D01*
G01*
G37*
G04 #@! TD*
G04 #@! TO.C,R52*
G36*
G01*
X81326462Y-122434000D02*
X80369938Y-122434000D01*
G75*
G02*
X80098200Y-122162262I0J271738D01*
G01*
X80098200Y-121455738D01*
G75*
G02*
X80369938Y-121184000I271738J0D01*
G01*
X81326462Y-121184000D01*
G75*
G02*
X81598200Y-121455738I0J-271738D01*
G01*
X81598200Y-122162262D01*
G75*
G02*
X81326462Y-122434000I-271738J0D01*
G01*
G37*
G36*
G01*
X81326462Y-124484000D02*
X80369938Y-124484000D01*
G75*
G02*
X80098200Y-124212262I0J271738D01*
G01*
X80098200Y-123505738D01*
G75*
G02*
X80369938Y-123234000I271738J0D01*
G01*
X81326462Y-123234000D01*
G75*
G02*
X81598200Y-123505738I0J-271738D01*
G01*
X81598200Y-124212262D01*
G75*
G02*
X81326462Y-124484000I-271738J0D01*
G01*
G37*
G04 #@! TD*
G04 #@! TO.C,R53*
G36*
G01*
X142540262Y-84842400D02*
X141583738Y-84842400D01*
G75*
G02*
X141312000Y-84570662I0J271738D01*
G01*
X141312000Y-83864138D01*
G75*
G02*
X141583738Y-83592400I271738J0D01*
G01*
X142540262Y-83592400D01*
G75*
G02*
X142812000Y-83864138I0J-271738D01*
G01*
X142812000Y-84570662D01*
G75*
G02*
X142540262Y-84842400I-271738J0D01*
G01*
G37*
G36*
G01*
X142540262Y-86892400D02*
X141583738Y-86892400D01*
G75*
G02*
X141312000Y-86620662I0J271738D01*
G01*
X141312000Y-85914138D01*
G75*
G02*
X141583738Y-85642400I271738J0D01*
G01*
X142540262Y-85642400D01*
G75*
G02*
X142812000Y-85914138I0J-271738D01*
G01*
X142812000Y-86620662D01*
G75*
G02*
X142540262Y-86892400I-271738J0D01*
G01*
G37*
G04 #@! TD*
G04 #@! TO.C,R54*
G36*
G01*
X145080262Y-84842400D02*
X144123738Y-84842400D01*
G75*
G02*
X143852000Y-84570662I0J271738D01*
G01*
X143852000Y-83864138D01*
G75*
G02*
X144123738Y-83592400I271738J0D01*
G01*
X145080262Y-83592400D01*
G75*
G02*
X145352000Y-83864138I0J-271738D01*
G01*
X145352000Y-84570662D01*
G75*
G02*
X145080262Y-84842400I-271738J0D01*
G01*
G37*
G36*
G01*
X145080262Y-86892400D02*
X144123738Y-86892400D01*
G75*
G02*
X143852000Y-86620662I0J271738D01*
G01*
X143852000Y-85914138D01*
G75*
G02*
X144123738Y-85642400I271738J0D01*
G01*
X145080262Y-85642400D01*
G75*
G02*
X145352000Y-85914138I0J-271738D01*
G01*
X145352000Y-86620662D01*
G75*
G02*
X145080262Y-86892400I-271738J0D01*
G01*
G37*
G04 #@! TD*
G04 #@! TO.C,R55*
G36*
G01*
X148304000Y-88260662D02*
X148304000Y-87304138D01*
G75*
G02*
X148575738Y-87032400I271738J0D01*
G01*
X149282262Y-87032400D01*
G75*
G02*
X149554000Y-87304138I0J-271738D01*
G01*
X149554000Y-88260662D01*
G75*
G02*
X149282262Y-88532400I-271738J0D01*
G01*
X148575738Y-88532400D01*
G75*
G02*
X148304000Y-88260662I0J271738D01*
G01*
G37*
G36*
G01*
X146254000Y-88260662D02*
X146254000Y-87304138D01*
G75*
G02*
X146525738Y-87032400I271738J0D01*
G01*
X147232262Y-87032400D01*
G75*
G02*
X147504000Y-87304138I0J-271738D01*
G01*
X147504000Y-88260662D01*
G75*
G02*
X147232262Y-88532400I-271738J0D01*
G01*
X146525738Y-88532400D01*
G75*
G02*
X146254000Y-88260662I0J271738D01*
G01*
G37*
G04 #@! TD*
G04 #@! TO.C,R56*
G36*
G01*
X148304000Y-85212662D02*
X148304000Y-84256138D01*
G75*
G02*
X148575738Y-83984400I271738J0D01*
G01*
X149282262Y-83984400D01*
G75*
G02*
X149554000Y-84256138I0J-271738D01*
G01*
X149554000Y-85212662D01*
G75*
G02*
X149282262Y-85484400I-271738J0D01*
G01*
X148575738Y-85484400D01*
G75*
G02*
X148304000Y-85212662I0J271738D01*
G01*
G37*
G36*
G01*
X146254000Y-85212662D02*
X146254000Y-84256138D01*
G75*
G02*
X146525738Y-83984400I271738J0D01*
G01*
X147232262Y-83984400D01*
G75*
G02*
X147504000Y-84256138I0J-271738D01*
G01*
X147504000Y-85212662D01*
G75*
G02*
X147232262Y-85484400I-271738J0D01*
G01*
X146525738Y-85484400D01*
G75*
G02*
X146254000Y-85212662I0J271738D01*
G01*
G37*
G04 #@! TD*
D17*
G04 #@! TO.C,SW1*
X116392960Y-138269980D03*
D18*
X113892960Y-138269980D03*
X111392960Y-138269980D03*
D19*
X119492960Y-145769980D03*
X108292960Y-145769980D03*
G04 #@! TD*
D18*
G04 #@! TO.C,SW2*
X77599540Y-137220820D03*
X82099540Y-137220820D03*
X77599540Y-143720820D03*
X82099540Y-143720820D03*
G04 #@! TD*
D20*
G04 #@! TO.C,Y1*
X130378000Y-75898400D03*
X130378000Y-71018400D03*
G04 #@! TD*
D21*
G04 #@! TO.C,IC2*
X161556000Y-116154000D03*
X160922000Y-116154000D03*
X160286000Y-116154000D03*
X159652000Y-116154000D03*
X159016000Y-116154000D03*
X158382000Y-116154000D03*
X157746000Y-116154000D03*
X157112000Y-116154000D03*
X156476000Y-116154000D03*
X155842000Y-116154000D03*
X155206000Y-116154000D03*
X154572000Y-116154000D03*
X153936000Y-116154000D03*
X153302000Y-116154000D03*
X152666000Y-116154000D03*
X152032000Y-116154000D03*
X151396000Y-116154000D03*
X150762000Y-116154000D03*
X150126000Y-116154000D03*
X149492000Y-116154000D03*
X148856000Y-116154000D03*
X148222000Y-116154000D03*
X147586000Y-116154000D03*
X146952000Y-116154000D03*
X146316000Y-116154000D03*
X145682000Y-116154000D03*
X145046000Y-116154000D03*
X144412000Y-116154000D03*
X144412000Y-106654000D03*
X145046000Y-106654000D03*
X145682000Y-106654000D03*
X146316000Y-106654000D03*
X146952000Y-106654000D03*
X147586000Y-106654000D03*
X148222000Y-106654000D03*
X148856000Y-106654000D03*
X149492000Y-106654000D03*
X150126000Y-106654000D03*
X150762000Y-106654000D03*
X151396000Y-106654000D03*
X152032000Y-106654000D03*
X152666000Y-106654000D03*
X153302000Y-106654000D03*
X153936000Y-106654000D03*
X154572000Y-106654000D03*
X155206000Y-106654000D03*
X155842000Y-106654000D03*
X156476000Y-106654000D03*
X157112000Y-106654000D03*
X157746000Y-106654000D03*
X158382000Y-106654000D03*
X159016000Y-106654000D03*
X159652000Y-106654000D03*
X160286000Y-106654000D03*
X160922000Y-106654000D03*
X161556000Y-106654000D03*
G04 #@! TD*
D22*
G04 #@! TO.C,C5*
X104708960Y-64913760D03*
D23*
X104708960Y-66913760D03*
G04 #@! TD*
D22*
G04 #@! TO.C,C6*
X89994740Y-64903600D03*
D23*
X89994740Y-66903600D03*
G04 #@! TD*
D24*
G04 #@! TO.C,C9*
X110582460Y-79402940D03*
D25*
X108582460Y-79402940D03*
G04 #@! TD*
D24*
G04 #@! TO.C,C17*
X93444060Y-79003140D03*
D25*
X93444060Y-81003140D03*
G04 #@! TD*
D24*
G04 #@! TO.C,C18*
X110233000Y-72678500D03*
D25*
X110233000Y-74678500D03*
G04 #@! TD*
G04 #@! TO.C,C58*
G36*
G01*
X138954460Y-68502002D02*
X138954460Y-67545478D01*
G75*
G02*
X139226198Y-67273740I271738J0D01*
G01*
X139932722Y-67273740D01*
G75*
G02*
X140204460Y-67545478I0J-271738D01*
G01*
X140204460Y-68502002D01*
G75*
G02*
X139932722Y-68773740I-271738J0D01*
G01*
X139226198Y-68773740D01*
G75*
G02*
X138954460Y-68502002I0J271738D01*
G01*
G37*
G36*
G01*
X136904460Y-68502002D02*
X136904460Y-67545478D01*
G75*
G02*
X137176198Y-67273740I271738J0D01*
G01*
X137882722Y-67273740D01*
G75*
G02*
X138154460Y-67545478I0J-271738D01*
G01*
X138154460Y-68502002D01*
G75*
G02*
X137882722Y-68773740I-271738J0D01*
G01*
X137176198Y-68773740D01*
G75*
G02*
X136904460Y-68502002I0J271738D01*
G01*
G37*
G04 #@! TD*
G04 #@! TO.C,C59*
G36*
G01*
X137517398Y-80285540D02*
X138473922Y-80285540D01*
G75*
G02*
X138745660Y-80557278I0J-271738D01*
G01*
X138745660Y-81263802D01*
G75*
G02*
X138473922Y-81535540I-271738J0D01*
G01*
X137517398Y-81535540D01*
G75*
G02*
X137245660Y-81263802I0J271738D01*
G01*
X137245660Y-80557278D01*
G75*
G02*
X137517398Y-80285540I271738J0D01*
G01*
G37*
G36*
G01*
X137517398Y-78235540D02*
X138473922Y-78235540D01*
G75*
G02*
X138745660Y-78507278I0J-271738D01*
G01*
X138745660Y-79213802D01*
G75*
G02*
X138473922Y-79485540I-271738J0D01*
G01*
X137517398Y-79485540D01*
G75*
G02*
X137245660Y-79213802I0J271738D01*
G01*
X137245660Y-78507278D01*
G75*
G02*
X137517398Y-78235540I271738J0D01*
G01*
G37*
G04 #@! TD*
G04 #@! TO.C,C60*
G36*
G01*
X104992698Y-118766540D02*
X105949222Y-118766540D01*
G75*
G02*
X106220960Y-119038278I0J-271738D01*
G01*
X106220960Y-119744802D01*
G75*
G02*
X105949222Y-120016540I-271738J0D01*
G01*
X104992698Y-120016540D01*
G75*
G02*
X104720960Y-119744802I0J271738D01*
G01*
X104720960Y-119038278D01*
G75*
G02*
X104992698Y-118766540I271738J0D01*
G01*
G37*
G36*
G01*
X104992698Y-116716540D02*
X105949222Y-116716540D01*
G75*
G02*
X106220960Y-116988278I0J-271738D01*
G01*
X106220960Y-117694802D01*
G75*
G02*
X105949222Y-117966540I-271738J0D01*
G01*
X104992698Y-117966540D01*
G75*
G02*
X104720960Y-117694802I0J271738D01*
G01*
X104720960Y-116988278D01*
G75*
G02*
X104992698Y-116716540I271738J0D01*
G01*
G37*
G04 #@! TD*
D18*
G04 #@! TO.C,C61*
X86404200Y-96841856D03*
D17*
X82404200Y-103186144D03*
D18*
X84404200Y-97514000D03*
D17*
X84404200Y-102514000D03*
G04 #@! TD*
D18*
G04 #@! TO.C,C62*
X173589004Y-89302340D03*
D17*
X167244716Y-85302340D03*
D18*
X172916860Y-87302340D03*
D17*
X167916860Y-87302340D03*
G04 #@! TD*
D18*
G04 #@! TO.C,C63*
X109264000Y-97095856D03*
D17*
X105264000Y-103440144D03*
D18*
X107264000Y-97768000D03*
D17*
X107264000Y-102768000D03*
G04 #@! TD*
D18*
G04 #@! TO.C,C64*
X97834200Y-96841856D03*
D17*
X93834200Y-103186144D03*
D18*
X95834200Y-97514000D03*
D17*
X95834200Y-102514000D03*
G04 #@! TD*
G04 #@! TO.C,D4*
G36*
G01*
X155024500Y-69956400D02*
X154499500Y-69956400D01*
G75*
G02*
X154237000Y-69693900I0J262500D01*
G01*
X154237000Y-69068900D01*
G75*
G02*
X154499500Y-68806400I262500J0D01*
G01*
X155024500Y-68806400D01*
G75*
G02*
X155287000Y-69068900I0J-262500D01*
G01*
X155287000Y-69693900D01*
G75*
G02*
X155024500Y-69956400I-262500J0D01*
G01*
G37*
G36*
G01*
X155024500Y-71706400D02*
X154499500Y-71706400D01*
G75*
G02*
X154237000Y-71443900I0J262500D01*
G01*
X154237000Y-70818900D01*
G75*
G02*
X154499500Y-70556400I262500J0D01*
G01*
X155024500Y-70556400D01*
G75*
G02*
X155287000Y-70818900I0J-262500D01*
G01*
X155287000Y-71443900D01*
G75*
G02*
X155024500Y-71706400I-262500J0D01*
G01*
G37*
G04 #@! TD*
D26*
G04 #@! TO.C,D5*
X101160580Y-144211040D03*
X101160580Y-136591040D03*
X98620580Y-144211040D03*
X98620580Y-136591040D03*
X96080580Y-144211040D03*
X96080580Y-136591040D03*
X93540580Y-144211040D03*
X93540580Y-136591040D03*
X91000580Y-144211040D03*
X91000580Y-136591040D03*
D27*
X88460580Y-144211040D03*
D26*
X88460580Y-136591040D03*
G04 #@! TD*
D24*
G04 #@! TO.C,J1*
X169923000Y-55518500D03*
D28*
X165423000Y-57518500D03*
X174423000Y-57518500D03*
D29*
X169923000Y-58518500D03*
D30*
X169923000Y-64518500D03*
G04 #@! TD*
D12*
G04 #@! TO.C,J11*
X107312000Y-133353000D03*
X109852000Y-133353000D03*
X112392000Y-133353000D03*
D13*
X114932000Y-133353000D03*
G04 #@! TD*
D12*
G04 #@! TO.C,J12*
X104772500Y-133353000D03*
X102232500Y-133353000D03*
X99692500Y-133353000D03*
X97152500Y-133353000D03*
X94612500Y-133353000D03*
X92072500Y-133353000D03*
X89532500Y-133353000D03*
X86992500Y-133353000D03*
X84452500Y-133353000D03*
X81912500Y-133353000D03*
D13*
X79372500Y-133353000D03*
G04 #@! TD*
D30*
G04 #@! TO.C,L1*
X166603460Y-130200000D03*
X172191460Y-140360000D03*
D31*
X167747460Y-139880000D03*
X171047460Y-130680000D03*
D32*
X169397460Y-140180000D03*
X169397460Y-130380000D03*
G04 #@! TD*
D30*
G04 #@! TO.C,L2*
X153503460Y-130200000D03*
X159091460Y-140360000D03*
D31*
X154647460Y-139880000D03*
X157947460Y-130680000D03*
D32*
X156297460Y-140180000D03*
X156297460Y-130380000D03*
G04 #@! TD*
D30*
G04 #@! TO.C,L3*
X140403460Y-130222540D03*
X145991460Y-140382540D03*
D31*
X141547460Y-139902540D03*
X144847460Y-130702540D03*
D32*
X143197460Y-140202540D03*
X143197460Y-130402540D03*
G04 #@! TD*
D30*
G04 #@! TO.C,L4*
X127330000Y-130200000D03*
X132918000Y-140360000D03*
D31*
X128474000Y-139880000D03*
X131774000Y-130680000D03*
D32*
X130124000Y-140180000D03*
X130124000Y-130380000D03*
G04 #@! TD*
D33*
G04 #@! TO.C,U1*
X91414200Y-87020400D03*
D34*
X97714200Y-89320400D03*
X97714200Y-87020400D03*
X97714200Y-84720400D03*
G04 #@! TD*
G04 #@! TO.C,U3*
G36*
G01*
X102004000Y-75796400D02*
X102004000Y-76146400D01*
G75*
G02*
X101829000Y-76321400I-175000J0D01*
G01*
X100129000Y-76321400D01*
G75*
G02*
X99954000Y-76146400I0J175000D01*
G01*
X99954000Y-75796400D01*
G75*
G02*
X100129000Y-75621400I175000J0D01*
G01*
X101829000Y-75621400D01*
G75*
G02*
X102004000Y-75796400I0J-175000D01*
G01*
G37*
G36*
G01*
X102004000Y-74526400D02*
X102004000Y-74876400D01*
G75*
G02*
X101829000Y-75051400I-175000J0D01*
G01*
X100129000Y-75051400D01*
G75*
G02*
X99954000Y-74876400I0J175000D01*
G01*
X99954000Y-74526400D01*
G75*
G02*
X100129000Y-74351400I175000J0D01*
G01*
X101829000Y-74351400D01*
G75*
G02*
X102004000Y-74526400I0J-175000D01*
G01*
G37*
G36*
G01*
X102004000Y-73256400D02*
X102004000Y-73606400D01*
G75*
G02*
X101829000Y-73781400I-175000J0D01*
G01*
X100129000Y-73781400D01*
G75*
G02*
X99954000Y-73606400I0J175000D01*
G01*
X99954000Y-73256400D01*
G75*
G02*
X100129000Y-73081400I175000J0D01*
G01*
X101829000Y-73081400D01*
G75*
G02*
X102004000Y-73256400I0J-175000D01*
G01*
G37*
G36*
G01*
X102004000Y-71986400D02*
X102004000Y-72336400D01*
G75*
G02*
X101829000Y-72511400I-175000J0D01*
G01*
X100129000Y-72511400D01*
G75*
G02*
X99954000Y-72336400I0J175000D01*
G01*
X99954000Y-71986400D01*
G75*
G02*
X100129000Y-71811400I175000J0D01*
G01*
X101829000Y-71811400D01*
G75*
G02*
X102004000Y-71986400I0J-175000D01*
G01*
G37*
G36*
G01*
X106954000Y-71986400D02*
X106954000Y-72336400D01*
G75*
G02*
X106779000Y-72511400I-175000J0D01*
G01*
X105079000Y-72511400D01*
G75*
G02*
X104904000Y-72336400I0J175000D01*
G01*
X104904000Y-71986400D01*
G75*
G02*
X105079000Y-71811400I175000J0D01*
G01*
X106779000Y-71811400D01*
G75*
G02*
X106954000Y-71986400I0J-175000D01*
G01*
G37*
G36*
G01*
X106954000Y-73256400D02*
X106954000Y-73606400D01*
G75*
G02*
X106779000Y-73781400I-175000J0D01*
G01*
X105079000Y-73781400D01*
G75*
G02*
X104904000Y-73606400I0J175000D01*
G01*
X104904000Y-73256400D01*
G75*
G02*
X105079000Y-73081400I175000J0D01*
G01*
X106779000Y-73081400D01*
G75*
G02*
X106954000Y-73256400I0J-175000D01*
G01*
G37*
G36*
G01*
X106954000Y-74526400D02*
X106954000Y-74876400D01*
G75*
G02*
X106779000Y-75051400I-175000J0D01*
G01*
X105079000Y-75051400D01*
G75*
G02*
X104904000Y-74876400I0J175000D01*
G01*
X104904000Y-74526400D01*
G75*
G02*
X105079000Y-74351400I175000J0D01*
G01*
X106779000Y-74351400D01*
G75*
G02*
X106954000Y-74526400I0J-175000D01*
G01*
G37*
G36*
G01*
X106954000Y-75796400D02*
X106954000Y-76146400D01*
G75*
G02*
X106779000Y-76321400I-175000J0D01*
G01*
X105079000Y-76321400D01*
G75*
G02*
X104904000Y-76146400I0J175000D01*
G01*
X104904000Y-75796400D01*
G75*
G02*
X105079000Y-75621400I175000J0D01*
G01*
X106779000Y-75621400D01*
G75*
G02*
X106954000Y-75796400I0J-175000D01*
G01*
G37*
G04 #@! TD*
G04 #@! TO.C,U4*
G36*
G01*
X89558200Y-75796400D02*
X89558200Y-76146400D01*
G75*
G02*
X89383200Y-76321400I-175000J0D01*
G01*
X87683200Y-76321400D01*
G75*
G02*
X87508200Y-76146400I0J175000D01*
G01*
X87508200Y-75796400D01*
G75*
G02*
X87683200Y-75621400I175000J0D01*
G01*
X89383200Y-75621400D01*
G75*
G02*
X89558200Y-75796400I0J-175000D01*
G01*
G37*
G36*
G01*
X89558200Y-74526400D02*
X89558200Y-74876400D01*
G75*
G02*
X89383200Y-75051400I-175000J0D01*
G01*
X87683200Y-75051400D01*
G75*
G02*
X87508200Y-74876400I0J175000D01*
G01*
X87508200Y-74526400D01*
G75*
G02*
X87683200Y-74351400I175000J0D01*
G01*
X89383200Y-74351400D01*
G75*
G02*
X89558200Y-74526400I0J-175000D01*
G01*
G37*
G36*
G01*
X89558200Y-73256400D02*
X89558200Y-73606400D01*
G75*
G02*
X89383200Y-73781400I-175000J0D01*
G01*
X87683200Y-73781400D01*
G75*
G02*
X87508200Y-73606400I0J175000D01*
G01*
X87508200Y-73256400D01*
G75*
G02*
X87683200Y-73081400I175000J0D01*
G01*
X89383200Y-73081400D01*
G75*
G02*
X89558200Y-73256400I0J-175000D01*
G01*
G37*
G36*
G01*
X89558200Y-71986400D02*
X89558200Y-72336400D01*
G75*
G02*
X89383200Y-72511400I-175000J0D01*
G01*
X87683200Y-72511400D01*
G75*
G02*
X87508200Y-72336400I0J175000D01*
G01*
X87508200Y-71986400D01*
G75*
G02*
X87683200Y-71811400I175000J0D01*
G01*
X89383200Y-71811400D01*
G75*
G02*
X89558200Y-71986400I0J-175000D01*
G01*
G37*
G36*
G01*
X94508200Y-71986400D02*
X94508200Y-72336400D01*
G75*
G02*
X94333200Y-72511400I-175000J0D01*
G01*
X92633200Y-72511400D01*
G75*
G02*
X92458200Y-72336400I0J175000D01*
G01*
X92458200Y-71986400D01*
G75*
G02*
X92633200Y-71811400I175000J0D01*
G01*
X94333200Y-71811400D01*
G75*
G02*
X94508200Y-71986400I0J-175000D01*
G01*
G37*
G36*
G01*
X94508200Y-73256400D02*
X94508200Y-73606400D01*
G75*
G02*
X94333200Y-73781400I-175000J0D01*
G01*
X92633200Y-73781400D01*
G75*
G02*
X92458200Y-73606400I0J175000D01*
G01*
X92458200Y-73256400D01*
G75*
G02*
X92633200Y-73081400I175000J0D01*
G01*
X94333200Y-73081400D01*
G75*
G02*
X94508200Y-73256400I0J-175000D01*
G01*
G37*
G36*
G01*
X94508200Y-74526400D02*
X94508200Y-74876400D01*
G75*
G02*
X94333200Y-75051400I-175000J0D01*
G01*
X92633200Y-75051400D01*
G75*
G02*
X92458200Y-74876400I0J175000D01*
G01*
X92458200Y-74526400D01*
G75*
G02*
X92633200Y-74351400I175000J0D01*
G01*
X94333200Y-74351400D01*
G75*
G02*
X94508200Y-74526400I0J-175000D01*
G01*
G37*
G36*
G01*
X94508200Y-75796400D02*
X94508200Y-76146400D01*
G75*
G02*
X94333200Y-76321400I-175000J0D01*
G01*
X92633200Y-76321400D01*
G75*
G02*
X92458200Y-76146400I0J175000D01*
G01*
X92458200Y-75796400D01*
G75*
G02*
X92633200Y-75621400I175000J0D01*
G01*
X94333200Y-75621400D01*
G75*
G02*
X94508200Y-75796400I0J-175000D01*
G01*
G37*
G04 #@! TD*
D18*
G04 #@! TO.C,U6*
X115900000Y-60882500D03*
X110820000Y-60882500D03*
D24*
X115900000Y-63502500D03*
X113360000Y-63502500D03*
X110820000Y-63502500D03*
G04 #@! TD*
D18*
G04 #@! TO.C,U7*
X136982000Y-60882500D03*
X131902000Y-60882500D03*
D24*
X136982000Y-63502500D03*
X134442000Y-63502500D03*
X131902000Y-63502500D03*
G04 #@! TD*
D35*
G04 #@! TO.C,U8*
X102105000Y-119129000D03*
X79245000Y-111509000D03*
X99565000Y-119129000D03*
X81785000Y-111509000D03*
X97025000Y-119129000D03*
X84325000Y-111509000D03*
X94485000Y-119129000D03*
X86865000Y-111509000D03*
X91945000Y-119129000D03*
X89405000Y-111509000D03*
X89405000Y-119129000D03*
X91945000Y-111509000D03*
X86865000Y-119129000D03*
X94485000Y-111509000D03*
X84325000Y-119129000D03*
X97025000Y-111509000D03*
X81785000Y-119129000D03*
X99565000Y-111509000D03*
X79245000Y-119129000D03*
D25*
X102105000Y-111509000D03*
G04 #@! TD*
G04 #@! TO.C,U9*
G36*
G01*
X148872000Y-80596400D02*
X149222000Y-80596400D01*
G75*
G02*
X149397000Y-80771400I0J-175000D01*
G01*
X149397000Y-82471400D01*
G75*
G02*
X149222000Y-82646400I-175000J0D01*
G01*
X148872000Y-82646400D01*
G75*
G02*
X148697000Y-82471400I0J175000D01*
G01*
X148697000Y-80771400D01*
G75*
G02*
X148872000Y-80596400I175000J0D01*
G01*
G37*
G36*
G01*
X147602000Y-80596400D02*
X147952000Y-80596400D01*
G75*
G02*
X148127000Y-80771400I0J-175000D01*
G01*
X148127000Y-82471400D01*
G75*
G02*
X147952000Y-82646400I-175000J0D01*
G01*
X147602000Y-82646400D01*
G75*
G02*
X147427000Y-82471400I0J175000D01*
G01*
X147427000Y-80771400D01*
G75*
G02*
X147602000Y-80596400I175000J0D01*
G01*
G37*
G36*
G01*
X146332000Y-80596400D02*
X146682000Y-80596400D01*
G75*
G02*
X146857000Y-80771400I0J-175000D01*
G01*
X146857000Y-82471400D01*
G75*
G02*
X146682000Y-82646400I-175000J0D01*
G01*
X146332000Y-82646400D01*
G75*
G02*
X146157000Y-82471400I0J175000D01*
G01*
X146157000Y-80771400D01*
G75*
G02*
X146332000Y-80596400I175000J0D01*
G01*
G37*
G36*
G01*
X145062000Y-80596400D02*
X145412000Y-80596400D01*
G75*
G02*
X145587000Y-80771400I0J-175000D01*
G01*
X145587000Y-82471400D01*
G75*
G02*
X145412000Y-82646400I-175000J0D01*
G01*
X145062000Y-82646400D01*
G75*
G02*
X144887000Y-82471400I0J175000D01*
G01*
X144887000Y-80771400D01*
G75*
G02*
X145062000Y-80596400I175000J0D01*
G01*
G37*
G36*
G01*
X143792000Y-80596400D02*
X144142000Y-80596400D01*
G75*
G02*
X144317000Y-80771400I0J-175000D01*
G01*
X144317000Y-82471400D01*
G75*
G02*
X144142000Y-82646400I-175000J0D01*
G01*
X143792000Y-82646400D01*
G75*
G02*
X143617000Y-82471400I0J175000D01*
G01*
X143617000Y-80771400D01*
G75*
G02*
X143792000Y-80596400I175000J0D01*
G01*
G37*
G36*
G01*
X142522000Y-80596400D02*
X142872000Y-80596400D01*
G75*
G02*
X143047000Y-80771400I0J-175000D01*
G01*
X143047000Y-82471400D01*
G75*
G02*
X142872000Y-82646400I-175000J0D01*
G01*
X142522000Y-82646400D01*
G75*
G02*
X142347000Y-82471400I0J175000D01*
G01*
X142347000Y-80771400D01*
G75*
G02*
X142522000Y-80596400I175000J0D01*
G01*
G37*
G36*
G01*
X141252000Y-80596400D02*
X141602000Y-80596400D01*
G75*
G02*
X141777000Y-80771400I0J-175000D01*
G01*
X141777000Y-82471400D01*
G75*
G02*
X141602000Y-82646400I-175000J0D01*
G01*
X141252000Y-82646400D01*
G75*
G02*
X141077000Y-82471400I0J175000D01*
G01*
X141077000Y-80771400D01*
G75*
G02*
X141252000Y-80596400I175000J0D01*
G01*
G37*
G36*
G01*
X139982000Y-80596400D02*
X140332000Y-80596400D01*
G75*
G02*
X140507000Y-80771400I0J-175000D01*
G01*
X140507000Y-82471400D01*
G75*
G02*
X140332000Y-82646400I-175000J0D01*
G01*
X139982000Y-82646400D01*
G75*
G02*
X139807000Y-82471400I0J175000D01*
G01*
X139807000Y-80771400D01*
G75*
G02*
X139982000Y-80596400I175000J0D01*
G01*
G37*
G36*
G01*
X139982000Y-75646400D02*
X140332000Y-75646400D01*
G75*
G02*
X140507000Y-75821400I0J-175000D01*
G01*
X140507000Y-77521400D01*
G75*
G02*
X140332000Y-77696400I-175000J0D01*
G01*
X139982000Y-77696400D01*
G75*
G02*
X139807000Y-77521400I0J175000D01*
G01*
X139807000Y-75821400D01*
G75*
G02*
X139982000Y-75646400I175000J0D01*
G01*
G37*
G36*
G01*
X141252000Y-75646400D02*
X141602000Y-75646400D01*
G75*
G02*
X141777000Y-75821400I0J-175000D01*
G01*
X141777000Y-77521400D01*
G75*
G02*
X141602000Y-77696400I-175000J0D01*
G01*
X141252000Y-77696400D01*
G75*
G02*
X141077000Y-77521400I0J175000D01*
G01*
X141077000Y-75821400D01*
G75*
G02*
X141252000Y-75646400I175000J0D01*
G01*
G37*
G36*
G01*
X142522000Y-75646400D02*
X142872000Y-75646400D01*
G75*
G02*
X143047000Y-75821400I0J-175000D01*
G01*
X143047000Y-77521400D01*
G75*
G02*
X142872000Y-77696400I-175000J0D01*
G01*
X142522000Y-77696400D01*
G75*
G02*
X142347000Y-77521400I0J175000D01*
G01*
X142347000Y-75821400D01*
G75*
G02*
X142522000Y-75646400I175000J0D01*
G01*
G37*
G36*
G01*
X143792000Y-75646400D02*
X144142000Y-75646400D01*
G75*
G02*
X144317000Y-75821400I0J-175000D01*
G01*
X144317000Y-77521400D01*
G75*
G02*
X144142000Y-77696400I-175000J0D01*
G01*
X143792000Y-77696400D01*
G75*
G02*
X143617000Y-77521400I0J175000D01*
G01*
X143617000Y-75821400D01*
G75*
G02*
X143792000Y-75646400I175000J0D01*
G01*
G37*
G36*
G01*
X145062000Y-75646400D02*
X145412000Y-75646400D01*
G75*
G02*
X145587000Y-75821400I0J-175000D01*
G01*
X145587000Y-77521400D01*
G75*
G02*
X145412000Y-77696400I-175000J0D01*
G01*
X145062000Y-77696400D01*
G75*
G02*
X144887000Y-77521400I0J175000D01*
G01*
X144887000Y-75821400D01*
G75*
G02*
X145062000Y-75646400I175000J0D01*
G01*
G37*
G36*
G01*
X146332000Y-75646400D02*
X146682000Y-75646400D01*
G75*
G02*
X146857000Y-75821400I0J-175000D01*
G01*
X146857000Y-77521400D01*
G75*
G02*
X146682000Y-77696400I-175000J0D01*
G01*
X146332000Y-77696400D01*
G75*
G02*
X146157000Y-77521400I0J175000D01*
G01*
X146157000Y-75821400D01*
G75*
G02*
X146332000Y-75646400I175000J0D01*
G01*
G37*
G36*
G01*
X147602000Y-75646400D02*
X147952000Y-75646400D01*
G75*
G02*
X148127000Y-75821400I0J-175000D01*
G01*
X148127000Y-77521400D01*
G75*
G02*
X147952000Y-77696400I-175000J0D01*
G01*
X147602000Y-77696400D01*
G75*
G02*
X147427000Y-77521400I0J175000D01*
G01*
X147427000Y-75821400D01*
G75*
G02*
X147602000Y-75646400I175000J0D01*
G01*
G37*
G36*
G01*
X148872000Y-75646400D02*
X149222000Y-75646400D01*
G75*
G02*
X149397000Y-75821400I0J-175000D01*
G01*
X149397000Y-77521400D01*
G75*
G02*
X149222000Y-77696400I-175000J0D01*
G01*
X148872000Y-77696400D01*
G75*
G02*
X148697000Y-77521400I0J175000D01*
G01*
X148697000Y-75821400D01*
G75*
G02*
X148872000Y-75646400I175000J0D01*
G01*
G37*
G04 #@! TD*
G04 #@! TO.C,C19*
G36*
G01*
X114230000Y-78922138D02*
X114230000Y-79878662D01*
G75*
G02*
X113958262Y-80150400I-271738J0D01*
G01*
X113251738Y-80150400D01*
G75*
G02*
X112980000Y-79878662I0J271738D01*
G01*
X112980000Y-78922138D01*
G75*
G02*
X113251738Y-78650400I271738J0D01*
G01*
X113958262Y-78650400D01*
G75*
G02*
X114230000Y-78922138I0J-271738D01*
G01*
G37*
G36*
G01*
X116280000Y-78922138D02*
X116280000Y-79878662D01*
G75*
G02*
X116008262Y-80150400I-271738J0D01*
G01*
X115301738Y-80150400D01*
G75*
G02*
X115030000Y-79878662I0J271738D01*
G01*
X115030000Y-78922138D01*
G75*
G02*
X115301738Y-78650400I271738J0D01*
G01*
X116008262Y-78650400D01*
G75*
G02*
X116280000Y-78922138I0J-271738D01*
G01*
G37*
G04 #@! TD*
D11*
G04 #@! TO.C,H1*
X79578200Y-70726300D03*
G04 #@! TD*
G04 #@! TO.C,H2*
X166392860Y-111686340D03*
G04 #@! TD*
G04 #@! TO.C,H3*
X120136920Y-127368300D03*
G04 #@! TD*
G04 #@! TO.C,H4*
X139748260Y-111660940D03*
G04 #@! TD*
D36*
G04 #@! TO.C,H6*
X161971000Y-70726300D03*
D37*
X164371000Y-70726300D03*
X163668056Y-72423356D03*
X161971000Y-73126300D03*
X160273944Y-72423356D03*
X159571000Y-70726300D03*
X160273944Y-69029244D03*
X161971000Y-68326300D03*
X163668056Y-69029244D03*
G04 #@! TD*
D12*
G04 #@! TO.C,J2*
X78562200Y-90068400D03*
X78562200Y-87528400D03*
X78562200Y-84988400D03*
X78562200Y-82448400D03*
X78562200Y-79908400D03*
D13*
X78562200Y-77368400D03*
G04 #@! TD*
D12*
G04 #@! TO.C,J9*
X107335320Y-127093980D03*
X109875320Y-127093980D03*
X112415320Y-127093980D03*
D13*
X114955320Y-127093980D03*
G04 #@! TD*
G04 #@! TO.C,R57*
G36*
G01*
X111901020Y-123143538D02*
X111901020Y-124100062D01*
G75*
G02*
X111629282Y-124371800I-271738J0D01*
G01*
X110922758Y-124371800D01*
G75*
G02*
X110651020Y-124100062I0J271738D01*
G01*
X110651020Y-123143538D01*
G75*
G02*
X110922758Y-122871800I271738J0D01*
G01*
X111629282Y-122871800D01*
G75*
G02*
X111901020Y-123143538I0J-271738D01*
G01*
G37*
G36*
G01*
X113951020Y-123143538D02*
X113951020Y-124100062D01*
G75*
G02*
X113679282Y-124371800I-271738J0D01*
G01*
X112972758Y-124371800D01*
G75*
G02*
X112701020Y-124100062I0J271738D01*
G01*
X112701020Y-123143538D01*
G75*
G02*
X112972758Y-122871800I271738J0D01*
G01*
X113679282Y-122871800D01*
G75*
G02*
X113951020Y-123143538I0J-271738D01*
G01*
G37*
G04 #@! TD*
G04 #@! TO.C,R58*
G36*
G01*
X155167858Y-95096280D02*
X156124382Y-95096280D01*
G75*
G02*
X156396120Y-95368018I0J-271738D01*
G01*
X156396120Y-96074542D01*
G75*
G02*
X156124382Y-96346280I-271738J0D01*
G01*
X155167858Y-96346280D01*
G75*
G02*
X154896120Y-96074542I0J271738D01*
G01*
X154896120Y-95368018D01*
G75*
G02*
X155167858Y-95096280I271738J0D01*
G01*
G37*
G36*
G01*
X155167858Y-93046280D02*
X156124382Y-93046280D01*
G75*
G02*
X156396120Y-93318018I0J-271738D01*
G01*
X156396120Y-94024542D01*
G75*
G02*
X156124382Y-94296280I-271738J0D01*
G01*
X155167858Y-94296280D01*
G75*
G02*
X154896120Y-94024542I0J271738D01*
G01*
X154896120Y-93318018D01*
G75*
G02*
X155167858Y-93046280I271738J0D01*
G01*
G37*
G04 #@! TD*
D38*
G04 #@! TO.C,D7*
X152197000Y-81426900D03*
X152197000Y-84226900D03*
G04 #@! TD*
G04 #@! TO.C,D8*
X152270000Y-76032400D03*
X152270000Y-78832400D03*
G04 #@! TD*
D39*
G04 #@! TO.C,Q6*
X148944040Y-92511920D03*
X148944040Y-90611920D03*
X146844040Y-91561920D03*
G04 #@! TD*
G04 #@! TO.C,R59*
G36*
G01*
X130793440Y-101605822D02*
X130793440Y-100649298D01*
G75*
G02*
X131065178Y-100377560I271738J0D01*
G01*
X131771702Y-100377560D01*
G75*
G02*
X132043440Y-100649298I0J-271738D01*
G01*
X132043440Y-101605822D01*
G75*
G02*
X131771702Y-101877560I-271738J0D01*
G01*
X131065178Y-101877560D01*
G75*
G02*
X130793440Y-101605822I0J271738D01*
G01*
G37*
G36*
G01*
X128743440Y-101605822D02*
X128743440Y-100649298D01*
G75*
G02*
X129015178Y-100377560I271738J0D01*
G01*
X129721702Y-100377560D01*
G75*
G02*
X129993440Y-100649298I0J-271738D01*
G01*
X129993440Y-101605822D01*
G75*
G02*
X129721702Y-101877560I-271738J0D01*
G01*
X129015178Y-101877560D01*
G75*
G02*
X128743440Y-101605822I0J271738D01*
G01*
G37*
G04 #@! TD*
G04 #@! TO.C,R60*
G36*
G01*
X152515042Y-94296280D02*
X151558518Y-94296280D01*
G75*
G02*
X151286780Y-94024542I0J271738D01*
G01*
X151286780Y-93318018D01*
G75*
G02*
X151558518Y-93046280I271738J0D01*
G01*
X152515042Y-93046280D01*
G75*
G02*
X152786780Y-93318018I0J-271738D01*
G01*
X152786780Y-94024542D01*
G75*
G02*
X152515042Y-94296280I-271738J0D01*
G01*
G37*
G36*
G01*
X152515042Y-96346280D02*
X151558518Y-96346280D01*
G75*
G02*
X151286780Y-96074542I0J271738D01*
G01*
X151286780Y-95368018D01*
G75*
G02*
X151558518Y-95096280I271738J0D01*
G01*
X152515042Y-95096280D01*
G75*
G02*
X152786780Y-95368018I0J-271738D01*
G01*
X152786780Y-96074542D01*
G75*
G02*
X152515042Y-96346280I-271738J0D01*
G01*
G37*
G04 #@! TD*
D40*
G04 #@! TO.C,TP1*
X152397000Y-70487500D03*
G04 #@! TD*
G04 #@! TO.C,TP2*
X152420000Y-73393300D03*
G04 #@! TD*
D41*
G04 #@! TO.C,B1*
X81404500Y-130178000D03*
X80642500Y-130178000D03*
X79880500Y-130178000D03*
G04 #@! TD*
G04 #@! TO.C,B2*
X109344000Y-130178000D03*
X108582000Y-130178000D03*
X107820000Y-130178000D03*
G04 #@! TD*
G04 #@! TO.C,B3*
X104264000Y-130178000D03*
X103502000Y-130178000D03*
X102740000Y-130178000D03*
G04 #@! TD*
G04 #@! TO.C,B4*
X111884000Y-130178000D03*
X111122000Y-130178000D03*
X110360000Y-130178000D03*
G04 #@! TD*
G04 #@! TO.C,B5*
X106804000Y-130178000D03*
X106042000Y-130178000D03*
X105280000Y-130178000D03*
G04 #@! TD*
G04 #@! TO.C,B6*
X101724500Y-130178000D03*
X100962500Y-130178000D03*
X100200500Y-130178000D03*
G04 #@! TD*
G04 #@! TO.C,B7*
X116964000Y-130178000D03*
X116202000Y-130178000D03*
X115440000Y-130178000D03*
G04 #@! TD*
G04 #@! TO.C,B8*
X114424000Y-130178000D03*
X113662000Y-130178000D03*
X112900000Y-130178000D03*
G04 #@! TD*
G04 #@! TO.C,B9*
X94104500Y-130178000D03*
X93342500Y-130178000D03*
X92580500Y-130178000D03*
G04 #@! TD*
G04 #@! TO.C,B10*
X83944500Y-130178000D03*
X83182500Y-130178000D03*
X82420500Y-130178000D03*
G04 #@! TD*
G04 #@! TO.C,B11*
X99184500Y-130178000D03*
X98422500Y-130178000D03*
X97660500Y-130178000D03*
G04 #@! TD*
G04 #@! TO.C,B12*
X89024500Y-130178000D03*
X88262500Y-130178000D03*
X87500500Y-130178000D03*
G04 #@! TD*
G04 #@! TO.C,B13*
X86484500Y-130178000D03*
X85722500Y-130178000D03*
X84960500Y-130178000D03*
G04 #@! TD*
G04 #@! TO.C,B14*
X96644500Y-130178000D03*
X95882500Y-130178000D03*
X95120500Y-130178000D03*
G04 #@! TD*
G04 #@! TO.C,B15*
X78864500Y-130178000D03*
X78102500Y-130178000D03*
X77340500Y-130178000D03*
G04 #@! TD*
G04 #@! TO.C,B16*
X91564500Y-130178000D03*
X90802500Y-130178000D03*
X90040500Y-130178000D03*
G04 #@! TD*
D18*
G04 #@! TO.C,C37*
X173589004Y-76449940D03*
D17*
X167244716Y-72449940D03*
D18*
X172916860Y-74449940D03*
D17*
X167916860Y-74449940D03*
G04 #@! TD*
G04 #@! TO.C,C38*
G36*
G01*
X108970000Y-84892662D02*
X108970000Y-83936138D01*
G75*
G02*
X109241738Y-83664400I271738J0D01*
G01*
X109948262Y-83664400D01*
G75*
G02*
X110220000Y-83936138I0J-271738D01*
G01*
X110220000Y-84892662D01*
G75*
G02*
X109948262Y-85164400I-271738J0D01*
G01*
X109241738Y-85164400D01*
G75*
G02*
X108970000Y-84892662I0J271738D01*
G01*
G37*
G36*
G01*
X106920000Y-84892662D02*
X106920000Y-83936138D01*
G75*
G02*
X107191738Y-83664400I271738J0D01*
G01*
X107898262Y-83664400D01*
G75*
G02*
X108170000Y-83936138I0J-271738D01*
G01*
X108170000Y-84892662D01*
G75*
G02*
X107898262Y-85164400I-271738J0D01*
G01*
X107191738Y-85164400D01*
G75*
G02*
X106920000Y-84892662I0J271738D01*
G01*
G37*
G04 #@! TD*
D42*
G04 #@! TO.C,D6*
X161541000Y-59438500D03*
D43*
X161541000Y-64518500D03*
G04 #@! TD*
D11*
G04 #@! TO.C,H7*
X126413260Y-111711740D03*
G04 #@! TD*
G04 #@! TO.C,C1*
G36*
G01*
X157323840Y-89097378D02*
X157323840Y-90053902D01*
G75*
G02*
X157052102Y-90325640I-271738J0D01*
G01*
X156345578Y-90325640D01*
G75*
G02*
X156073840Y-90053902I0J271738D01*
G01*
X156073840Y-89097378D01*
G75*
G02*
X156345578Y-88825640I271738J0D01*
G01*
X157052102Y-88825640D01*
G75*
G02*
X157323840Y-89097378I0J-271738D01*
G01*
G37*
G36*
G01*
X159373840Y-89097378D02*
X159373840Y-90053902D01*
G75*
G02*
X159102102Y-90325640I-271738J0D01*
G01*
X158395578Y-90325640D01*
G75*
G02*
X158123840Y-90053902I0J271738D01*
G01*
X158123840Y-89097378D01*
G75*
G02*
X158395578Y-88825640I271738J0D01*
G01*
X159102102Y-88825640D01*
G75*
G02*
X159373840Y-89097378I0J-271738D01*
G01*
G37*
G04 #@! TD*
G04 #@! TO.C,C2*
G36*
G01*
X160175682Y-77484020D02*
X159219158Y-77484020D01*
G75*
G02*
X158947420Y-77212282I0J271738D01*
G01*
X158947420Y-76505758D01*
G75*
G02*
X159219158Y-76234020I271738J0D01*
G01*
X160175682Y-76234020D01*
G75*
G02*
X160447420Y-76505758I0J-271738D01*
G01*
X160447420Y-77212282D01*
G75*
G02*
X160175682Y-77484020I-271738J0D01*
G01*
G37*
G36*
G01*
X160175682Y-79534020D02*
X159219158Y-79534020D01*
G75*
G02*
X158947420Y-79262282I0J271738D01*
G01*
X158947420Y-78555758D01*
G75*
G02*
X159219158Y-78284020I271738J0D01*
G01*
X160175682Y-78284020D01*
G75*
G02*
X160447420Y-78555758I0J-271738D01*
G01*
X160447420Y-79262282D01*
G75*
G02*
X160175682Y-79534020I-271738J0D01*
G01*
G37*
G04 #@! TD*
G04 #@! TO.C,C3*
G36*
G01*
X102127578Y-88784380D02*
X103084102Y-88784380D01*
G75*
G02*
X103355840Y-89056118I0J-271738D01*
G01*
X103355840Y-89762642D01*
G75*
G02*
X103084102Y-90034380I-271738J0D01*
G01*
X102127578Y-90034380D01*
G75*
G02*
X101855840Y-89762642I0J271738D01*
G01*
X101855840Y-89056118D01*
G75*
G02*
X102127578Y-88784380I271738J0D01*
G01*
G37*
G36*
G01*
X102127578Y-86734380D02*
X103084102Y-86734380D01*
G75*
G02*
X103355840Y-87006118I0J-271738D01*
G01*
X103355840Y-87712642D01*
G75*
G02*
X103084102Y-87984380I-271738J0D01*
G01*
X102127578Y-87984380D01*
G75*
G02*
X101855840Y-87712642I0J271738D01*
G01*
X101855840Y-87006118D01*
G75*
G02*
X102127578Y-86734380I271738J0D01*
G01*
G37*
G04 #@! TD*
G04 #@! TO.C,C4*
G36*
G01*
X136442978Y-95134380D02*
X137399502Y-95134380D01*
G75*
G02*
X137671240Y-95406118I0J-271738D01*
G01*
X137671240Y-96112642D01*
G75*
G02*
X137399502Y-96384380I-271738J0D01*
G01*
X136442978Y-96384380D01*
G75*
G02*
X136171240Y-96112642I0J271738D01*
G01*
X136171240Y-95406118D01*
G75*
G02*
X136442978Y-95134380I271738J0D01*
G01*
G37*
G36*
G01*
X136442978Y-93084380D02*
X137399502Y-93084380D01*
G75*
G02*
X137671240Y-93356118I0J-271738D01*
G01*
X137671240Y-94062642D01*
G75*
G02*
X137399502Y-94334380I-271738J0D01*
G01*
X136442978Y-94334380D01*
G75*
G02*
X136171240Y-94062642I0J271738D01*
G01*
X136171240Y-93356118D01*
G75*
G02*
X136442978Y-93084380I271738J0D01*
G01*
G37*
G04 #@! TD*
G04 #@! TO.C,C7*
G36*
G01*
X100907262Y-88045300D02*
X99950738Y-88045300D01*
G75*
G02*
X99679000Y-87773562I0J271738D01*
G01*
X99679000Y-87067038D01*
G75*
G02*
X99950738Y-86795300I271738J0D01*
G01*
X100907262Y-86795300D01*
G75*
G02*
X101179000Y-87067038I0J-271738D01*
G01*
X101179000Y-87773562D01*
G75*
G02*
X100907262Y-88045300I-271738J0D01*
G01*
G37*
G36*
G01*
X100907262Y-90095300D02*
X99950738Y-90095300D01*
G75*
G02*
X99679000Y-89823562I0J271738D01*
G01*
X99679000Y-89117038D01*
G75*
G02*
X99950738Y-88845300I271738J0D01*
G01*
X100907262Y-88845300D01*
G75*
G02*
X101179000Y-89117038I0J-271738D01*
G01*
X101179000Y-89823562D01*
G75*
G02*
X100907262Y-90095300I-271738J0D01*
G01*
G37*
G04 #@! TD*
G04 #@! TO.C,C8*
G36*
G01*
X140582600Y-93884222D02*
X140582600Y-92927698D01*
G75*
G02*
X140854338Y-92655960I271738J0D01*
G01*
X141560862Y-92655960D01*
G75*
G02*
X141832600Y-92927698I0J-271738D01*
G01*
X141832600Y-93884222D01*
G75*
G02*
X141560862Y-94155960I-271738J0D01*
G01*
X140854338Y-94155960D01*
G75*
G02*
X140582600Y-93884222I0J271738D01*
G01*
G37*
G36*
G01*
X138532600Y-93884222D02*
X138532600Y-92927698D01*
G75*
G02*
X138804338Y-92655960I271738J0D01*
G01*
X139510862Y-92655960D01*
G75*
G02*
X139782600Y-92927698I0J-271738D01*
G01*
X139782600Y-93884222D01*
G75*
G02*
X139510862Y-94155960I-271738J0D01*
G01*
X138804338Y-94155960D01*
G75*
G02*
X138532600Y-93884222I0J271738D01*
G01*
G37*
G04 #@! TD*
G04 #@! TO.C,C10*
G36*
G01*
X88068200Y-80954138D02*
X88068200Y-81910662D01*
G75*
G02*
X87796462Y-82182400I-271738J0D01*
G01*
X87089938Y-82182400D01*
G75*
G02*
X86818200Y-81910662I0J271738D01*
G01*
X86818200Y-80954138D01*
G75*
G02*
X87089938Y-80682400I271738J0D01*
G01*
X87796462Y-80682400D01*
G75*
G02*
X88068200Y-80954138I0J-271738D01*
G01*
G37*
G36*
G01*
X90118200Y-80954138D02*
X90118200Y-81910662D01*
G75*
G02*
X89846462Y-82182400I-271738J0D01*
G01*
X89139938Y-82182400D01*
G75*
G02*
X88868200Y-81910662I0J271738D01*
G01*
X88868200Y-80954138D01*
G75*
G02*
X89139938Y-80682400I271738J0D01*
G01*
X89846462Y-80682400D01*
G75*
G02*
X90118200Y-80954138I0J-271738D01*
G01*
G37*
G04 #@! TD*
G04 #@! TO.C,C11*
G36*
G01*
X100918538Y-80262480D02*
X101875062Y-80262480D01*
G75*
G02*
X102146800Y-80534218I0J-271738D01*
G01*
X102146800Y-81240742D01*
G75*
G02*
X101875062Y-81512480I-271738J0D01*
G01*
X100918538Y-81512480D01*
G75*
G02*
X100646800Y-81240742I0J271738D01*
G01*
X100646800Y-80534218D01*
G75*
G02*
X100918538Y-80262480I271738J0D01*
G01*
G37*
G36*
G01*
X100918538Y-78212480D02*
X101875062Y-78212480D01*
G75*
G02*
X102146800Y-78484218I0J-271738D01*
G01*
X102146800Y-79190742D01*
G75*
G02*
X101875062Y-79462480I-271738J0D01*
G01*
X100918538Y-79462480D01*
G75*
G02*
X100646800Y-79190742I0J271738D01*
G01*
X100646800Y-78484218D01*
G75*
G02*
X100918538Y-78212480I271738J0D01*
G01*
G37*
G04 #@! TD*
G04 #@! TO.C,C12*
G36*
G01*
X88068200Y-78160138D02*
X88068200Y-79116662D01*
G75*
G02*
X87796462Y-79388400I-271738J0D01*
G01*
X87089938Y-79388400D01*
G75*
G02*
X86818200Y-79116662I0J271738D01*
G01*
X86818200Y-78160138D01*
G75*
G02*
X87089938Y-77888400I271738J0D01*
G01*
X87796462Y-77888400D01*
G75*
G02*
X88068200Y-78160138I0J-271738D01*
G01*
G37*
G36*
G01*
X90118200Y-78160138D02*
X90118200Y-79116662D01*
G75*
G02*
X89846462Y-79388400I-271738J0D01*
G01*
X89139938Y-79388400D01*
G75*
G02*
X88868200Y-79116662I0J271738D01*
G01*
X88868200Y-78160138D01*
G75*
G02*
X89139938Y-77888400I271738J0D01*
G01*
X89846462Y-77888400D01*
G75*
G02*
X90118200Y-78160138I0J-271738D01*
G01*
G37*
G04 #@! TD*
G04 #@! TO.C,C13*
G36*
G01*
X87560200Y-69270138D02*
X87560200Y-70226662D01*
G75*
G02*
X87288462Y-70498400I-271738J0D01*
G01*
X86581938Y-70498400D01*
G75*
G02*
X86310200Y-70226662I0J271738D01*
G01*
X86310200Y-69270138D01*
G75*
G02*
X86581938Y-68998400I271738J0D01*
G01*
X87288462Y-68998400D01*
G75*
G02*
X87560200Y-69270138I0J-271738D01*
G01*
G37*
G36*
G01*
X89610200Y-69270138D02*
X89610200Y-70226662D01*
G75*
G02*
X89338462Y-70498400I-271738J0D01*
G01*
X88631938Y-70498400D01*
G75*
G02*
X88360200Y-70226662I0J271738D01*
G01*
X88360200Y-69270138D01*
G75*
G02*
X88631938Y-68998400I271738J0D01*
G01*
X89338462Y-68998400D01*
G75*
G02*
X89610200Y-69270138I0J-271738D01*
G01*
G37*
G04 #@! TD*
G04 #@! TO.C,C14*
G36*
G01*
X103712538Y-80262480D02*
X104669062Y-80262480D01*
G75*
G02*
X104940800Y-80534218I0J-271738D01*
G01*
X104940800Y-81240742D01*
G75*
G02*
X104669062Y-81512480I-271738J0D01*
G01*
X103712538Y-81512480D01*
G75*
G02*
X103440800Y-81240742I0J271738D01*
G01*
X103440800Y-80534218D01*
G75*
G02*
X103712538Y-80262480I271738J0D01*
G01*
G37*
G36*
G01*
X103712538Y-78212480D02*
X104669062Y-78212480D01*
G75*
G02*
X104940800Y-78484218I0J-271738D01*
G01*
X104940800Y-79190742D01*
G75*
G02*
X104669062Y-79462480I-271738J0D01*
G01*
X103712538Y-79462480D01*
G75*
G02*
X103440800Y-79190742I0J271738D01*
G01*
X103440800Y-78484218D01*
G75*
G02*
X103712538Y-78212480I271738J0D01*
G01*
G37*
G04 #@! TD*
G04 #@! TO.C,C15*
G36*
G01*
X98990200Y-69270138D02*
X98990200Y-70226662D01*
G75*
G02*
X98718462Y-70498400I-271738J0D01*
G01*
X98011938Y-70498400D01*
G75*
G02*
X97740200Y-70226662I0J271738D01*
G01*
X97740200Y-69270138D01*
G75*
G02*
X98011938Y-68998400I271738J0D01*
G01*
X98718462Y-68998400D01*
G75*
G02*
X98990200Y-69270138I0J-271738D01*
G01*
G37*
G36*
G01*
X101040200Y-69270138D02*
X101040200Y-70226662D01*
G75*
G02*
X100768462Y-70498400I-271738J0D01*
G01*
X100061938Y-70498400D01*
G75*
G02*
X99790200Y-70226662I0J271738D01*
G01*
X99790200Y-69270138D01*
G75*
G02*
X100061938Y-68998400I271738J0D01*
G01*
X100768462Y-68998400D01*
G75*
G02*
X101040200Y-69270138I0J-271738D01*
G01*
G37*
G04 #@! TD*
G04 #@! TO.C,C16*
G36*
G01*
X97156798Y-78583740D02*
X98113322Y-78583740D01*
G75*
G02*
X98385060Y-78855478I0J-271738D01*
G01*
X98385060Y-79562002D01*
G75*
G02*
X98113322Y-79833740I-271738J0D01*
G01*
X97156798Y-79833740D01*
G75*
G02*
X96885060Y-79562002I0J271738D01*
G01*
X96885060Y-78855478D01*
G75*
G02*
X97156798Y-78583740I271738J0D01*
G01*
G37*
G36*
G01*
X97156798Y-76533740D02*
X98113322Y-76533740D01*
G75*
G02*
X98385060Y-76805478I0J-271738D01*
G01*
X98385060Y-77512002D01*
G75*
G02*
X98113322Y-77783740I-271738J0D01*
G01*
X97156798Y-77783740D01*
G75*
G02*
X96885060Y-77512002I0J271738D01*
G01*
X96885060Y-76805478D01*
G75*
G02*
X97156798Y-76533740I271738J0D01*
G01*
G37*
G04 #@! TD*
G04 #@! TO.C,C36*
G36*
G01*
X133742958Y-117836900D02*
X134699482Y-117836900D01*
G75*
G02*
X134971220Y-118108638I0J-271738D01*
G01*
X134971220Y-118815162D01*
G75*
G02*
X134699482Y-119086900I-271738J0D01*
G01*
X133742958Y-119086900D01*
G75*
G02*
X133471220Y-118815162I0J271738D01*
G01*
X133471220Y-118108638D01*
G75*
G02*
X133742958Y-117836900I271738J0D01*
G01*
G37*
G36*
G01*
X133742958Y-115786900D02*
X134699482Y-115786900D01*
G75*
G02*
X134971220Y-116058638I0J-271738D01*
G01*
X134971220Y-116765162D01*
G75*
G02*
X134699482Y-117036900I-271738J0D01*
G01*
X133742958Y-117036900D01*
G75*
G02*
X133471220Y-116765162I0J271738D01*
G01*
X133471220Y-116058638D01*
G75*
G02*
X133742958Y-115786900I271738J0D01*
G01*
G37*
G04 #@! TD*
D18*
G04 #@! TO.C,C65*
X173512804Y-98510340D03*
D17*
X167168516Y-102510340D03*
D18*
X172840660Y-100510340D03*
D17*
X167840660Y-100510340D03*
G04 #@! TD*
D18*
G04 #@! TO.C,C66*
X115403880Y-101553956D03*
D17*
X119403880Y-107898244D03*
D18*
X117403880Y-102226100D03*
D17*
X117403880Y-107226100D03*
G04 #@! TD*
D44*
G04 #@! TO.C,IC1*
X115690000Y-82782400D03*
X116190000Y-82782400D03*
X116690000Y-82782400D03*
X117190000Y-82782400D03*
X117690000Y-82782400D03*
X118190000Y-82782400D03*
X118690000Y-82782400D03*
X119190000Y-82782400D03*
X119690000Y-82782400D03*
X120190000Y-82782400D03*
X120690000Y-82782400D03*
X121190000Y-82782400D03*
D45*
X122678000Y-84270400D03*
X122678000Y-84770400D03*
X122678000Y-85270400D03*
X122678000Y-85770400D03*
X122678000Y-86270400D03*
X122678000Y-86770400D03*
X122678000Y-87270400D03*
X122678000Y-87770400D03*
X122678000Y-88270400D03*
X122678000Y-88770400D03*
X122678000Y-89270400D03*
X122678000Y-89770400D03*
D44*
X121190000Y-91258400D03*
X120690000Y-91258400D03*
X120190000Y-91258400D03*
X119690000Y-91258400D03*
X119190000Y-91258400D03*
X118690000Y-91258400D03*
X118190000Y-91258400D03*
X117690000Y-91258400D03*
X117190000Y-91258400D03*
X116690000Y-91258400D03*
X116190000Y-91258400D03*
X115690000Y-91258400D03*
D45*
X114202000Y-89770400D03*
X114202000Y-89270400D03*
X114202000Y-88770400D03*
X114202000Y-88270400D03*
X114202000Y-87770400D03*
X114202000Y-87270400D03*
X114202000Y-86770400D03*
X114202000Y-86270400D03*
X114202000Y-85770400D03*
X114202000Y-85270400D03*
X114202000Y-84770400D03*
X114202000Y-84270400D03*
G04 #@! TD*
D46*
G04 #@! TO.C,D3*
X130690860Y-91556740D03*
X130690860Y-89956740D03*
X131990860Y-89956740D03*
X131990860Y-91556740D03*
G04 #@! TD*
D12*
G04 #@! TO.C,J8*
X128463040Y-85295740D03*
D13*
X131003040Y-85295740D03*
G04 #@! TD*
D24*
G04 #@! TO.C,C50*
X169622460Y-147957540D03*
X174622460Y-147957540D03*
G04 #@! TD*
G04 #@! TO.C,C51*
X155873460Y-147957540D03*
X150873460Y-147957540D03*
G04 #@! TD*
G04 #@! TO.C,C52*
X142698460Y-147957540D03*
X147698460Y-147957540D03*
G04 #@! TD*
G04 #@! TO.C,C53*
X128822000Y-147958000D03*
X123822000Y-147958000D03*
G04 #@! TD*
D47*
G04 #@! TO.C,J5*
X138300460Y-148592540D03*
D31*
X133220460Y-148592540D03*
G04 #@! TD*
D47*
G04 #@! TO.C,J6*
X165351460Y-148592540D03*
D31*
X160271460Y-148592540D03*
G04 #@! TD*
D18*
G04 #@! TO.C,C67*
X115807740Y-112945856D03*
D17*
X119807740Y-119290144D03*
D18*
X117807740Y-113618000D03*
D17*
X117807740Y-118618000D03*
G04 #@! TD*
D13*
G04 #@! TO.C,J13*
X85341460Y-108143040D03*
D12*
X82801460Y-108143040D03*
X80261460Y-108143040D03*
X77721460Y-108143040D03*
G04 #@! TD*
D48*
G04 #@! TO.C,P1*
X98318080Y-57636040D03*
D49*
X94318080Y-62386040D03*
D48*
X84318080Y-57636040D03*
D49*
X80318080Y-62386040D03*
D50*
X102918080Y-57636040D03*
X79718080Y-57636040D03*
G04 #@! TD*
G04 #@! TO.C,D2*
G36*
G01*
X83180800Y-87131820D02*
X82655800Y-87131820D01*
G75*
G02*
X82393300Y-86869320I0J262500D01*
G01*
X82393300Y-86244320D01*
G75*
G02*
X82655800Y-85981820I262500J0D01*
G01*
X83180800Y-85981820D01*
G75*
G02*
X83443300Y-86244320I0J-262500D01*
G01*
X83443300Y-86869320D01*
G75*
G02*
X83180800Y-87131820I-262500J0D01*
G01*
G37*
G36*
G01*
X83180800Y-85381820D02*
X82655800Y-85381820D01*
G75*
G02*
X82393300Y-85119320I0J262500D01*
G01*
X82393300Y-84494320D01*
G75*
G02*
X82655800Y-84231820I262500J0D01*
G01*
X83180800Y-84231820D01*
G75*
G02*
X83443300Y-84494320I0J-262500D01*
G01*
X83443300Y-85119320D01*
G75*
G02*
X83180800Y-85381820I-262500J0D01*
G01*
G37*
G04 #@! TD*
G04 #@! TO.C,R1*
G36*
G01*
X82462898Y-87686880D02*
X83419422Y-87686880D01*
G75*
G02*
X83691160Y-87958618I0J-271738D01*
G01*
X83691160Y-88665142D01*
G75*
G02*
X83419422Y-88936880I-271738J0D01*
G01*
X82462898Y-88936880D01*
G75*
G02*
X82191160Y-88665142I0J271738D01*
G01*
X82191160Y-87958618D01*
G75*
G02*
X82462898Y-87686880I271738J0D01*
G01*
G37*
G36*
G01*
X82462898Y-89736880D02*
X83419422Y-89736880D01*
G75*
G02*
X83691160Y-90008618I0J-271738D01*
G01*
X83691160Y-90715142D01*
G75*
G02*
X83419422Y-90986880I-271738J0D01*
G01*
X82462898Y-90986880D01*
G75*
G02*
X82191160Y-90715142I0J271738D01*
G01*
X82191160Y-90008618D01*
G75*
G02*
X82462898Y-89736880I271738J0D01*
G01*
G37*
G04 #@! TD*
D51*
G04 #@! TO.C,PS1*
X159661860Y-86636860D03*
D18*
X159661860Y-84096860D03*
X159661860Y-81556860D03*
G04 #@! TD*
D51*
G04 #@! TO.C,U2*
X136227820Y-90853260D03*
D18*
X138767820Y-90853260D03*
X141307820Y-90853260D03*
G04 #@! TD*
D13*
G04 #@! TO.C,J14*
X96045020Y-123309380D03*
D12*
X98585020Y-123309380D03*
X101125020Y-123309380D03*
G04 #@! TD*
D41*
G04 #@! TO.C,B17*
X105870939Y-186339360D03*
X105870939Y-187101360D03*
X105870939Y-187863360D03*
G04 #@! TD*
D13*
G04 #@! TO.C,J10*
X104755939Y-127006361D03*
D12*
X102215939Y-127006361D03*
X99675939Y-127006361D03*
X97135939Y-127006361D03*
X94595939Y-127006361D03*
X92055939Y-127006361D03*
X89515939Y-127006361D03*
X86975939Y-127006361D03*
X84435939Y-127006361D03*
X81895939Y-127006361D03*
X79355939Y-127006361D03*
G04 #@! TD*
D52*
G04 #@! TO.C,J7*
X144928000Y-63640500D03*
X145428000Y-63640500D03*
X145928000Y-63640500D03*
X146428000Y-63640500D03*
X146928000Y-63640500D03*
X147428000Y-63640500D03*
X147928000Y-63640500D03*
X148428000Y-63640500D03*
X148928000Y-63640500D03*
X149428000Y-63640500D03*
X149928000Y-63640500D03*
X150428000Y-63640500D03*
X150928000Y-63640500D03*
X151428000Y-63640500D03*
X151928000Y-63640500D03*
X152428000Y-63640500D03*
X152928000Y-63640500D03*
X153428000Y-63640500D03*
X153928000Y-63640500D03*
D53*
X156678000Y-62880500D03*
X142178000Y-62880500D03*
D54*
X142178000Y-56920500D03*
X156678000Y-56920500D03*
G04 #@! TD*
M02*
