%TF.GenerationSoftware,KiCad,Pcbnew,(5.1.6-0-10_14)*%
%TF.CreationDate,2020-07-11T00:20:46+09:00*%
%TF.ProjectId,TAS6422AMP,54415336-3432-4324-914d-502e6b696361,rev?*%
%TF.SameCoordinates,Original*%
%TF.FileFunction,Soldermask,Bot*%
%TF.FilePolarity,Negative*%
%FSLAX46Y46*%
G04 Gerber Fmt 4.6, Leading zero omitted, Abs format (unit mm)*
G04 Created by KiCad (PCBNEW (5.1.6-0-10_14)) date 2020-07-11 00:20:46*
%MOMM*%
%LPD*%
G01*
G04 APERTURE LIST*
%ADD10O,1.800000X1.800000*%
%ADD11R,1.800000X1.800000*%
%ADD12O,1.900000X2.800000*%
%ADD13R,3.100000X4.100000*%
%ADD14R,5.100000X3.100000*%
%ADD15R,2.100000X2.100000*%
%ADD16C,2.100000*%
%ADD17R,2.600000X3.100000*%
%ADD18C,1.600000*%
%ADD19C,1.300000*%
%ADD20R,1.300000X1.300000*%
%ADD21C,1.700000*%
%ADD22R,1.700000X1.700000*%
%ADD23O,1.300000X2.100000*%
%ADD24R,1.300000X2.100000*%
%ADD25O,2.100000X3.600000*%
%ADD26O,4.100000X3.100000*%
%ADD27C,4.100000*%
%ADD28R,3.100000X3.100000*%
%ADD29O,1.700000X1.700000*%
%ADD30C,2.985000*%
%ADD31C,3.300000*%
%ADD32C,6.500000*%
%ADD33C,0.900000*%
%ADD34C,1.405000*%
%ADD35R,1.405000X1.405000*%
%ADD36R,1.100000X1.100000*%
%ADD37C,0.400000*%
%ADD38O,2.500000X2.500000*%
%ADD39R,2.500000X2.500000*%
%ADD40C,3.100000*%
%ADD41C,5.100000*%
%ADD42C,2.600000*%
%ADD43O,2.600000X4.300000*%
G04 APERTURE END LIST*
D10*
%TO.C,J4*%
X90611960Y-107952540D03*
X93151960Y-107952540D03*
X95691960Y-107952540D03*
X98231960Y-107952540D03*
X100771960Y-107952540D03*
D11*
X103311960Y-107952540D03*
%TD*%
%TO.C,C54*%
G36*
G01*
X164419198Y-144802540D02*
X165375722Y-144802540D01*
G75*
G02*
X165647460Y-145074278I0J-271738D01*
G01*
X165647460Y-145780802D01*
G75*
G02*
X165375722Y-146052540I-271738J0D01*
G01*
X164419198Y-146052540D01*
G75*
G02*
X164147460Y-145780802I0J271738D01*
G01*
X164147460Y-145074278D01*
G75*
G02*
X164419198Y-144802540I271738J0D01*
G01*
G37*
G36*
G01*
X164419198Y-142752540D02*
X165375722Y-142752540D01*
G75*
G02*
X165647460Y-143024278I0J-271738D01*
G01*
X165647460Y-143730802D01*
G75*
G02*
X165375722Y-144002540I-271738J0D01*
G01*
X164419198Y-144002540D01*
G75*
G02*
X164147460Y-143730802I0J271738D01*
G01*
X164147460Y-143024278D01*
G75*
G02*
X164419198Y-142752540I271738J0D01*
G01*
G37*
%TD*%
D12*
%TO.C,J3*%
X128278000Y-52672400D03*
X119778000Y-52672400D03*
D13*
X124028000Y-60222400D03*
D14*
X124028000Y-56222400D03*
%TD*%
D15*
%TO.C,SW1*%
X116154000Y-137312000D03*
D16*
X113654000Y-137312000D03*
X111154000Y-137312000D03*
D17*
X119254000Y-144812000D03*
X108054000Y-144812000D03*
%TD*%
D16*
%TO.C,SW2*%
X82372200Y-144320000D03*
X77872200Y-144320000D03*
X82372200Y-137820000D03*
X77872200Y-137820000D03*
%TD*%
D18*
%TO.C,Y1*%
X130378000Y-75898400D03*
X130378000Y-71018400D03*
%TD*%
D19*
%TO.C,C5*%
X101676000Y-64446400D03*
D20*
X101676000Y-66446400D03*
%TD*%
D19*
%TO.C,C6*%
X88976200Y-64700400D03*
D20*
X88976200Y-66700400D03*
%TD*%
D21*
%TO.C,C9*%
X110582460Y-79402940D03*
D22*
X108582460Y-79402940D03*
%TD*%
D21*
%TO.C,C17*%
X93444060Y-79003140D03*
D22*
X93444060Y-81003140D03*
%TD*%
D21*
%TO.C,C18*%
X110233000Y-72678500D03*
D22*
X110233000Y-74678500D03*
%TD*%
%TO.C,C55*%
G36*
G01*
X161719198Y-144902540D02*
X162675722Y-144902540D01*
G75*
G02*
X162947460Y-145174278I0J-271738D01*
G01*
X162947460Y-145880802D01*
G75*
G02*
X162675722Y-146152540I-271738J0D01*
G01*
X161719198Y-146152540D01*
G75*
G02*
X161447460Y-145880802I0J271738D01*
G01*
X161447460Y-145174278D01*
G75*
G02*
X161719198Y-144902540I271738J0D01*
G01*
G37*
G36*
G01*
X161719198Y-142852540D02*
X162675722Y-142852540D01*
G75*
G02*
X162947460Y-143124278I0J-271738D01*
G01*
X162947460Y-143830802D01*
G75*
G02*
X162675722Y-144102540I-271738J0D01*
G01*
X161719198Y-144102540D01*
G75*
G02*
X161447460Y-143830802I0J271738D01*
G01*
X161447460Y-143124278D01*
G75*
G02*
X161719198Y-142852540I271738J0D01*
G01*
G37*
%TD*%
%TO.C,C56*%
G36*
G01*
X137919198Y-144802540D02*
X138875722Y-144802540D01*
G75*
G02*
X139147460Y-145074278I0J-271738D01*
G01*
X139147460Y-145780802D01*
G75*
G02*
X138875722Y-146052540I-271738J0D01*
G01*
X137919198Y-146052540D01*
G75*
G02*
X137647460Y-145780802I0J271738D01*
G01*
X137647460Y-145074278D01*
G75*
G02*
X137919198Y-144802540I271738J0D01*
G01*
G37*
G36*
G01*
X137919198Y-142752540D02*
X138875722Y-142752540D01*
G75*
G02*
X139147460Y-143024278I0J-271738D01*
G01*
X139147460Y-143730802D01*
G75*
G02*
X138875722Y-144002540I-271738J0D01*
G01*
X137919198Y-144002540D01*
G75*
G02*
X137647460Y-143730802I0J271738D01*
G01*
X137647460Y-143024278D01*
G75*
G02*
X137919198Y-142752540I271738J0D01*
G01*
G37*
%TD*%
%TO.C,C57*%
G36*
G01*
X135719198Y-144802540D02*
X136675722Y-144802540D01*
G75*
G02*
X136947460Y-145074278I0J-271738D01*
G01*
X136947460Y-145780802D01*
G75*
G02*
X136675722Y-146052540I-271738J0D01*
G01*
X135719198Y-146052540D01*
G75*
G02*
X135447460Y-145780802I0J271738D01*
G01*
X135447460Y-145074278D01*
G75*
G02*
X135719198Y-144802540I271738J0D01*
G01*
G37*
G36*
G01*
X135719198Y-142752540D02*
X136675722Y-142752540D01*
G75*
G02*
X136947460Y-143024278I0J-271738D01*
G01*
X136947460Y-143730802D01*
G75*
G02*
X136675722Y-144002540I-271738J0D01*
G01*
X135719198Y-144002540D01*
G75*
G02*
X135447460Y-143730802I0J271738D01*
G01*
X135447460Y-143024278D01*
G75*
G02*
X135719198Y-142752540I271738J0D01*
G01*
G37*
%TD*%
D16*
%TO.C,C61*%
X86404200Y-96841856D03*
D15*
X82404200Y-103186144D03*
D16*
X84404200Y-97514000D03*
D15*
X84404200Y-102514000D03*
%TD*%
D16*
%TO.C,C62*%
X173589004Y-89302340D03*
D15*
X167244716Y-85302340D03*
D16*
X172916860Y-87302340D03*
D15*
X167916860Y-87302340D03*
%TD*%
D16*
%TO.C,C63*%
X109264000Y-97095856D03*
D15*
X105264000Y-103440144D03*
D16*
X107264000Y-97768000D03*
D15*
X107264000Y-102768000D03*
%TD*%
D16*
%TO.C,C64*%
X97834200Y-96841856D03*
D15*
X93834200Y-103186144D03*
D16*
X95834200Y-97514000D03*
D15*
X95834200Y-102514000D03*
%TD*%
D23*
%TO.C,D5*%
X101620200Y-146456000D03*
X101620200Y-138836000D03*
X99080200Y-146456000D03*
X99080200Y-138836000D03*
X96540200Y-146456000D03*
X96540200Y-138836000D03*
X94000200Y-146456000D03*
X94000200Y-138836000D03*
X91460200Y-146456000D03*
X91460200Y-138836000D03*
D24*
X88920200Y-146456000D03*
D23*
X88920200Y-138836000D03*
%TD*%
D21*
%TO.C,J1*%
X169923000Y-55518500D03*
D25*
X165423000Y-57518500D03*
X174423000Y-57518500D03*
D26*
X169923000Y-58518500D03*
D27*
X169923000Y-64518500D03*
%TD*%
D10*
%TO.C,J11*%
X109852000Y-133353000D03*
X112392000Y-133353000D03*
X114932000Y-133353000D03*
D11*
X117472000Y-133353000D03*
%TD*%
D10*
%TO.C,J12*%
X104772500Y-133353000D03*
X102232500Y-133353000D03*
X99692500Y-133353000D03*
X97152500Y-133353000D03*
X94612500Y-133353000D03*
X92072500Y-133353000D03*
X89532500Y-133353000D03*
X86992500Y-133353000D03*
X84452500Y-133353000D03*
X81912500Y-133353000D03*
D11*
X79372500Y-133353000D03*
%TD*%
D27*
%TO.C,L1*%
X166603460Y-130200000D03*
X172191460Y-140360000D03*
D28*
X167747460Y-139880000D03*
X171047460Y-130680000D03*
%TD*%
D27*
%TO.C,L2*%
X153503460Y-130200000D03*
X159091460Y-140360000D03*
D28*
X154647460Y-139880000D03*
X157947460Y-130680000D03*
%TD*%
D27*
%TO.C,L3*%
X140403460Y-130222540D03*
X145991460Y-140382540D03*
D28*
X141547460Y-139902540D03*
X144847460Y-130702540D03*
%TD*%
D27*
%TO.C,L4*%
X127330000Y-130200000D03*
X132918000Y-140360000D03*
D28*
X128474000Y-139880000D03*
X131774000Y-130680000D03*
%TD*%
D16*
%TO.C,U6*%
X115900000Y-60882500D03*
X110820000Y-60882500D03*
D21*
X115900000Y-63502500D03*
X113360000Y-63502500D03*
X110820000Y-63502500D03*
%TD*%
D16*
%TO.C,U7*%
X136982000Y-60882500D03*
X131902000Y-60882500D03*
D21*
X136982000Y-63502500D03*
X134442000Y-63502500D03*
X131902000Y-63502500D03*
%TD*%
D29*
%TO.C,U8*%
X102105000Y-119129000D03*
X79245000Y-111509000D03*
X99565000Y-119129000D03*
X81785000Y-111509000D03*
X97025000Y-119129000D03*
X84325000Y-111509000D03*
X94485000Y-119129000D03*
X86865000Y-111509000D03*
X91945000Y-119129000D03*
X89405000Y-111509000D03*
X89405000Y-119129000D03*
X91945000Y-111509000D03*
X86865000Y-119129000D03*
X94485000Y-111509000D03*
X84325000Y-119129000D03*
X97025000Y-111509000D03*
X81785000Y-119129000D03*
X99565000Y-111509000D03*
X79245000Y-119129000D03*
D22*
X102105000Y-111509000D03*
%TD*%
D30*
%TO.C,J7*%
X156678000Y-56920500D03*
X142178000Y-56920500D03*
X142178000Y-62880500D03*
X156678000Y-62880500D03*
%TD*%
D31*
%TO.C,H1*%
X79578200Y-70726300D03*
%TD*%
%TO.C,H2*%
X166392860Y-111686340D03*
%TD*%
%TO.C,H3*%
X122229880Y-125615700D03*
%TD*%
%TO.C,H4*%
X139748260Y-111660940D03*
%TD*%
%TO.C,H5*%
X79578200Y-148996000D03*
%TD*%
D32*
%TO.C,H6*%
X161971000Y-70726300D03*
D33*
X164371000Y-70726300D03*
X163668056Y-72423356D03*
X161971000Y-73126300D03*
X160273944Y-72423356D03*
X159571000Y-70726300D03*
X160273944Y-69029244D03*
X161971000Y-68326300D03*
X163668056Y-69029244D03*
%TD*%
D10*
%TO.C,J2*%
X78562200Y-90068400D03*
X78562200Y-87528400D03*
X78562200Y-84988400D03*
X78562200Y-82448400D03*
X78562200Y-79908400D03*
D11*
X78562200Y-77368400D03*
%TD*%
D10*
%TO.C,J9*%
X109852000Y-127003000D03*
X112392000Y-127003000D03*
X114932000Y-127003000D03*
D11*
X117472000Y-127003000D03*
%TD*%
D10*
%TO.C,J10*%
X79372000Y-127003000D03*
X81912000Y-127003000D03*
X84452000Y-127003000D03*
X86992000Y-127003000D03*
X89532000Y-127003000D03*
X92072000Y-127003000D03*
X94612000Y-127003000D03*
X97152000Y-127003000D03*
X99692000Y-127003000D03*
X102232000Y-127003000D03*
D11*
X104772000Y-127003000D03*
%TD*%
D34*
%TO.C,PS1*%
X158826000Y-86512400D03*
X158826000Y-83972400D03*
D35*
X158826000Y-81432400D03*
%TD*%
D36*
%TO.C,TP1*%
X152397000Y-70487500D03*
%TD*%
%TO.C,TP2*%
X152420000Y-73393300D03*
%TD*%
D37*
%TO.C,B1*%
X81404500Y-130178000D03*
X80642500Y-130178000D03*
X79880500Y-130178000D03*
%TD*%
%TO.C,B2*%
X109344000Y-130178000D03*
X108582000Y-130178000D03*
X107820000Y-130178000D03*
%TD*%
%TO.C,B3*%
X104264000Y-130178000D03*
X103502000Y-130178000D03*
X102740000Y-130178000D03*
%TD*%
%TO.C,B4*%
X111884000Y-130178000D03*
X111122000Y-130178000D03*
X110360000Y-130178000D03*
%TD*%
%TO.C,B5*%
X106804000Y-130178000D03*
X106042000Y-130178000D03*
X105280000Y-130178000D03*
%TD*%
%TO.C,B6*%
X101724500Y-130178000D03*
X100962500Y-130178000D03*
X100200500Y-130178000D03*
%TD*%
%TO.C,B7*%
X116964000Y-130178000D03*
X116202000Y-130178000D03*
X115440000Y-130178000D03*
%TD*%
%TO.C,B8*%
X114424000Y-130178000D03*
X113662000Y-130178000D03*
X112900000Y-130178000D03*
%TD*%
%TO.C,B9*%
X94104500Y-130178000D03*
X93342500Y-130178000D03*
X92580500Y-130178000D03*
%TD*%
%TO.C,B10*%
X83944500Y-130178000D03*
X83182500Y-130178000D03*
X82420500Y-130178000D03*
%TD*%
%TO.C,B11*%
X99184500Y-130178000D03*
X98422500Y-130178000D03*
X97660500Y-130178000D03*
%TD*%
%TO.C,B12*%
X89024500Y-130178000D03*
X88262500Y-130178000D03*
X87500500Y-130178000D03*
%TD*%
%TO.C,B13*%
X86484500Y-130178000D03*
X85722500Y-130178000D03*
X84960500Y-130178000D03*
%TD*%
%TO.C,B14*%
X96644500Y-130178000D03*
X95882500Y-130178000D03*
X95120500Y-130178000D03*
%TD*%
%TO.C,B15*%
X78864500Y-130178000D03*
X78102500Y-130178000D03*
X77340500Y-130178000D03*
%TD*%
%TO.C,B16*%
X91564500Y-130178000D03*
X90802500Y-130178000D03*
X90040500Y-130178000D03*
%TD*%
%TO.C,B17*%
X119504000Y-130178000D03*
X118742000Y-130178000D03*
X117980000Y-130178000D03*
%TD*%
D16*
%TO.C,C37*%
X173589004Y-76449940D03*
D15*
X167244716Y-72449940D03*
D16*
X172916860Y-74449940D03*
D15*
X167916860Y-74449940D03*
%TD*%
D38*
%TO.C,D6*%
X161541000Y-59438500D03*
D39*
X161541000Y-64518500D03*
%TD*%
D31*
%TO.C,H7*%
X126413260Y-111711740D03*
%TD*%
%TO.C,C41*%
G36*
G01*
X156219198Y-122002540D02*
X157175722Y-122002540D01*
G75*
G02*
X157447460Y-122274278I0J-271738D01*
G01*
X157447460Y-122980802D01*
G75*
G02*
X157175722Y-123252540I-271738J0D01*
G01*
X156219198Y-123252540D01*
G75*
G02*
X155947460Y-122980802I0J271738D01*
G01*
X155947460Y-122274278D01*
G75*
G02*
X156219198Y-122002540I271738J0D01*
G01*
G37*
G36*
G01*
X156219198Y-119952540D02*
X157175722Y-119952540D01*
G75*
G02*
X157447460Y-120224278I0J-271738D01*
G01*
X157447460Y-120930802D01*
G75*
G02*
X157175722Y-121202540I-271738J0D01*
G01*
X156219198Y-121202540D01*
G75*
G02*
X155947460Y-120930802I0J271738D01*
G01*
X155947460Y-120224278D01*
G75*
G02*
X156219198Y-119952540I271738J0D01*
G01*
G37*
%TD*%
%TO.C,C42*%
G36*
G01*
X150922462Y-121105980D02*
X149965938Y-121105980D01*
G75*
G02*
X149694200Y-120834242I0J271738D01*
G01*
X149694200Y-120127718D01*
G75*
G02*
X149965938Y-119855980I271738J0D01*
G01*
X150922462Y-119855980D01*
G75*
G02*
X151194200Y-120127718I0J-271738D01*
G01*
X151194200Y-120834242D01*
G75*
G02*
X150922462Y-121105980I-271738J0D01*
G01*
G37*
G36*
G01*
X150922462Y-123155980D02*
X149965938Y-123155980D01*
G75*
G02*
X149694200Y-122884242I0J271738D01*
G01*
X149694200Y-122177718D01*
G75*
G02*
X149965938Y-121905980I271738J0D01*
G01*
X150922462Y-121905980D01*
G75*
G02*
X151194200Y-122177718I0J-271738D01*
G01*
X151194200Y-122884242D01*
G75*
G02*
X150922462Y-123155980I-271738J0D01*
G01*
G37*
%TD*%
%TO.C,C43*%
G36*
G01*
X146619198Y-121902540D02*
X147575722Y-121902540D01*
G75*
G02*
X147847460Y-122174278I0J-271738D01*
G01*
X147847460Y-122880802D01*
G75*
G02*
X147575722Y-123152540I-271738J0D01*
G01*
X146619198Y-123152540D01*
G75*
G02*
X146347460Y-122880802I0J271738D01*
G01*
X146347460Y-122174278D01*
G75*
G02*
X146619198Y-121902540I271738J0D01*
G01*
G37*
G36*
G01*
X146619198Y-119852540D02*
X147575722Y-119852540D01*
G75*
G02*
X147847460Y-120124278I0J-271738D01*
G01*
X147847460Y-120830802D01*
G75*
G02*
X147575722Y-121102540I-271738J0D01*
G01*
X146619198Y-121102540D01*
G75*
G02*
X146347460Y-120830802I0J271738D01*
G01*
X146347460Y-120124278D01*
G75*
G02*
X146619198Y-119852540I271738J0D01*
G01*
G37*
%TD*%
%TO.C,C44*%
G36*
G01*
X143985722Y-121142000D02*
X143029198Y-121142000D01*
G75*
G02*
X142757460Y-120870262I0J271738D01*
G01*
X142757460Y-120163738D01*
G75*
G02*
X143029198Y-119892000I271738J0D01*
G01*
X143985722Y-119892000D01*
G75*
G02*
X144257460Y-120163738I0J-271738D01*
G01*
X144257460Y-120870262D01*
G75*
G02*
X143985722Y-121142000I-271738J0D01*
G01*
G37*
G36*
G01*
X143985722Y-123192000D02*
X143029198Y-123192000D01*
G75*
G02*
X142757460Y-122920262I0J271738D01*
G01*
X142757460Y-122213738D01*
G75*
G02*
X143029198Y-121942000I271738J0D01*
G01*
X143985722Y-121942000D01*
G75*
G02*
X144257460Y-122213738I0J-271738D01*
G01*
X144257460Y-122920262D01*
G75*
G02*
X143985722Y-123192000I-271738J0D01*
G01*
G37*
%TD*%
D16*
%TO.C,C65*%
X173512804Y-98510340D03*
D15*
X167168516Y-102510340D03*
D16*
X172840660Y-100510340D03*
D15*
X167840660Y-100510340D03*
%TD*%
D16*
%TO.C,C66*%
X115397460Y-102630396D03*
D15*
X119397460Y-108974684D03*
D16*
X117397460Y-103302540D03*
D15*
X117397460Y-108302540D03*
%TD*%
D10*
%TO.C,J8*%
X130985260Y-85346540D03*
D11*
X128445260Y-85346540D03*
%TD*%
D21*
%TO.C,C50*%
X169622460Y-147957540D03*
X174622460Y-147957540D03*
%TD*%
%TO.C,C51*%
X155873460Y-147957540D03*
X150873460Y-147957540D03*
%TD*%
%TO.C,C52*%
X142698460Y-147957540D03*
X147698460Y-147957540D03*
%TD*%
%TO.C,C53*%
X128822000Y-147958000D03*
X123822000Y-147958000D03*
%TD*%
D40*
%TO.C,J5*%
X138300460Y-148592540D03*
D28*
X133220460Y-148592540D03*
%TD*%
D40*
%TO.C,J6*%
X165351460Y-148592540D03*
D28*
X160271460Y-148592540D03*
%TD*%
D16*
%TO.C,C67*%
X115897460Y-113930396D03*
D15*
X119897460Y-120274684D03*
D16*
X117897460Y-114602540D03*
D15*
X117897460Y-119602540D03*
%TD*%
D11*
%TO.C,J13*%
X85341460Y-108143040D03*
D10*
X82801460Y-108143040D03*
X80261460Y-108143040D03*
X77721460Y-108143040D03*
%TD*%
D41*
%TO.C,P1*%
X98318080Y-57636040D03*
D42*
X94318080Y-62386040D03*
D41*
X84318080Y-57636040D03*
D42*
X80318080Y-62386040D03*
D43*
X102918080Y-57636040D03*
X79718080Y-57636040D03*
%TD*%
M02*
