%TF.GenerationSoftware,KiCad,Pcbnew,(5.1.6-0-10_14)*%
%TF.CreationDate,2020-07-11T00:20:46+09:00*%
%TF.ProjectId,TAS6422AMP,54415336-3432-4324-914d-502e6b696361,rev?*%
%TF.SameCoordinates,Original*%
%TF.FileFunction,Paste,Bot*%
%TF.FilePolarity,Positive*%
%FSLAX46Y46*%
G04 Gerber Fmt 4.6, Leading zero omitted, Abs format (unit mm)*
G04 Created by KiCad (PCBNEW (5.1.6-0-10_14)) date 2020-07-11 00:20:46*
%MOMM*%
%LPD*%
G01*
G04 APERTURE LIST*
G04 APERTURE END LIST*
%TO.C,C54*%
G36*
G01*
X164447459Y-144852540D02*
X165347461Y-144852540D01*
G75*
G02*
X165597460Y-145102539I0J-249999D01*
G01*
X165597460Y-145752541D01*
G75*
G02*
X165347461Y-146002540I-249999J0D01*
G01*
X164447459Y-146002540D01*
G75*
G02*
X164197460Y-145752541I0J249999D01*
G01*
X164197460Y-145102539D01*
G75*
G02*
X164447459Y-144852540I249999J0D01*
G01*
G37*
G36*
G01*
X164447459Y-142802540D02*
X165347461Y-142802540D01*
G75*
G02*
X165597460Y-143052539I0J-249999D01*
G01*
X165597460Y-143702541D01*
G75*
G02*
X165347461Y-143952540I-249999J0D01*
G01*
X164447459Y-143952540D01*
G75*
G02*
X164197460Y-143702541I0J249999D01*
G01*
X164197460Y-143052539D01*
G75*
G02*
X164447459Y-142802540I249999J0D01*
G01*
G37*
%TD*%
%TO.C,C55*%
G36*
G01*
X161747459Y-144952540D02*
X162647461Y-144952540D01*
G75*
G02*
X162897460Y-145202539I0J-249999D01*
G01*
X162897460Y-145852541D01*
G75*
G02*
X162647461Y-146102540I-249999J0D01*
G01*
X161747459Y-146102540D01*
G75*
G02*
X161497460Y-145852541I0J249999D01*
G01*
X161497460Y-145202539D01*
G75*
G02*
X161747459Y-144952540I249999J0D01*
G01*
G37*
G36*
G01*
X161747459Y-142902540D02*
X162647461Y-142902540D01*
G75*
G02*
X162897460Y-143152539I0J-249999D01*
G01*
X162897460Y-143802541D01*
G75*
G02*
X162647461Y-144052540I-249999J0D01*
G01*
X161747459Y-144052540D01*
G75*
G02*
X161497460Y-143802541I0J249999D01*
G01*
X161497460Y-143152539D01*
G75*
G02*
X161747459Y-142902540I249999J0D01*
G01*
G37*
%TD*%
%TO.C,C56*%
G36*
G01*
X137947459Y-144852540D02*
X138847461Y-144852540D01*
G75*
G02*
X139097460Y-145102539I0J-249999D01*
G01*
X139097460Y-145752541D01*
G75*
G02*
X138847461Y-146002540I-249999J0D01*
G01*
X137947459Y-146002540D01*
G75*
G02*
X137697460Y-145752541I0J249999D01*
G01*
X137697460Y-145102539D01*
G75*
G02*
X137947459Y-144852540I249999J0D01*
G01*
G37*
G36*
G01*
X137947459Y-142802540D02*
X138847461Y-142802540D01*
G75*
G02*
X139097460Y-143052539I0J-249999D01*
G01*
X139097460Y-143702541D01*
G75*
G02*
X138847461Y-143952540I-249999J0D01*
G01*
X137947459Y-143952540D01*
G75*
G02*
X137697460Y-143702541I0J249999D01*
G01*
X137697460Y-143052539D01*
G75*
G02*
X137947459Y-142802540I249999J0D01*
G01*
G37*
%TD*%
%TO.C,C57*%
G36*
G01*
X135747459Y-144852540D02*
X136647461Y-144852540D01*
G75*
G02*
X136897460Y-145102539I0J-249999D01*
G01*
X136897460Y-145752541D01*
G75*
G02*
X136647461Y-146002540I-249999J0D01*
G01*
X135747459Y-146002540D01*
G75*
G02*
X135497460Y-145752541I0J249999D01*
G01*
X135497460Y-145102539D01*
G75*
G02*
X135747459Y-144852540I249999J0D01*
G01*
G37*
G36*
G01*
X135747459Y-142802540D02*
X136647461Y-142802540D01*
G75*
G02*
X136897460Y-143052539I0J-249999D01*
G01*
X136897460Y-143702541D01*
G75*
G02*
X136647461Y-143952540I-249999J0D01*
G01*
X135747459Y-143952540D01*
G75*
G02*
X135497460Y-143702541I0J249999D01*
G01*
X135497460Y-143052539D01*
G75*
G02*
X135747459Y-142802540I249999J0D01*
G01*
G37*
%TD*%
%TO.C,C41*%
G36*
G01*
X156247459Y-122052540D02*
X157147461Y-122052540D01*
G75*
G02*
X157397460Y-122302539I0J-249999D01*
G01*
X157397460Y-122952541D01*
G75*
G02*
X157147461Y-123202540I-249999J0D01*
G01*
X156247459Y-123202540D01*
G75*
G02*
X155997460Y-122952541I0J249999D01*
G01*
X155997460Y-122302539D01*
G75*
G02*
X156247459Y-122052540I249999J0D01*
G01*
G37*
G36*
G01*
X156247459Y-120002540D02*
X157147461Y-120002540D01*
G75*
G02*
X157397460Y-120252539I0J-249999D01*
G01*
X157397460Y-120902541D01*
G75*
G02*
X157147461Y-121152540I-249999J0D01*
G01*
X156247459Y-121152540D01*
G75*
G02*
X155997460Y-120902541I0J249999D01*
G01*
X155997460Y-120252539D01*
G75*
G02*
X156247459Y-120002540I249999J0D01*
G01*
G37*
%TD*%
%TO.C,C42*%
G36*
G01*
X150894201Y-121055980D02*
X149994199Y-121055980D01*
G75*
G02*
X149744200Y-120805981I0J249999D01*
G01*
X149744200Y-120155979D01*
G75*
G02*
X149994199Y-119905980I249999J0D01*
G01*
X150894201Y-119905980D01*
G75*
G02*
X151144200Y-120155979I0J-249999D01*
G01*
X151144200Y-120805981D01*
G75*
G02*
X150894201Y-121055980I-249999J0D01*
G01*
G37*
G36*
G01*
X150894201Y-123105980D02*
X149994199Y-123105980D01*
G75*
G02*
X149744200Y-122855981I0J249999D01*
G01*
X149744200Y-122205979D01*
G75*
G02*
X149994199Y-121955980I249999J0D01*
G01*
X150894201Y-121955980D01*
G75*
G02*
X151144200Y-122205979I0J-249999D01*
G01*
X151144200Y-122855981D01*
G75*
G02*
X150894201Y-123105980I-249999J0D01*
G01*
G37*
%TD*%
%TO.C,C43*%
G36*
G01*
X146647459Y-121952540D02*
X147547461Y-121952540D01*
G75*
G02*
X147797460Y-122202539I0J-249999D01*
G01*
X147797460Y-122852541D01*
G75*
G02*
X147547461Y-123102540I-249999J0D01*
G01*
X146647459Y-123102540D01*
G75*
G02*
X146397460Y-122852541I0J249999D01*
G01*
X146397460Y-122202539D01*
G75*
G02*
X146647459Y-121952540I249999J0D01*
G01*
G37*
G36*
G01*
X146647459Y-119902540D02*
X147547461Y-119902540D01*
G75*
G02*
X147797460Y-120152539I0J-249999D01*
G01*
X147797460Y-120802541D01*
G75*
G02*
X147547461Y-121052540I-249999J0D01*
G01*
X146647459Y-121052540D01*
G75*
G02*
X146397460Y-120802541I0J249999D01*
G01*
X146397460Y-120152539D01*
G75*
G02*
X146647459Y-119902540I249999J0D01*
G01*
G37*
%TD*%
%TO.C,C44*%
G36*
G01*
X143957461Y-121092000D02*
X143057459Y-121092000D01*
G75*
G02*
X142807460Y-120842001I0J249999D01*
G01*
X142807460Y-120191999D01*
G75*
G02*
X143057459Y-119942000I249999J0D01*
G01*
X143957461Y-119942000D01*
G75*
G02*
X144207460Y-120191999I0J-249999D01*
G01*
X144207460Y-120842001D01*
G75*
G02*
X143957461Y-121092000I-249999J0D01*
G01*
G37*
G36*
G01*
X143957461Y-123142000D02*
X143057459Y-123142000D01*
G75*
G02*
X142807460Y-122892001I0J249999D01*
G01*
X142807460Y-122241999D01*
G75*
G02*
X143057459Y-121992000I249999J0D01*
G01*
X143957461Y-121992000D01*
G75*
G02*
X144207460Y-122241999I0J-249999D01*
G01*
X144207460Y-122892001D01*
G75*
G02*
X143957461Y-123142000I-249999J0D01*
G01*
G37*
%TD*%
M02*
