%TF.GenerationSoftware,KiCad,Pcbnew,(5.1.6-0-10_14)*%
%TF.CreationDate,2020-07-11T00:20:46+09:00*%
%TF.ProjectId,TAS6422AMP,54415336-3432-4324-914d-502e6b696361,rev?*%
%TF.SameCoordinates,Original*%
%TF.FileFunction,Paste,Top*%
%TF.FilePolarity,Positive*%
%FSLAX46Y46*%
G04 Gerber Fmt 4.6, Leading zero omitted, Abs format (unit mm)*
G04 Created by KiCad (PCBNEW (5.1.6-0-10_14)) date 2020-07-11 00:20:46*
%MOMM*%
%LPD*%
G01*
G04 APERTURE LIST*
%ADD10R,0.435000X1.900000*%
%ADD11R,10.000000X4.400000*%
%ADD12R,2.200000X3.800000*%
%ADD13R,2.200000X1.500000*%
%ADD14R,3.800000X2.200000*%
%ADD15R,1.500000X2.200000*%
%ADD16R,0.300000X2.600000*%
%ADD17R,1.100000X1.100000*%
%ADD18R,1.300000X0.600000*%
%ADD19R,0.300000X1.475000*%
%ADD20R,1.475000X0.300000*%
%ADD21R,0.800000X0.800000*%
G04 APERTURE END LIST*
%TO.C,C20*%
G36*
G01*
X114180000Y-76410399D02*
X114180000Y-77310401D01*
G75*
G02*
X113930001Y-77560400I-249999J0D01*
G01*
X113279999Y-77560400D01*
G75*
G02*
X113030000Y-77310401I0J249999D01*
G01*
X113030000Y-76410399D01*
G75*
G02*
X113279999Y-76160400I249999J0D01*
G01*
X113930001Y-76160400D01*
G75*
G02*
X114180000Y-76410399I0J-249999D01*
G01*
G37*
G36*
G01*
X116230000Y-76410399D02*
X116230000Y-77310401D01*
G75*
G02*
X115980001Y-77560400I-249999J0D01*
G01*
X115329999Y-77560400D01*
G75*
G02*
X115080000Y-77310401I0J249999D01*
G01*
X115080000Y-76410399D01*
G75*
G02*
X115329999Y-76160400I249999J0D01*
G01*
X115980001Y-76160400D01*
G75*
G02*
X116230000Y-76410399I0J-249999D01*
G01*
G37*
%TD*%
%TO.C,C21*%
G36*
G01*
X121605001Y-71942500D02*
X120704999Y-71942500D01*
G75*
G02*
X120455000Y-71692501I0J249999D01*
G01*
X120455000Y-71042499D01*
G75*
G02*
X120704999Y-70792500I249999J0D01*
G01*
X121605001Y-70792500D01*
G75*
G02*
X121855000Y-71042499I0J-249999D01*
G01*
X121855000Y-71692501D01*
G75*
G02*
X121605001Y-71942500I-249999J0D01*
G01*
G37*
G36*
G01*
X121605001Y-73992500D02*
X120704999Y-73992500D01*
G75*
G02*
X120455000Y-73742501I0J249999D01*
G01*
X120455000Y-73092499D01*
G75*
G02*
X120704999Y-72842500I249999J0D01*
G01*
X121605001Y-72842500D01*
G75*
G02*
X121855000Y-73092499I0J-249999D01*
G01*
X121855000Y-73742501D01*
G75*
G02*
X121605001Y-73992500I-249999J0D01*
G01*
G37*
%TD*%
%TO.C,C22*%
G36*
G01*
X118243999Y-77310400D02*
X119144001Y-77310400D01*
G75*
G02*
X119394000Y-77560399I0J-249999D01*
G01*
X119394000Y-78210401D01*
G75*
G02*
X119144001Y-78460400I-249999J0D01*
G01*
X118243999Y-78460400D01*
G75*
G02*
X117994000Y-78210401I0J249999D01*
G01*
X117994000Y-77560399D01*
G75*
G02*
X118243999Y-77310400I249999J0D01*
G01*
G37*
G36*
G01*
X118243999Y-75260400D02*
X119144001Y-75260400D01*
G75*
G02*
X119394000Y-75510399I0J-249999D01*
G01*
X119394000Y-76160401D01*
G75*
G02*
X119144001Y-76410400I-249999J0D01*
G01*
X118243999Y-76410400D01*
G75*
G02*
X117994000Y-76160401I0J249999D01*
G01*
X117994000Y-75510399D01*
G75*
G02*
X118243999Y-75260400I249999J0D01*
G01*
G37*
%TD*%
%TO.C,C23*%
G36*
G01*
X121684001Y-76410400D02*
X120783999Y-76410400D01*
G75*
G02*
X120534000Y-76160401I0J249999D01*
G01*
X120534000Y-75510399D01*
G75*
G02*
X120783999Y-75260400I249999J0D01*
G01*
X121684001Y-75260400D01*
G75*
G02*
X121934000Y-75510399I0J-249999D01*
G01*
X121934000Y-76160401D01*
G75*
G02*
X121684001Y-76410400I-249999J0D01*
G01*
G37*
G36*
G01*
X121684001Y-78460400D02*
X120783999Y-78460400D01*
G75*
G02*
X120534000Y-78210401I0J249999D01*
G01*
X120534000Y-77560399D01*
G75*
G02*
X120783999Y-77310400I249999J0D01*
G01*
X121684001Y-77310400D01*
G75*
G02*
X121934000Y-77560399I0J-249999D01*
G01*
X121934000Y-78210401D01*
G75*
G02*
X121684001Y-78460400I-249999J0D01*
G01*
G37*
%TD*%
%TO.C,C24*%
G36*
G01*
X125864000Y-97492399D02*
X125864000Y-98392401D01*
G75*
G02*
X125614001Y-98642400I-249999J0D01*
G01*
X124963999Y-98642400D01*
G75*
G02*
X124714000Y-98392401I0J249999D01*
G01*
X124714000Y-97492399D01*
G75*
G02*
X124963999Y-97242400I249999J0D01*
G01*
X125614001Y-97242400D01*
G75*
G02*
X125864000Y-97492399I0J-249999D01*
G01*
G37*
G36*
G01*
X127914000Y-97492399D02*
X127914000Y-98392401D01*
G75*
G02*
X127664001Y-98642400I-249999J0D01*
G01*
X127013999Y-98642400D01*
G75*
G02*
X126764000Y-98392401I0J249999D01*
G01*
X126764000Y-97492399D01*
G75*
G02*
X127013999Y-97242400I249999J0D01*
G01*
X127664001Y-97242400D01*
G75*
G02*
X127914000Y-97492399I0J-249999D01*
G01*
G37*
%TD*%
%TO.C,C25*%
G36*
G01*
X126764000Y-95852401D02*
X126764000Y-94952399D01*
G75*
G02*
X127013999Y-94702400I249999J0D01*
G01*
X127664001Y-94702400D01*
G75*
G02*
X127914000Y-94952399I0J-249999D01*
G01*
X127914000Y-95852401D01*
G75*
G02*
X127664001Y-96102400I-249999J0D01*
G01*
X127013999Y-96102400D01*
G75*
G02*
X126764000Y-95852401I0J249999D01*
G01*
G37*
G36*
G01*
X124714000Y-95852401D02*
X124714000Y-94952399D01*
G75*
G02*
X124963999Y-94702400I249999J0D01*
G01*
X125614001Y-94702400D01*
G75*
G02*
X125864000Y-94952399I0J-249999D01*
G01*
X125864000Y-95852401D01*
G75*
G02*
X125614001Y-96102400I-249999J0D01*
G01*
X124963999Y-96102400D01*
G75*
G02*
X124714000Y-95852401I0J249999D01*
G01*
G37*
%TD*%
%TO.C,C26*%
G36*
G01*
X135908001Y-71584400D02*
X135007999Y-71584400D01*
G75*
G02*
X134758000Y-71334401I0J249999D01*
G01*
X134758000Y-70684399D01*
G75*
G02*
X135007999Y-70434400I249999J0D01*
G01*
X135908001Y-70434400D01*
G75*
G02*
X136158000Y-70684399I0J-249999D01*
G01*
X136158000Y-71334401D01*
G75*
G02*
X135908001Y-71584400I-249999J0D01*
G01*
G37*
G36*
G01*
X135908001Y-73634400D02*
X135007999Y-73634400D01*
G75*
G02*
X134758000Y-73384401I0J249999D01*
G01*
X134758000Y-72734399D01*
G75*
G02*
X135007999Y-72484400I249999J0D01*
G01*
X135908001Y-72484400D01*
G75*
G02*
X136158000Y-72734399I0J-249999D01*
G01*
X136158000Y-73384401D01*
G75*
G02*
X135908001Y-73634400I-249999J0D01*
G01*
G37*
%TD*%
%TO.C,C27*%
G36*
G01*
X135007999Y-76802400D02*
X135908001Y-76802400D01*
G75*
G02*
X136158000Y-77052399I0J-249999D01*
G01*
X136158000Y-77702401D01*
G75*
G02*
X135908001Y-77952400I-249999J0D01*
G01*
X135007999Y-77952400D01*
G75*
G02*
X134758000Y-77702401I0J249999D01*
G01*
X134758000Y-77052399D01*
G75*
G02*
X135007999Y-76802400I249999J0D01*
G01*
G37*
G36*
G01*
X135007999Y-74752400D02*
X135908001Y-74752400D01*
G75*
G02*
X136158000Y-75002399I0J-249999D01*
G01*
X136158000Y-75652401D01*
G75*
G02*
X135908001Y-75902400I-249999J0D01*
G01*
X135007999Y-75902400D01*
G75*
G02*
X134758000Y-75652401I0J249999D01*
G01*
X134758000Y-75002399D01*
G75*
G02*
X135007999Y-74752400I249999J0D01*
G01*
G37*
%TD*%
%TO.C,C28*%
G36*
G01*
X132467999Y-82390400D02*
X133368001Y-82390400D01*
G75*
G02*
X133618000Y-82640399I0J-249999D01*
G01*
X133618000Y-83290401D01*
G75*
G02*
X133368001Y-83540400I-249999J0D01*
G01*
X132467999Y-83540400D01*
G75*
G02*
X132218000Y-83290401I0J249999D01*
G01*
X132218000Y-82640399D01*
G75*
G02*
X132467999Y-82390400I249999J0D01*
G01*
G37*
G36*
G01*
X132467999Y-80340400D02*
X133368001Y-80340400D01*
G75*
G02*
X133618000Y-80590399I0J-249999D01*
G01*
X133618000Y-81240401D01*
G75*
G02*
X133368001Y-81490400I-249999J0D01*
G01*
X132467999Y-81490400D01*
G75*
G02*
X132218000Y-81240401I0J249999D01*
G01*
X132218000Y-80590399D01*
G75*
G02*
X132467999Y-80340400I249999J0D01*
G01*
G37*
%TD*%
%TO.C,C29*%
G36*
G01*
X135007999Y-82390400D02*
X135908001Y-82390400D01*
G75*
G02*
X136158000Y-82640399I0J-249999D01*
G01*
X136158000Y-83290401D01*
G75*
G02*
X135908001Y-83540400I-249999J0D01*
G01*
X135007999Y-83540400D01*
G75*
G02*
X134758000Y-83290401I0J249999D01*
G01*
X134758000Y-82640399D01*
G75*
G02*
X135007999Y-82390400I249999J0D01*
G01*
G37*
G36*
G01*
X135007999Y-80340400D02*
X135908001Y-80340400D01*
G75*
G02*
X136158000Y-80590399I0J-249999D01*
G01*
X136158000Y-81240401D01*
G75*
G02*
X135908001Y-81490400I-249999J0D01*
G01*
X135007999Y-81490400D01*
G75*
G02*
X134758000Y-81240401I0J249999D01*
G01*
X134758000Y-80590399D01*
G75*
G02*
X135007999Y-80340400I249999J0D01*
G01*
G37*
%TD*%
%TO.C,C30*%
G36*
G01*
X127634999Y-82436100D02*
X128535001Y-82436100D01*
G75*
G02*
X128785000Y-82686099I0J-249999D01*
G01*
X128785000Y-83336101D01*
G75*
G02*
X128535001Y-83586100I-249999J0D01*
G01*
X127634999Y-83586100D01*
G75*
G02*
X127385000Y-83336101I0J249999D01*
G01*
X127385000Y-82686099D01*
G75*
G02*
X127634999Y-82436100I249999J0D01*
G01*
G37*
G36*
G01*
X127634999Y-80386100D02*
X128535001Y-80386100D01*
G75*
G02*
X128785000Y-80636099I0J-249999D01*
G01*
X128785000Y-81286101D01*
G75*
G02*
X128535001Y-81536100I-249999J0D01*
G01*
X127634999Y-81536100D01*
G75*
G02*
X127385000Y-81286101I0J249999D01*
G01*
X127385000Y-80636099D01*
G75*
G02*
X127634999Y-80386100I249999J0D01*
G01*
G37*
%TD*%
%TO.C,C31*%
G36*
G01*
X159153000Y-97052999D02*
X159153000Y-97953001D01*
G75*
G02*
X158903001Y-98203000I-249999J0D01*
G01*
X158252999Y-98203000D01*
G75*
G02*
X158003000Y-97953001I0J249999D01*
G01*
X158003000Y-97052999D01*
G75*
G02*
X158252999Y-96803000I249999J0D01*
G01*
X158903001Y-96803000D01*
G75*
G02*
X159153000Y-97052999I0J-249999D01*
G01*
G37*
G36*
G01*
X161203000Y-97052999D02*
X161203000Y-97953001D01*
G75*
G02*
X160953001Y-98203000I-249999J0D01*
G01*
X160302999Y-98203000D01*
G75*
G02*
X160053000Y-97953001I0J249999D01*
G01*
X160053000Y-97052999D01*
G75*
G02*
X160302999Y-96803000I249999J0D01*
G01*
X160953001Y-96803000D01*
G75*
G02*
X161203000Y-97052999I0J-249999D01*
G01*
G37*
%TD*%
%TO.C,C32*%
G36*
G01*
X155190999Y-99190000D02*
X156091001Y-99190000D01*
G75*
G02*
X156341000Y-99439999I0J-249999D01*
G01*
X156341000Y-100090001D01*
G75*
G02*
X156091001Y-100340000I-249999J0D01*
G01*
X155190999Y-100340000D01*
G75*
G02*
X154941000Y-100090001I0J249999D01*
G01*
X154941000Y-99439999D01*
G75*
G02*
X155190999Y-99190000I249999J0D01*
G01*
G37*
G36*
G01*
X155190999Y-97140000D02*
X156091001Y-97140000D01*
G75*
G02*
X156341000Y-97389999I0J-249999D01*
G01*
X156341000Y-98040001D01*
G75*
G02*
X156091001Y-98290000I-249999J0D01*
G01*
X155190999Y-98290000D01*
G75*
G02*
X154941000Y-98040001I0J249999D01*
G01*
X154941000Y-97389999D01*
G75*
G02*
X155190999Y-97140000I249999J0D01*
G01*
G37*
%TD*%
%TO.C,C33*%
G36*
G01*
X161880001Y-100396000D02*
X160979999Y-100396000D01*
G75*
G02*
X160730000Y-100146001I0J249999D01*
G01*
X160730000Y-99495999D01*
G75*
G02*
X160979999Y-99246000I249999J0D01*
G01*
X161880001Y-99246000D01*
G75*
G02*
X162130000Y-99495999I0J-249999D01*
G01*
X162130000Y-100146001D01*
G75*
G02*
X161880001Y-100396000I-249999J0D01*
G01*
G37*
G36*
G01*
X161880001Y-102446000D02*
X160979999Y-102446000D01*
G75*
G02*
X160730000Y-102196001I0J249999D01*
G01*
X160730000Y-101545999D01*
G75*
G02*
X160979999Y-101296000I249999J0D01*
G01*
X161880001Y-101296000D01*
G75*
G02*
X162130000Y-101545999I0J-249999D01*
G01*
X162130000Y-102196001D01*
G75*
G02*
X161880001Y-102446000I-249999J0D01*
G01*
G37*
%TD*%
%TO.C,C34*%
G36*
G01*
X157649999Y-101349000D02*
X158550001Y-101349000D01*
G75*
G02*
X158800000Y-101598999I0J-249999D01*
G01*
X158800000Y-102249001D01*
G75*
G02*
X158550001Y-102499000I-249999J0D01*
G01*
X157649999Y-102499000D01*
G75*
G02*
X157400000Y-102249001I0J249999D01*
G01*
X157400000Y-101598999D01*
G75*
G02*
X157649999Y-101349000I249999J0D01*
G01*
G37*
G36*
G01*
X157649999Y-99299000D02*
X158550001Y-99299000D01*
G75*
G02*
X158800000Y-99548999I0J-249999D01*
G01*
X158800000Y-100199001D01*
G75*
G02*
X158550001Y-100449000I-249999J0D01*
G01*
X157649999Y-100449000D01*
G75*
G02*
X157400000Y-100199001I0J249999D01*
G01*
X157400000Y-99548999D01*
G75*
G02*
X157649999Y-99299000I249999J0D01*
G01*
G37*
%TD*%
%TO.C,C35*%
G36*
G01*
X152833999Y-99151900D02*
X153734001Y-99151900D01*
G75*
G02*
X153984000Y-99401899I0J-249999D01*
G01*
X153984000Y-100051901D01*
G75*
G02*
X153734001Y-100301900I-249999J0D01*
G01*
X152833999Y-100301900D01*
G75*
G02*
X152584000Y-100051901I0J249999D01*
G01*
X152584000Y-99401899D01*
G75*
G02*
X152833999Y-99151900I249999J0D01*
G01*
G37*
G36*
G01*
X152833999Y-97101900D02*
X153734001Y-97101900D01*
G75*
G02*
X153984000Y-97351899I0J-249999D01*
G01*
X153984000Y-98001901D01*
G75*
G02*
X153734001Y-98251900I-249999J0D01*
G01*
X152833999Y-98251900D01*
G75*
G02*
X152584000Y-98001901I0J249999D01*
G01*
X152584000Y-97351899D01*
G75*
G02*
X152833999Y-97101900I249999J0D01*
G01*
G37*
%TD*%
%TO.C,C39*%
G36*
G01*
X114688000Y-67520399D02*
X114688000Y-68420401D01*
G75*
G02*
X114438001Y-68670400I-249999J0D01*
G01*
X113787999Y-68670400D01*
G75*
G02*
X113538000Y-68420401I0J249999D01*
G01*
X113538000Y-67520399D01*
G75*
G02*
X113787999Y-67270400I249999J0D01*
G01*
X114438001Y-67270400D01*
G75*
G02*
X114688000Y-67520399I0J-249999D01*
G01*
G37*
G36*
G01*
X116738000Y-67520399D02*
X116738000Y-68420401D01*
G75*
G02*
X116488001Y-68670400I-249999J0D01*
G01*
X115837999Y-68670400D01*
G75*
G02*
X115588000Y-68420401I0J249999D01*
G01*
X115588000Y-67520399D01*
G75*
G02*
X115837999Y-67270400I249999J0D01*
G01*
X116488001Y-67270400D01*
G75*
G02*
X116738000Y-67520399I0J-249999D01*
G01*
G37*
%TD*%
%TO.C,C40*%
G36*
G01*
X127780001Y-64481400D02*
X126879999Y-64481400D01*
G75*
G02*
X126630000Y-64231401I0J249999D01*
G01*
X126630000Y-63581399D01*
G75*
G02*
X126879999Y-63331400I249999J0D01*
G01*
X127780001Y-63331400D01*
G75*
G02*
X128030000Y-63581399I0J-249999D01*
G01*
X128030000Y-64231401D01*
G75*
G02*
X127780001Y-64481400I-249999J0D01*
G01*
G37*
G36*
G01*
X127780001Y-66531400D02*
X126879999Y-66531400D01*
G75*
G02*
X126630000Y-66281401I0J249999D01*
G01*
X126630000Y-65631399D01*
G75*
G02*
X126879999Y-65381400I249999J0D01*
G01*
X127780001Y-65381400D01*
G75*
G02*
X128030000Y-65631399I0J-249999D01*
G01*
X128030000Y-66281401D01*
G75*
G02*
X127780001Y-66531400I-249999J0D01*
G01*
G37*
%TD*%
%TO.C,C45*%
G36*
G01*
X141278999Y-117801000D02*
X142179001Y-117801000D01*
G75*
G02*
X142429000Y-118050999I0J-249999D01*
G01*
X142429000Y-118701001D01*
G75*
G02*
X142179001Y-118951000I-249999J0D01*
G01*
X141278999Y-118951000D01*
G75*
G02*
X141029000Y-118701001I0J249999D01*
G01*
X141029000Y-118050999D01*
G75*
G02*
X141278999Y-117801000I249999J0D01*
G01*
G37*
G36*
G01*
X141278999Y-115751000D02*
X142179001Y-115751000D01*
G75*
G02*
X142429000Y-116000999I0J-249999D01*
G01*
X142429000Y-116651001D01*
G75*
G02*
X142179001Y-116901000I-249999J0D01*
G01*
X141278999Y-116901000D01*
G75*
G02*
X141029000Y-116651001I0J249999D01*
G01*
X141029000Y-116000999D01*
G75*
G02*
X141278999Y-115751000I249999J0D01*
G01*
G37*
%TD*%
%TO.C,C46*%
G36*
G01*
X137664999Y-117801000D02*
X138565001Y-117801000D01*
G75*
G02*
X138815000Y-118050999I0J-249999D01*
G01*
X138815000Y-118701001D01*
G75*
G02*
X138565001Y-118951000I-249999J0D01*
G01*
X137664999Y-118951000D01*
G75*
G02*
X137415000Y-118701001I0J249999D01*
G01*
X137415000Y-118050999D01*
G75*
G02*
X137664999Y-117801000I249999J0D01*
G01*
G37*
G36*
G01*
X137664999Y-115751000D02*
X138565001Y-115751000D01*
G75*
G02*
X138815000Y-116000999I0J-249999D01*
G01*
X138815000Y-116651001D01*
G75*
G02*
X138565001Y-116901000I-249999J0D01*
G01*
X137664999Y-116901000D01*
G75*
G02*
X137415000Y-116651001I0J249999D01*
G01*
X137415000Y-116000999D01*
G75*
G02*
X137664999Y-115751000I249999J0D01*
G01*
G37*
%TD*%
%TO.C,C47*%
G36*
G01*
X162733000Y-119977001D02*
X162733000Y-119076999D01*
G75*
G02*
X162982999Y-118827000I249999J0D01*
G01*
X163633001Y-118827000D01*
G75*
G02*
X163883000Y-119076999I0J-249999D01*
G01*
X163883000Y-119977001D01*
G75*
G02*
X163633001Y-120227000I-249999J0D01*
G01*
X162982999Y-120227000D01*
G75*
G02*
X162733000Y-119977001I0J249999D01*
G01*
G37*
G36*
G01*
X160683000Y-119977001D02*
X160683000Y-119076999D01*
G75*
G02*
X160932999Y-118827000I249999J0D01*
G01*
X161583001Y-118827000D01*
G75*
G02*
X161833000Y-119076999I0J-249999D01*
G01*
X161833000Y-119977001D01*
G75*
G02*
X161583001Y-120227000I-249999J0D01*
G01*
X160932999Y-120227000D01*
G75*
G02*
X160683000Y-119977001I0J249999D01*
G01*
G37*
%TD*%
%TO.C,C48*%
G36*
G01*
X166310999Y-119144000D02*
X167211001Y-119144000D01*
G75*
G02*
X167461000Y-119393999I0J-249999D01*
G01*
X167461000Y-120044001D01*
G75*
G02*
X167211001Y-120294000I-249999J0D01*
G01*
X166310999Y-120294000D01*
G75*
G02*
X166061000Y-120044001I0J249999D01*
G01*
X166061000Y-119393999D01*
G75*
G02*
X166310999Y-119144000I249999J0D01*
G01*
G37*
G36*
G01*
X166310999Y-117094000D02*
X167211001Y-117094000D01*
G75*
G02*
X167461000Y-117343999I0J-249999D01*
G01*
X167461000Y-117994001D01*
G75*
G02*
X167211001Y-118244000I-249999J0D01*
G01*
X166310999Y-118244000D01*
G75*
G02*
X166061000Y-117994001I0J249999D01*
G01*
X166061000Y-117343999D01*
G75*
G02*
X166310999Y-117094000I249999J0D01*
G01*
G37*
%TD*%
%TO.C,C49*%
G36*
G01*
X124478001Y-64481400D02*
X123577999Y-64481400D01*
G75*
G02*
X123328000Y-64231401I0J249999D01*
G01*
X123328000Y-63581399D01*
G75*
G02*
X123577999Y-63331400I249999J0D01*
G01*
X124478001Y-63331400D01*
G75*
G02*
X124728000Y-63581399I0J-249999D01*
G01*
X124728000Y-64231401D01*
G75*
G02*
X124478001Y-64481400I-249999J0D01*
G01*
G37*
G36*
G01*
X124478001Y-66531400D02*
X123577999Y-66531400D01*
G75*
G02*
X123328000Y-66281401I0J249999D01*
G01*
X123328000Y-65631399D01*
G75*
G02*
X123577999Y-65381400I249999J0D01*
G01*
X124478001Y-65381400D01*
G75*
G02*
X124728000Y-65631399I0J-249999D01*
G01*
X124728000Y-66281401D01*
G75*
G02*
X124478001Y-66531400I-249999J0D01*
G01*
G37*
%TD*%
%TO.C,D1*%
G36*
G01*
X87339180Y-85359760D02*
X86864180Y-85359760D01*
G75*
G02*
X86626680Y-85122260I0J237500D01*
G01*
X86626680Y-84547260D01*
G75*
G02*
X86864180Y-84309760I237500J0D01*
G01*
X87339180Y-84309760D01*
G75*
G02*
X87576680Y-84547260I0J-237500D01*
G01*
X87576680Y-85122260D01*
G75*
G02*
X87339180Y-85359760I-237500J0D01*
G01*
G37*
G36*
G01*
X87339180Y-87109760D02*
X86864180Y-87109760D01*
G75*
G02*
X86626680Y-86872260I0J237500D01*
G01*
X86626680Y-86297260D01*
G75*
G02*
X86864180Y-86059760I237500J0D01*
G01*
X87339180Y-86059760D01*
G75*
G02*
X87576680Y-86297260I0J-237500D01*
G01*
X87576680Y-86872260D01*
G75*
G02*
X87339180Y-87109760I-237500J0D01*
G01*
G37*
%TD*%
%TO.C,FB1*%
G36*
G01*
X103027000Y-88655699D02*
X103027000Y-89555701D01*
G75*
G02*
X102777001Y-89805700I-249999J0D01*
G01*
X102126999Y-89805700D01*
G75*
G02*
X101877000Y-89555701I0J249999D01*
G01*
X101877000Y-88655699D01*
G75*
G02*
X102126999Y-88405700I249999J0D01*
G01*
X102777001Y-88405700D01*
G75*
G02*
X103027000Y-88655699I0J-249999D01*
G01*
G37*
G36*
G01*
X105077000Y-88655699D02*
X105077000Y-89555701D01*
G75*
G02*
X104827001Y-89805700I-249999J0D01*
G01*
X104176999Y-89805700D01*
G75*
G02*
X103927000Y-89555701I0J249999D01*
G01*
X103927000Y-88655699D01*
G75*
G02*
X104176999Y-88405700I249999J0D01*
G01*
X104827001Y-88405700D01*
G75*
G02*
X105077000Y-88655699I0J-249999D01*
G01*
G37*
%TD*%
%TO.C,FB2*%
G36*
G01*
X124159860Y-73695139D02*
X124159860Y-74595141D01*
G75*
G02*
X123909861Y-74845140I-249999J0D01*
G01*
X123259859Y-74845140D01*
G75*
G02*
X123009860Y-74595141I0J249999D01*
G01*
X123009860Y-73695139D01*
G75*
G02*
X123259859Y-73445140I249999J0D01*
G01*
X123909861Y-73445140D01*
G75*
G02*
X124159860Y-73695139I0J-249999D01*
G01*
G37*
G36*
G01*
X126209860Y-73695139D02*
X126209860Y-74595141D01*
G75*
G02*
X125959861Y-74845140I-249999J0D01*
G01*
X125309859Y-74845140D01*
G75*
G02*
X125059860Y-74595141I0J249999D01*
G01*
X125059860Y-73695139D01*
G75*
G02*
X125309859Y-73445140I249999J0D01*
G01*
X125959861Y-73445140D01*
G75*
G02*
X126209860Y-73695139I0J-249999D01*
G01*
G37*
%TD*%
%TO.C,R2*%
G36*
G01*
X97554200Y-66642401D02*
X97554200Y-65742399D01*
G75*
G02*
X97804199Y-65492400I249999J0D01*
G01*
X98454201Y-65492400D01*
G75*
G02*
X98704200Y-65742399I0J-249999D01*
G01*
X98704200Y-66642401D01*
G75*
G02*
X98454201Y-66892400I-249999J0D01*
G01*
X97804199Y-66892400D01*
G75*
G02*
X97554200Y-66642401I0J249999D01*
G01*
G37*
G36*
G01*
X95504200Y-66642401D02*
X95504200Y-65742399D01*
G75*
G02*
X95754199Y-65492400I249999J0D01*
G01*
X96404201Y-65492400D01*
G75*
G02*
X96654200Y-65742399I0J-249999D01*
G01*
X96654200Y-66642401D01*
G75*
G02*
X96404201Y-66892400I-249999J0D01*
G01*
X95754199Y-66892400D01*
G75*
G02*
X95504200Y-66642401I0J249999D01*
G01*
G37*
%TD*%
%TO.C,R3*%
G36*
G01*
X84600200Y-66642401D02*
X84600200Y-65742399D01*
G75*
G02*
X84850199Y-65492400I249999J0D01*
G01*
X85500201Y-65492400D01*
G75*
G02*
X85750200Y-65742399I0J-249999D01*
G01*
X85750200Y-66642401D01*
G75*
G02*
X85500201Y-66892400I-249999J0D01*
G01*
X84850199Y-66892400D01*
G75*
G02*
X84600200Y-66642401I0J249999D01*
G01*
G37*
G36*
G01*
X82550200Y-66642401D02*
X82550200Y-65742399D01*
G75*
G02*
X82800199Y-65492400I249999J0D01*
G01*
X83450201Y-65492400D01*
G75*
G02*
X83700200Y-65742399I0J-249999D01*
G01*
X83700200Y-66642401D01*
G75*
G02*
X83450201Y-66892400I-249999J0D01*
G01*
X82800199Y-66892400D01*
G75*
G02*
X82550200Y-66642401I0J249999D01*
G01*
G37*
%TD*%
%TO.C,R4*%
G36*
G01*
X86600879Y-89751320D02*
X87500881Y-89751320D01*
G75*
G02*
X87750880Y-90001319I0J-249999D01*
G01*
X87750880Y-90651321D01*
G75*
G02*
X87500881Y-90901320I-249999J0D01*
G01*
X86600879Y-90901320D01*
G75*
G02*
X86350880Y-90651321I0J249999D01*
G01*
X86350880Y-90001319D01*
G75*
G02*
X86600879Y-89751320I249999J0D01*
G01*
G37*
G36*
G01*
X86600879Y-87701320D02*
X87500881Y-87701320D01*
G75*
G02*
X87750880Y-87951319I0J-249999D01*
G01*
X87750880Y-88601321D01*
G75*
G02*
X87500881Y-88851320I-249999J0D01*
G01*
X86600879Y-88851320D01*
G75*
G02*
X86350880Y-88601321I0J249999D01*
G01*
X86350880Y-87951319D01*
G75*
G02*
X86600879Y-87701320I249999J0D01*
G01*
G37*
%TD*%
%TO.C,R5*%
G36*
G01*
X106444001Y-65488400D02*
X105543999Y-65488400D01*
G75*
G02*
X105294000Y-65238401I0J249999D01*
G01*
X105294000Y-64588399D01*
G75*
G02*
X105543999Y-64338400I249999J0D01*
G01*
X106444001Y-64338400D01*
G75*
G02*
X106694000Y-64588399I0J-249999D01*
G01*
X106694000Y-65238401D01*
G75*
G02*
X106444001Y-65488400I-249999J0D01*
G01*
G37*
G36*
G01*
X106444001Y-67538400D02*
X105543999Y-67538400D01*
G75*
G02*
X105294000Y-67288401I0J249999D01*
G01*
X105294000Y-66638399D01*
G75*
G02*
X105543999Y-66388400I249999J0D01*
G01*
X106444001Y-66388400D01*
G75*
G02*
X106694000Y-66638399I0J-249999D01*
G01*
X106694000Y-67288401D01*
G75*
G02*
X106444001Y-67538400I-249999J0D01*
G01*
G37*
%TD*%
%TO.C,R6*%
G36*
G01*
X93998201Y-65488400D02*
X93098199Y-65488400D01*
G75*
G02*
X92848200Y-65238401I0J249999D01*
G01*
X92848200Y-64588399D01*
G75*
G02*
X93098199Y-64338400I249999J0D01*
G01*
X93998201Y-64338400D01*
G75*
G02*
X94248200Y-64588399I0J-249999D01*
G01*
X94248200Y-65238401D01*
G75*
G02*
X93998201Y-65488400I-249999J0D01*
G01*
G37*
G36*
G01*
X93998201Y-67538400D02*
X93098199Y-67538400D01*
G75*
G02*
X92848200Y-67288401I0J249999D01*
G01*
X92848200Y-66638399D01*
G75*
G02*
X93098199Y-66388400I249999J0D01*
G01*
X93998201Y-66388400D01*
G75*
G02*
X94248200Y-66638399I0J-249999D01*
G01*
X94248200Y-67288401D01*
G75*
G02*
X93998201Y-67538400I-249999J0D01*
G01*
G37*
%TD*%
%TO.C,R7*%
G36*
G01*
X104920000Y-70198401D02*
X104920000Y-69298399D01*
G75*
G02*
X105169999Y-69048400I249999J0D01*
G01*
X105820001Y-69048400D01*
G75*
G02*
X106070000Y-69298399I0J-249999D01*
G01*
X106070000Y-70198401D01*
G75*
G02*
X105820001Y-70448400I-249999J0D01*
G01*
X105169999Y-70448400D01*
G75*
G02*
X104920000Y-70198401I0J249999D01*
G01*
G37*
G36*
G01*
X102870000Y-70198401D02*
X102870000Y-69298399D01*
G75*
G02*
X103119999Y-69048400I249999J0D01*
G01*
X103770001Y-69048400D01*
G75*
G02*
X104020000Y-69298399I0J-249999D01*
G01*
X104020000Y-70198401D01*
G75*
G02*
X103770001Y-70448400I-249999J0D01*
G01*
X103119999Y-70448400D01*
G75*
G02*
X102870000Y-70198401I0J249999D01*
G01*
G37*
%TD*%
%TO.C,R8*%
G36*
G01*
X93490200Y-70198401D02*
X93490200Y-69298399D01*
G75*
G02*
X93740199Y-69048400I249999J0D01*
G01*
X94390201Y-69048400D01*
G75*
G02*
X94640200Y-69298399I0J-249999D01*
G01*
X94640200Y-70198401D01*
G75*
G02*
X94390201Y-70448400I-249999J0D01*
G01*
X93740199Y-70448400D01*
G75*
G02*
X93490200Y-70198401I0J249999D01*
G01*
G37*
G36*
G01*
X91440200Y-70198401D02*
X91440200Y-69298399D01*
G75*
G02*
X91690199Y-69048400I249999J0D01*
G01*
X92340201Y-69048400D01*
G75*
G02*
X92590200Y-69298399I0J-249999D01*
G01*
X92590200Y-70198401D01*
G75*
G02*
X92340201Y-70448400I-249999J0D01*
G01*
X91690199Y-70448400D01*
G75*
G02*
X91440200Y-70198401I0J249999D01*
G01*
G37*
%TD*%
%TO.C,R9*%
G36*
G01*
X85616201Y-73362400D02*
X84716199Y-73362400D01*
G75*
G02*
X84466200Y-73112401I0J249999D01*
G01*
X84466200Y-72462399D01*
G75*
G02*
X84716199Y-72212400I249999J0D01*
G01*
X85616201Y-72212400D01*
G75*
G02*
X85866200Y-72462399I0J-249999D01*
G01*
X85866200Y-73112401D01*
G75*
G02*
X85616201Y-73362400I-249999J0D01*
G01*
G37*
G36*
G01*
X85616201Y-75412400D02*
X84716199Y-75412400D01*
G75*
G02*
X84466200Y-75162401I0J249999D01*
G01*
X84466200Y-74512399D01*
G75*
G02*
X84716199Y-74262400I249999J0D01*
G01*
X85616201Y-74262400D01*
G75*
G02*
X85866200Y-74512399I0J-249999D01*
G01*
X85866200Y-75162401D01*
G75*
G02*
X85616201Y-75412400I-249999J0D01*
G01*
G37*
%TD*%
%TO.C,R10*%
G36*
G01*
X98062201Y-73362400D02*
X97162199Y-73362400D01*
G75*
G02*
X96912200Y-73112401I0J249999D01*
G01*
X96912200Y-72462399D01*
G75*
G02*
X97162199Y-72212400I249999J0D01*
G01*
X98062201Y-72212400D01*
G75*
G02*
X98312200Y-72462399I0J-249999D01*
G01*
X98312200Y-73112401D01*
G75*
G02*
X98062201Y-73362400I-249999J0D01*
G01*
G37*
G36*
G01*
X98062201Y-75412400D02*
X97162199Y-75412400D01*
G75*
G02*
X96912200Y-75162401I0J249999D01*
G01*
X96912200Y-74512399D01*
G75*
G02*
X97162199Y-74262400I249999J0D01*
G01*
X98062201Y-74262400D01*
G75*
G02*
X98312200Y-74512399I0J-249999D01*
G01*
X98312200Y-75162401D01*
G75*
G02*
X98062201Y-75412400I-249999J0D01*
G01*
G37*
%TD*%
%TO.C,R11*%
G36*
G01*
X126431001Y-69783500D02*
X125530999Y-69783500D01*
G75*
G02*
X125281000Y-69533501I0J249999D01*
G01*
X125281000Y-68883499D01*
G75*
G02*
X125530999Y-68633500I249999J0D01*
G01*
X126431001Y-68633500D01*
G75*
G02*
X126681000Y-68883499I0J-249999D01*
G01*
X126681000Y-69533501D01*
G75*
G02*
X126431001Y-69783500I-249999J0D01*
G01*
G37*
G36*
G01*
X126431001Y-71833500D02*
X125530999Y-71833500D01*
G75*
G02*
X125281000Y-71583501I0J249999D01*
G01*
X125281000Y-70933499D01*
G75*
G02*
X125530999Y-70683500I249999J0D01*
G01*
X126431001Y-70683500D01*
G75*
G02*
X126681000Y-70933499I0J-249999D01*
G01*
X126681000Y-71583501D01*
G75*
G02*
X126431001Y-71833500I-249999J0D01*
G01*
G37*
%TD*%
%TO.C,R12*%
G36*
G01*
X119065001Y-71942500D02*
X118164999Y-71942500D01*
G75*
G02*
X117915000Y-71692501I0J249999D01*
G01*
X117915000Y-71042499D01*
G75*
G02*
X118164999Y-70792500I249999J0D01*
G01*
X119065001Y-70792500D01*
G75*
G02*
X119315000Y-71042499I0J-249999D01*
G01*
X119315000Y-71692501D01*
G75*
G02*
X119065001Y-71942500I-249999J0D01*
G01*
G37*
G36*
G01*
X119065001Y-73992500D02*
X118164999Y-73992500D01*
G75*
G02*
X117915000Y-73742501I0J249999D01*
G01*
X117915000Y-73092499D01*
G75*
G02*
X118164999Y-72842500I249999J0D01*
G01*
X119065001Y-72842500D01*
G75*
G02*
X119315000Y-73092499I0J-249999D01*
G01*
X119315000Y-73742501D01*
G75*
G02*
X119065001Y-73992500I-249999J0D01*
G01*
G37*
%TD*%
%TO.C,R13*%
G36*
G01*
X115588001Y-95714400D02*
X114687999Y-95714400D01*
G75*
G02*
X114438000Y-95464401I0J249999D01*
G01*
X114438000Y-94814399D01*
G75*
G02*
X114687999Y-94564400I249999J0D01*
G01*
X115588001Y-94564400D01*
G75*
G02*
X115838000Y-94814399I0J-249999D01*
G01*
X115838000Y-95464401D01*
G75*
G02*
X115588001Y-95714400I-249999J0D01*
G01*
G37*
G36*
G01*
X115588001Y-97764400D02*
X114687999Y-97764400D01*
G75*
G02*
X114438000Y-97514401I0J249999D01*
G01*
X114438000Y-96864399D01*
G75*
G02*
X114687999Y-96614400I249999J0D01*
G01*
X115588001Y-96614400D01*
G75*
G02*
X115838000Y-96864399I0J-249999D01*
G01*
X115838000Y-97514401D01*
G75*
G02*
X115588001Y-97764400I-249999J0D01*
G01*
G37*
%TD*%
%TO.C,R14*%
G36*
G01*
X118128001Y-95714400D02*
X117227999Y-95714400D01*
G75*
G02*
X116978000Y-95464401I0J249999D01*
G01*
X116978000Y-94814399D01*
G75*
G02*
X117227999Y-94564400I249999J0D01*
G01*
X118128001Y-94564400D01*
G75*
G02*
X118378000Y-94814399I0J-249999D01*
G01*
X118378000Y-95464401D01*
G75*
G02*
X118128001Y-95714400I-249999J0D01*
G01*
G37*
G36*
G01*
X118128001Y-97764400D02*
X117227999Y-97764400D01*
G75*
G02*
X116978000Y-97514401I0J249999D01*
G01*
X116978000Y-96864399D01*
G75*
G02*
X117227999Y-96614400I249999J0D01*
G01*
X118128001Y-96614400D01*
G75*
G02*
X118378000Y-96864399I0J-249999D01*
G01*
X118378000Y-97514401D01*
G75*
G02*
X118128001Y-97764400I-249999J0D01*
G01*
G37*
%TD*%
%TO.C,R15*%
G36*
G01*
X120668001Y-95714400D02*
X119767999Y-95714400D01*
G75*
G02*
X119518000Y-95464401I0J249999D01*
G01*
X119518000Y-94814399D01*
G75*
G02*
X119767999Y-94564400I249999J0D01*
G01*
X120668001Y-94564400D01*
G75*
G02*
X120918000Y-94814399I0J-249999D01*
G01*
X120918000Y-95464401D01*
G75*
G02*
X120668001Y-95714400I-249999J0D01*
G01*
G37*
G36*
G01*
X120668001Y-97764400D02*
X119767999Y-97764400D01*
G75*
G02*
X119518000Y-97514401I0J249999D01*
G01*
X119518000Y-96864399D01*
G75*
G02*
X119767999Y-96614400I249999J0D01*
G01*
X120668001Y-96614400D01*
G75*
G02*
X120918000Y-96864399I0J-249999D01*
G01*
X120918000Y-97514401D01*
G75*
G02*
X120668001Y-97764400I-249999J0D01*
G01*
G37*
%TD*%
%TO.C,R16*%
G36*
G01*
X123208001Y-95714400D02*
X122307999Y-95714400D01*
G75*
G02*
X122058000Y-95464401I0J249999D01*
G01*
X122058000Y-94814399D01*
G75*
G02*
X122307999Y-94564400I249999J0D01*
G01*
X123208001Y-94564400D01*
G75*
G02*
X123458000Y-94814399I0J-249999D01*
G01*
X123458000Y-95464401D01*
G75*
G02*
X123208001Y-95714400I-249999J0D01*
G01*
G37*
G36*
G01*
X123208001Y-97764400D02*
X122307999Y-97764400D01*
G75*
G02*
X122058000Y-97514401I0J249999D01*
G01*
X122058000Y-96864399D01*
G75*
G02*
X122307999Y-96614400I249999J0D01*
G01*
X123208001Y-96614400D01*
G75*
G02*
X123458000Y-96864399I0J-249999D01*
G01*
X123458000Y-97514401D01*
G75*
G02*
X123208001Y-97764400I-249999J0D01*
G01*
G37*
%TD*%
%TO.C,R17*%
G36*
G01*
X119435000Y-68386499D02*
X119435000Y-69286501D01*
G75*
G02*
X119185001Y-69536500I-249999J0D01*
G01*
X118534999Y-69536500D01*
G75*
G02*
X118285000Y-69286501I0J249999D01*
G01*
X118285000Y-68386499D01*
G75*
G02*
X118534999Y-68136500I249999J0D01*
G01*
X119185001Y-68136500D01*
G75*
G02*
X119435000Y-68386499I0J-249999D01*
G01*
G37*
G36*
G01*
X121485000Y-68386499D02*
X121485000Y-69286501D01*
G75*
G02*
X121235001Y-69536500I-249999J0D01*
G01*
X120584999Y-69536500D01*
G75*
G02*
X120335000Y-69286501I0J249999D01*
G01*
X120335000Y-68386499D01*
G75*
G02*
X120584999Y-68136500I249999J0D01*
G01*
X121235001Y-68136500D01*
G75*
G02*
X121485000Y-68386499I0J-249999D01*
G01*
G37*
%TD*%
%TO.C,R18*%
G36*
G01*
X125085260Y-77236741D02*
X125085260Y-76336739D01*
G75*
G02*
X125335259Y-76086740I249999J0D01*
G01*
X125985261Y-76086740D01*
G75*
G02*
X126235260Y-76336739I0J-249999D01*
G01*
X126235260Y-77236741D01*
G75*
G02*
X125985261Y-77486740I-249999J0D01*
G01*
X125335259Y-77486740D01*
G75*
G02*
X125085260Y-77236741I0J249999D01*
G01*
G37*
G36*
G01*
X123035260Y-77236741D02*
X123035260Y-76336739D01*
G75*
G02*
X123285259Y-76086740I249999J0D01*
G01*
X123935261Y-76086740D01*
G75*
G02*
X124185260Y-76336739I0J-249999D01*
G01*
X124185260Y-77236741D01*
G75*
G02*
X123935261Y-77486740I-249999J0D01*
G01*
X123285259Y-77486740D01*
G75*
G02*
X123035260Y-77236741I0J249999D01*
G01*
G37*
%TD*%
%TO.C,R19*%
G36*
G01*
X126764000Y-93058401D02*
X126764000Y-92158399D01*
G75*
G02*
X127013999Y-91908400I249999J0D01*
G01*
X127664001Y-91908400D01*
G75*
G02*
X127914000Y-92158399I0J-249999D01*
G01*
X127914000Y-93058401D01*
G75*
G02*
X127664001Y-93308400I-249999J0D01*
G01*
X127013999Y-93308400D01*
G75*
G02*
X126764000Y-93058401I0J249999D01*
G01*
G37*
G36*
G01*
X124714000Y-93058401D02*
X124714000Y-92158399D01*
G75*
G02*
X124963999Y-91908400I249999J0D01*
G01*
X125614001Y-91908400D01*
G75*
G02*
X125864000Y-92158399I0J-249999D01*
G01*
X125864000Y-93058401D01*
G75*
G02*
X125614001Y-93308400I-249999J0D01*
G01*
X124963999Y-93308400D01*
G75*
G02*
X124714000Y-93058401I0J249999D01*
G01*
G37*
%TD*%
%TO.C,R20*%
G36*
G01*
X126547000Y-89468499D02*
X126547000Y-90368501D01*
G75*
G02*
X126297001Y-90618500I-249999J0D01*
G01*
X125646999Y-90618500D01*
G75*
G02*
X125397000Y-90368501I0J249999D01*
G01*
X125397000Y-89468499D01*
G75*
G02*
X125646999Y-89218500I249999J0D01*
G01*
X126297001Y-89218500D01*
G75*
G02*
X126547000Y-89468499I0J-249999D01*
G01*
G37*
G36*
G01*
X128597000Y-89468499D02*
X128597000Y-90368501D01*
G75*
G02*
X128347001Y-90618500I-249999J0D01*
G01*
X127696999Y-90618500D01*
G75*
G02*
X127447000Y-90368501I0J249999D01*
G01*
X127447000Y-89468499D01*
G75*
G02*
X127696999Y-89218500I249999J0D01*
G01*
X128347001Y-89218500D01*
G75*
G02*
X128597000Y-89468499I0J-249999D01*
G01*
G37*
%TD*%
%TO.C,R21*%
G36*
G01*
X129927999Y-82390400D02*
X130828001Y-82390400D01*
G75*
G02*
X131078000Y-82640399I0J-249999D01*
G01*
X131078000Y-83290401D01*
G75*
G02*
X130828001Y-83540400I-249999J0D01*
G01*
X129927999Y-83540400D01*
G75*
G02*
X129678000Y-83290401I0J249999D01*
G01*
X129678000Y-82640399D01*
G75*
G02*
X129927999Y-82390400I249999J0D01*
G01*
G37*
G36*
G01*
X129927999Y-80340400D02*
X130828001Y-80340400D01*
G75*
G02*
X131078000Y-80590399I0J-249999D01*
G01*
X131078000Y-81240401D01*
G75*
G02*
X130828001Y-81490400I-249999J0D01*
G01*
X129927999Y-81490400D01*
G75*
G02*
X129678000Y-81240401I0J249999D01*
G01*
X129678000Y-80590399D01*
G75*
G02*
X129927999Y-80340400I249999J0D01*
G01*
G37*
%TD*%
%TO.C,R22*%
G36*
G01*
X124488000Y-81668199D02*
X124488000Y-82568201D01*
G75*
G02*
X124238001Y-82818200I-249999J0D01*
G01*
X123587999Y-82818200D01*
G75*
G02*
X123338000Y-82568201I0J249999D01*
G01*
X123338000Y-81668199D01*
G75*
G02*
X123587999Y-81418200I249999J0D01*
G01*
X124238001Y-81418200D01*
G75*
G02*
X124488000Y-81668199I0J-249999D01*
G01*
G37*
G36*
G01*
X126538000Y-81668199D02*
X126538000Y-82568201D01*
G75*
G02*
X126288001Y-82818200I-249999J0D01*
G01*
X125637999Y-82818200D01*
G75*
G02*
X125388000Y-82568201I0J249999D01*
G01*
X125388000Y-81668199D01*
G75*
G02*
X125637999Y-81418200I249999J0D01*
G01*
X126288001Y-81418200D01*
G75*
G02*
X126538000Y-81668199I0J-249999D01*
G01*
G37*
%TD*%
%TO.C,R23*%
G36*
G01*
X136504259Y-101087340D02*
X137404261Y-101087340D01*
G75*
G02*
X137654260Y-101337339I0J-249999D01*
G01*
X137654260Y-101987341D01*
G75*
G02*
X137404261Y-102237340I-249999J0D01*
G01*
X136504259Y-102237340D01*
G75*
G02*
X136254260Y-101987341I0J249999D01*
G01*
X136254260Y-101337339D01*
G75*
G02*
X136504259Y-101087340I249999J0D01*
G01*
G37*
G36*
G01*
X136504259Y-99037340D02*
X137404261Y-99037340D01*
G75*
G02*
X137654260Y-99287339I0J-249999D01*
G01*
X137654260Y-99937341D01*
G75*
G02*
X137404261Y-100187340I-249999J0D01*
G01*
X136504259Y-100187340D01*
G75*
G02*
X136254260Y-99937341I0J249999D01*
G01*
X136254260Y-99287339D01*
G75*
G02*
X136504259Y-99037340I249999J0D01*
G01*
G37*
%TD*%
%TO.C,R24*%
G36*
G01*
X139501459Y-101061940D02*
X140401461Y-101061940D01*
G75*
G02*
X140651460Y-101311939I0J-249999D01*
G01*
X140651460Y-101961941D01*
G75*
G02*
X140401461Y-102211940I-249999J0D01*
G01*
X139501459Y-102211940D01*
G75*
G02*
X139251460Y-101961941I0J249999D01*
G01*
X139251460Y-101311939D01*
G75*
G02*
X139501459Y-101061940I249999J0D01*
G01*
G37*
G36*
G01*
X139501459Y-99011940D02*
X140401461Y-99011940D01*
G75*
G02*
X140651460Y-99261939I0J-249999D01*
G01*
X140651460Y-99911941D01*
G75*
G02*
X140401461Y-100161940I-249999J0D01*
G01*
X139501459Y-100161940D01*
G75*
G02*
X139251460Y-99911941I0J249999D01*
G01*
X139251460Y-99261939D01*
G75*
G02*
X139501459Y-99011940I249999J0D01*
G01*
G37*
%TD*%
%TO.C,R25*%
G36*
G01*
X142447859Y-101037000D02*
X143347861Y-101037000D01*
G75*
G02*
X143597860Y-101286999I0J-249999D01*
G01*
X143597860Y-101937001D01*
G75*
G02*
X143347861Y-102187000I-249999J0D01*
G01*
X142447859Y-102187000D01*
G75*
G02*
X142197860Y-101937001I0J249999D01*
G01*
X142197860Y-101286999D01*
G75*
G02*
X142447859Y-101037000I249999J0D01*
G01*
G37*
G36*
G01*
X142447859Y-98987000D02*
X143347861Y-98987000D01*
G75*
G02*
X143597860Y-99236999I0J-249999D01*
G01*
X143597860Y-99887001D01*
G75*
G02*
X143347861Y-100137000I-249999J0D01*
G01*
X142447859Y-100137000D01*
G75*
G02*
X142197860Y-99887001I0J249999D01*
G01*
X142197860Y-99236999D01*
G75*
G02*
X142447859Y-98987000I249999J0D01*
G01*
G37*
%TD*%
%TO.C,R26*%
G36*
G01*
X138471060Y-96362941D02*
X138471060Y-95462939D01*
G75*
G02*
X138721059Y-95212940I249999J0D01*
G01*
X139371061Y-95212940D01*
G75*
G02*
X139621060Y-95462939I0J-249999D01*
G01*
X139621060Y-96362941D01*
G75*
G02*
X139371061Y-96612940I-249999J0D01*
G01*
X138721059Y-96612940D01*
G75*
G02*
X138471060Y-96362941I0J249999D01*
G01*
G37*
G36*
G01*
X136421060Y-96362941D02*
X136421060Y-95462939D01*
G75*
G02*
X136671059Y-95212940I249999J0D01*
G01*
X137321061Y-95212940D01*
G75*
G02*
X137571060Y-95462939I0J-249999D01*
G01*
X137571060Y-96362941D01*
G75*
G02*
X137321061Y-96612940I-249999J0D01*
G01*
X136671059Y-96612940D01*
G75*
G02*
X136421060Y-96362941I0J249999D01*
G01*
G37*
%TD*%
%TO.C,R33*%
G36*
G01*
X111191000Y-68524501D02*
X111191000Y-67624499D01*
G75*
G02*
X111440999Y-67374500I249999J0D01*
G01*
X112091001Y-67374500D01*
G75*
G02*
X112341000Y-67624499I0J-249999D01*
G01*
X112341000Y-68524501D01*
G75*
G02*
X112091001Y-68774500I-249999J0D01*
G01*
X111440999Y-68774500D01*
G75*
G02*
X111191000Y-68524501I0J249999D01*
G01*
G37*
G36*
G01*
X109141000Y-68524501D02*
X109141000Y-67624499D01*
G75*
G02*
X109390999Y-67374500I249999J0D01*
G01*
X110041001Y-67374500D01*
G75*
G02*
X110291000Y-67624499I0J-249999D01*
G01*
X110291000Y-68524501D01*
G75*
G02*
X110041001Y-68774500I-249999J0D01*
G01*
X109390999Y-68774500D01*
G75*
G02*
X109141000Y-68524501I0J249999D01*
G01*
G37*
%TD*%
%TO.C,R34*%
G36*
G01*
X120529999Y-65363400D02*
X121430001Y-65363400D01*
G75*
G02*
X121680000Y-65613399I0J-249999D01*
G01*
X121680000Y-66263401D01*
G75*
G02*
X121430001Y-66513400I-249999J0D01*
G01*
X120529999Y-66513400D01*
G75*
G02*
X120280000Y-66263401I0J249999D01*
G01*
X120280000Y-65613399D01*
G75*
G02*
X120529999Y-65363400I249999J0D01*
G01*
G37*
G36*
G01*
X120529999Y-63313400D02*
X121430001Y-63313400D01*
G75*
G02*
X121680000Y-63563399I0J-249999D01*
G01*
X121680000Y-64213401D01*
G75*
G02*
X121430001Y-64463400I-249999J0D01*
G01*
X120529999Y-64463400D01*
G75*
G02*
X120280000Y-64213401I0J249999D01*
G01*
X120280000Y-63563399D01*
G75*
G02*
X120529999Y-63313400I249999J0D01*
G01*
G37*
%TD*%
%TO.C,R35*%
G36*
G01*
X108270461Y-113979540D02*
X107370459Y-113979540D01*
G75*
G02*
X107120460Y-113729541I0J249999D01*
G01*
X107120460Y-113079539D01*
G75*
G02*
X107370459Y-112829540I249999J0D01*
G01*
X108270461Y-112829540D01*
G75*
G02*
X108520460Y-113079539I0J-249999D01*
G01*
X108520460Y-113729541D01*
G75*
G02*
X108270461Y-113979540I-249999J0D01*
G01*
G37*
G36*
G01*
X108270461Y-116029540D02*
X107370459Y-116029540D01*
G75*
G02*
X107120460Y-115779541I0J249999D01*
G01*
X107120460Y-115129539D01*
G75*
G02*
X107370459Y-114879540I249999J0D01*
G01*
X108270461Y-114879540D01*
G75*
G02*
X108520460Y-115129539I0J-249999D01*
G01*
X108520460Y-115779541D01*
G75*
G02*
X108270461Y-116029540I-249999J0D01*
G01*
G37*
%TD*%
%TO.C,R36*%
G36*
G01*
X105920961Y-113916040D02*
X105020959Y-113916040D01*
G75*
G02*
X104770960Y-113666041I0J249999D01*
G01*
X104770960Y-113016039D01*
G75*
G02*
X105020959Y-112766040I249999J0D01*
G01*
X105920961Y-112766040D01*
G75*
G02*
X106170960Y-113016039I0J-249999D01*
G01*
X106170960Y-113666041D01*
G75*
G02*
X105920961Y-113916040I-249999J0D01*
G01*
G37*
G36*
G01*
X105920961Y-115966040D02*
X105020959Y-115966040D01*
G75*
G02*
X104770960Y-115716041I0J249999D01*
G01*
X104770960Y-115066039D01*
G75*
G02*
X105020959Y-114816040I249999J0D01*
G01*
X105920961Y-114816040D01*
G75*
G02*
X106170960Y-115066039I0J-249999D01*
G01*
X106170960Y-115716041D01*
G75*
G02*
X105920961Y-115966040I-249999J0D01*
G01*
G37*
%TD*%
%TO.C,R37*%
G36*
G01*
X107433959Y-118753040D02*
X108333961Y-118753040D01*
G75*
G02*
X108583960Y-119003039I0J-249999D01*
G01*
X108583960Y-119653041D01*
G75*
G02*
X108333961Y-119903040I-249999J0D01*
G01*
X107433959Y-119903040D01*
G75*
G02*
X107183960Y-119653041I0J249999D01*
G01*
X107183960Y-119003039D01*
G75*
G02*
X107433959Y-118753040I249999J0D01*
G01*
G37*
G36*
G01*
X107433959Y-116703040D02*
X108333961Y-116703040D01*
G75*
G02*
X108583960Y-116953039I0J-249999D01*
G01*
X108583960Y-117603041D01*
G75*
G02*
X108333961Y-117853040I-249999J0D01*
G01*
X107433959Y-117853040D01*
G75*
G02*
X107183960Y-117603041I0J249999D01*
G01*
X107183960Y-116953039D01*
G75*
G02*
X107433959Y-116703040I249999J0D01*
G01*
G37*
%TD*%
%TO.C,R38*%
G36*
G01*
X156851999Y-75024400D02*
X157752001Y-75024400D01*
G75*
G02*
X158002000Y-75274399I0J-249999D01*
G01*
X158002000Y-75924401D01*
G75*
G02*
X157752001Y-76174400I-249999J0D01*
G01*
X156851999Y-76174400D01*
G75*
G02*
X156602000Y-75924401I0J249999D01*
G01*
X156602000Y-75274399D01*
G75*
G02*
X156851999Y-75024400I249999J0D01*
G01*
G37*
G36*
G01*
X156851999Y-72974400D02*
X157752001Y-72974400D01*
G75*
G02*
X158002000Y-73224399I0J-249999D01*
G01*
X158002000Y-73874401D01*
G75*
G02*
X157752001Y-74124400I-249999J0D01*
G01*
X156851999Y-74124400D01*
G75*
G02*
X156602000Y-73874401I0J249999D01*
G01*
X156602000Y-73224399D01*
G75*
G02*
X156851999Y-72974400I249999J0D01*
G01*
G37*
%TD*%
%TO.C,R39*%
G36*
G01*
X157498001Y-69552400D02*
X156597999Y-69552400D01*
G75*
G02*
X156348000Y-69302401I0J249999D01*
G01*
X156348000Y-68652399D01*
G75*
G02*
X156597999Y-68402400I249999J0D01*
G01*
X157498001Y-68402400D01*
G75*
G02*
X157748000Y-68652399I0J-249999D01*
G01*
X157748000Y-69302401D01*
G75*
G02*
X157498001Y-69552400I-249999J0D01*
G01*
G37*
G36*
G01*
X157498001Y-71602400D02*
X156597999Y-71602400D01*
G75*
G02*
X156348000Y-71352401I0J249999D01*
G01*
X156348000Y-70702399D01*
G75*
G02*
X156597999Y-70452400I249999J0D01*
G01*
X157498001Y-70452400D01*
G75*
G02*
X157748000Y-70702399I0J-249999D01*
G01*
X157748000Y-71352401D01*
G75*
G02*
X157498001Y-71602400I-249999J0D01*
G01*
G37*
%TD*%
%TO.C,R40*%
G36*
G01*
X155466001Y-74124400D02*
X154565999Y-74124400D01*
G75*
G02*
X154316000Y-73874401I0J249999D01*
G01*
X154316000Y-73224399D01*
G75*
G02*
X154565999Y-72974400I249999J0D01*
G01*
X155466001Y-72974400D01*
G75*
G02*
X155716000Y-73224399I0J-249999D01*
G01*
X155716000Y-73874401D01*
G75*
G02*
X155466001Y-74124400I-249999J0D01*
G01*
G37*
G36*
G01*
X155466001Y-76174400D02*
X154565999Y-76174400D01*
G75*
G02*
X154316000Y-75924401I0J249999D01*
G01*
X154316000Y-75274399D01*
G75*
G02*
X154565999Y-75024400I249999J0D01*
G01*
X155466001Y-75024400D01*
G75*
G02*
X155716000Y-75274399I0J-249999D01*
G01*
X155716000Y-75924401D01*
G75*
G02*
X155466001Y-76174400I-249999J0D01*
G01*
G37*
%TD*%
%TO.C,R41*%
G36*
G01*
X140480000Y-73500401D02*
X140480000Y-72600399D01*
G75*
G02*
X140729999Y-72350400I249999J0D01*
G01*
X141380001Y-72350400D01*
G75*
G02*
X141630000Y-72600399I0J-249999D01*
G01*
X141630000Y-73500401D01*
G75*
G02*
X141380001Y-73750400I-249999J0D01*
G01*
X140729999Y-73750400D01*
G75*
G02*
X140480000Y-73500401I0J249999D01*
G01*
G37*
G36*
G01*
X138430000Y-73500401D02*
X138430000Y-72600399D01*
G75*
G02*
X138679999Y-72350400I249999J0D01*
G01*
X139330001Y-72350400D01*
G75*
G02*
X139580000Y-72600399I0J-249999D01*
G01*
X139580000Y-73500401D01*
G75*
G02*
X139330001Y-73750400I-249999J0D01*
G01*
X138679999Y-73750400D01*
G75*
G02*
X138430000Y-73500401I0J249999D01*
G01*
G37*
%TD*%
%TO.C,R42*%
G36*
G01*
X143274000Y-70960401D02*
X143274000Y-70060399D01*
G75*
G02*
X143523999Y-69810400I249999J0D01*
G01*
X144174001Y-69810400D01*
G75*
G02*
X144424000Y-70060399I0J-249999D01*
G01*
X144424000Y-70960401D01*
G75*
G02*
X144174001Y-71210400I-249999J0D01*
G01*
X143523999Y-71210400D01*
G75*
G02*
X143274000Y-70960401I0J249999D01*
G01*
G37*
G36*
G01*
X141224000Y-70960401D02*
X141224000Y-70060399D01*
G75*
G02*
X141473999Y-69810400I249999J0D01*
G01*
X142124001Y-69810400D01*
G75*
G02*
X142374000Y-70060399I0J-249999D01*
G01*
X142374000Y-70960401D01*
G75*
G02*
X142124001Y-71210400I-249999J0D01*
G01*
X141473999Y-71210400D01*
G75*
G02*
X141224000Y-70960401I0J249999D01*
G01*
G37*
%TD*%
%TO.C,R43*%
G36*
G01*
X146068000Y-73500401D02*
X146068000Y-72600399D01*
G75*
G02*
X146317999Y-72350400I249999J0D01*
G01*
X146968001Y-72350400D01*
G75*
G02*
X147218000Y-72600399I0J-249999D01*
G01*
X147218000Y-73500401D01*
G75*
G02*
X146968001Y-73750400I-249999J0D01*
G01*
X146317999Y-73750400D01*
G75*
G02*
X146068000Y-73500401I0J249999D01*
G01*
G37*
G36*
G01*
X144018000Y-73500401D02*
X144018000Y-72600399D01*
G75*
G02*
X144267999Y-72350400I249999J0D01*
G01*
X144918001Y-72350400D01*
G75*
G02*
X145168000Y-72600399I0J-249999D01*
G01*
X145168000Y-73500401D01*
G75*
G02*
X144918001Y-73750400I-249999J0D01*
G01*
X144267999Y-73750400D01*
G75*
G02*
X144018000Y-73500401I0J249999D01*
G01*
G37*
%TD*%
%TO.C,R44*%
G36*
G01*
X148608000Y-70960401D02*
X148608000Y-70060399D01*
G75*
G02*
X148857999Y-69810400I249999J0D01*
G01*
X149508001Y-69810400D01*
G75*
G02*
X149758000Y-70060399I0J-249999D01*
G01*
X149758000Y-70960401D01*
G75*
G02*
X149508001Y-71210400I-249999J0D01*
G01*
X148857999Y-71210400D01*
G75*
G02*
X148608000Y-70960401I0J249999D01*
G01*
G37*
G36*
G01*
X146558000Y-70960401D02*
X146558000Y-70060399D01*
G75*
G02*
X146807999Y-69810400I249999J0D01*
G01*
X147458001Y-69810400D01*
G75*
G02*
X147708000Y-70060399I0J-249999D01*
G01*
X147708000Y-70960401D01*
G75*
G02*
X147458001Y-71210400I-249999J0D01*
G01*
X146807999Y-71210400D01*
G75*
G02*
X146558000Y-70960401I0J249999D01*
G01*
G37*
%TD*%
%TO.C,R45*%
G36*
G01*
X92522461Y-122361540D02*
X91622459Y-122361540D01*
G75*
G02*
X91372460Y-122111541I0J249999D01*
G01*
X91372460Y-121461539D01*
G75*
G02*
X91622459Y-121211540I249999J0D01*
G01*
X92522461Y-121211540D01*
G75*
G02*
X92772460Y-121461539I0J-249999D01*
G01*
X92772460Y-122111541D01*
G75*
G02*
X92522461Y-122361540I-249999J0D01*
G01*
G37*
G36*
G01*
X92522461Y-124411540D02*
X91622459Y-124411540D01*
G75*
G02*
X91372460Y-124161541I0J249999D01*
G01*
X91372460Y-123511539D01*
G75*
G02*
X91622459Y-123261540I249999J0D01*
G01*
X92522461Y-123261540D01*
G75*
G02*
X92772460Y-123511539I0J-249999D01*
G01*
X92772460Y-124161541D01*
G75*
G02*
X92522461Y-124411540I-249999J0D01*
G01*
G37*
%TD*%
%TO.C,R46*%
G36*
G01*
X102618961Y-122384000D02*
X101718959Y-122384000D01*
G75*
G02*
X101468960Y-122134001I0J249999D01*
G01*
X101468960Y-121483999D01*
G75*
G02*
X101718959Y-121234000I249999J0D01*
G01*
X102618961Y-121234000D01*
G75*
G02*
X102868960Y-121483999I0J-249999D01*
G01*
X102868960Y-122134001D01*
G75*
G02*
X102618961Y-122384000I-249999J0D01*
G01*
G37*
G36*
G01*
X102618961Y-124434000D02*
X101718959Y-124434000D01*
G75*
G02*
X101468960Y-124184001I0J249999D01*
G01*
X101468960Y-123533999D01*
G75*
G02*
X101718959Y-123284000I249999J0D01*
G01*
X102618961Y-123284000D01*
G75*
G02*
X102868960Y-123533999I0J-249999D01*
G01*
X102868960Y-124184001D01*
G75*
G02*
X102618961Y-124434000I-249999J0D01*
G01*
G37*
%TD*%
%TO.C,R47*%
G36*
G01*
X86378201Y-122384000D02*
X85478199Y-122384000D01*
G75*
G02*
X85228200Y-122134001I0J249999D01*
G01*
X85228200Y-121483999D01*
G75*
G02*
X85478199Y-121234000I249999J0D01*
G01*
X86378201Y-121234000D01*
G75*
G02*
X86628200Y-121483999I0J-249999D01*
G01*
X86628200Y-122134001D01*
G75*
G02*
X86378201Y-122384000I-249999J0D01*
G01*
G37*
G36*
G01*
X86378201Y-124434000D02*
X85478199Y-124434000D01*
G75*
G02*
X85228200Y-124184001I0J249999D01*
G01*
X85228200Y-123533999D01*
G75*
G02*
X85478199Y-123284000I249999J0D01*
G01*
X86378201Y-123284000D01*
G75*
G02*
X86628200Y-123533999I0J-249999D01*
G01*
X86628200Y-124184001D01*
G75*
G02*
X86378201Y-124434000I-249999J0D01*
G01*
G37*
%TD*%
%TO.C,R48*%
G36*
G01*
X78758201Y-122384000D02*
X77858199Y-122384000D01*
G75*
G02*
X77608200Y-122134001I0J249999D01*
G01*
X77608200Y-121483999D01*
G75*
G02*
X77858199Y-121234000I249999J0D01*
G01*
X78758201Y-121234000D01*
G75*
G02*
X79008200Y-121483999I0J-249999D01*
G01*
X79008200Y-122134001D01*
G75*
G02*
X78758201Y-122384000I-249999J0D01*
G01*
G37*
G36*
G01*
X78758201Y-124434000D02*
X77858199Y-124434000D01*
G75*
G02*
X77608200Y-124184001I0J249999D01*
G01*
X77608200Y-123533999D01*
G75*
G02*
X77858199Y-123284000I249999J0D01*
G01*
X78758201Y-123284000D01*
G75*
G02*
X79008200Y-123533999I0J-249999D01*
G01*
X79008200Y-124184001D01*
G75*
G02*
X78758201Y-124434000I-249999J0D01*
G01*
G37*
%TD*%
%TO.C,R49*%
G36*
G01*
X83838201Y-122384000D02*
X82938199Y-122384000D01*
G75*
G02*
X82688200Y-122134001I0J249999D01*
G01*
X82688200Y-121483999D01*
G75*
G02*
X82938199Y-121234000I249999J0D01*
G01*
X83838201Y-121234000D01*
G75*
G02*
X84088200Y-121483999I0J-249999D01*
G01*
X84088200Y-122134001D01*
G75*
G02*
X83838201Y-122384000I-249999J0D01*
G01*
G37*
G36*
G01*
X83838201Y-124434000D02*
X82938199Y-124434000D01*
G75*
G02*
X82688200Y-124184001I0J249999D01*
G01*
X82688200Y-123533999D01*
G75*
G02*
X82938199Y-123284000I249999J0D01*
G01*
X83838201Y-123284000D01*
G75*
G02*
X84088200Y-123533999I0J-249999D01*
G01*
X84088200Y-124184001D01*
G75*
G02*
X83838201Y-124434000I-249999J0D01*
G01*
G37*
%TD*%
%TO.C,R50*%
G36*
G01*
X88918201Y-122384000D02*
X88018199Y-122384000D01*
G75*
G02*
X87768200Y-122134001I0J249999D01*
G01*
X87768200Y-121483999D01*
G75*
G02*
X88018199Y-121234000I249999J0D01*
G01*
X88918201Y-121234000D01*
G75*
G02*
X89168200Y-121483999I0J-249999D01*
G01*
X89168200Y-122134001D01*
G75*
G02*
X88918201Y-122384000I-249999J0D01*
G01*
G37*
G36*
G01*
X88918201Y-124434000D02*
X88018199Y-124434000D01*
G75*
G02*
X87768200Y-124184001I0J249999D01*
G01*
X87768200Y-123533999D01*
G75*
G02*
X88018199Y-123284000I249999J0D01*
G01*
X88918201Y-123284000D01*
G75*
G02*
X89168200Y-123533999I0J-249999D01*
G01*
X89168200Y-124184001D01*
G75*
G02*
X88918201Y-124434000I-249999J0D01*
G01*
G37*
%TD*%
%TO.C,R51*%
G36*
G01*
X105174001Y-122384000D02*
X104273999Y-122384000D01*
G75*
G02*
X104024000Y-122134001I0J249999D01*
G01*
X104024000Y-121483999D01*
G75*
G02*
X104273999Y-121234000I249999J0D01*
G01*
X105174001Y-121234000D01*
G75*
G02*
X105424000Y-121483999I0J-249999D01*
G01*
X105424000Y-122134001D01*
G75*
G02*
X105174001Y-122384000I-249999J0D01*
G01*
G37*
G36*
G01*
X105174001Y-124434000D02*
X104273999Y-124434000D01*
G75*
G02*
X104024000Y-124184001I0J249999D01*
G01*
X104024000Y-123533999D01*
G75*
G02*
X104273999Y-123284000I249999J0D01*
G01*
X105174001Y-123284000D01*
G75*
G02*
X105424000Y-123533999I0J-249999D01*
G01*
X105424000Y-124184001D01*
G75*
G02*
X105174001Y-124434000I-249999J0D01*
G01*
G37*
%TD*%
%TO.C,R52*%
G36*
G01*
X81298201Y-122384000D02*
X80398199Y-122384000D01*
G75*
G02*
X80148200Y-122134001I0J249999D01*
G01*
X80148200Y-121483999D01*
G75*
G02*
X80398199Y-121234000I249999J0D01*
G01*
X81298201Y-121234000D01*
G75*
G02*
X81548200Y-121483999I0J-249999D01*
G01*
X81548200Y-122134001D01*
G75*
G02*
X81298201Y-122384000I-249999J0D01*
G01*
G37*
G36*
G01*
X81298201Y-124434000D02*
X80398199Y-124434000D01*
G75*
G02*
X80148200Y-124184001I0J249999D01*
G01*
X80148200Y-123533999D01*
G75*
G02*
X80398199Y-123284000I249999J0D01*
G01*
X81298201Y-123284000D01*
G75*
G02*
X81548200Y-123533999I0J-249999D01*
G01*
X81548200Y-124184001D01*
G75*
G02*
X81298201Y-124434000I-249999J0D01*
G01*
G37*
%TD*%
%TO.C,R53*%
G36*
G01*
X142512001Y-84792400D02*
X141611999Y-84792400D01*
G75*
G02*
X141362000Y-84542401I0J249999D01*
G01*
X141362000Y-83892399D01*
G75*
G02*
X141611999Y-83642400I249999J0D01*
G01*
X142512001Y-83642400D01*
G75*
G02*
X142762000Y-83892399I0J-249999D01*
G01*
X142762000Y-84542401D01*
G75*
G02*
X142512001Y-84792400I-249999J0D01*
G01*
G37*
G36*
G01*
X142512001Y-86842400D02*
X141611999Y-86842400D01*
G75*
G02*
X141362000Y-86592401I0J249999D01*
G01*
X141362000Y-85942399D01*
G75*
G02*
X141611999Y-85692400I249999J0D01*
G01*
X142512001Y-85692400D01*
G75*
G02*
X142762000Y-85942399I0J-249999D01*
G01*
X142762000Y-86592401D01*
G75*
G02*
X142512001Y-86842400I-249999J0D01*
G01*
G37*
%TD*%
%TO.C,R54*%
G36*
G01*
X145052001Y-84792400D02*
X144151999Y-84792400D01*
G75*
G02*
X143902000Y-84542401I0J249999D01*
G01*
X143902000Y-83892399D01*
G75*
G02*
X144151999Y-83642400I249999J0D01*
G01*
X145052001Y-83642400D01*
G75*
G02*
X145302000Y-83892399I0J-249999D01*
G01*
X145302000Y-84542401D01*
G75*
G02*
X145052001Y-84792400I-249999J0D01*
G01*
G37*
G36*
G01*
X145052001Y-86842400D02*
X144151999Y-86842400D01*
G75*
G02*
X143902000Y-86592401I0J249999D01*
G01*
X143902000Y-85942399D01*
G75*
G02*
X144151999Y-85692400I249999J0D01*
G01*
X145052001Y-85692400D01*
G75*
G02*
X145302000Y-85942399I0J-249999D01*
G01*
X145302000Y-86592401D01*
G75*
G02*
X145052001Y-86842400I-249999J0D01*
G01*
G37*
%TD*%
%TO.C,R55*%
G36*
G01*
X148354000Y-88232401D02*
X148354000Y-87332399D01*
G75*
G02*
X148603999Y-87082400I249999J0D01*
G01*
X149254001Y-87082400D01*
G75*
G02*
X149504000Y-87332399I0J-249999D01*
G01*
X149504000Y-88232401D01*
G75*
G02*
X149254001Y-88482400I-249999J0D01*
G01*
X148603999Y-88482400D01*
G75*
G02*
X148354000Y-88232401I0J249999D01*
G01*
G37*
G36*
G01*
X146304000Y-88232401D02*
X146304000Y-87332399D01*
G75*
G02*
X146553999Y-87082400I249999J0D01*
G01*
X147204001Y-87082400D01*
G75*
G02*
X147454000Y-87332399I0J-249999D01*
G01*
X147454000Y-88232401D01*
G75*
G02*
X147204001Y-88482400I-249999J0D01*
G01*
X146553999Y-88482400D01*
G75*
G02*
X146304000Y-88232401I0J249999D01*
G01*
G37*
%TD*%
%TO.C,R56*%
G36*
G01*
X148354000Y-85184401D02*
X148354000Y-84284399D01*
G75*
G02*
X148603999Y-84034400I249999J0D01*
G01*
X149254001Y-84034400D01*
G75*
G02*
X149504000Y-84284399I0J-249999D01*
G01*
X149504000Y-85184401D01*
G75*
G02*
X149254001Y-85434400I-249999J0D01*
G01*
X148603999Y-85434400D01*
G75*
G02*
X148354000Y-85184401I0J249999D01*
G01*
G37*
G36*
G01*
X146304000Y-85184401D02*
X146304000Y-84284399D01*
G75*
G02*
X146553999Y-84034400I249999J0D01*
G01*
X147204001Y-84034400D01*
G75*
G02*
X147454000Y-84284399I0J-249999D01*
G01*
X147454000Y-85184401D01*
G75*
G02*
X147204001Y-85434400I-249999J0D01*
G01*
X146553999Y-85434400D01*
G75*
G02*
X146304000Y-85184401I0J249999D01*
G01*
G37*
%TD*%
D10*
%TO.C,IC2*%
X161556000Y-116154000D03*
X160922000Y-116154000D03*
X160286000Y-116154000D03*
X159652000Y-116154000D03*
X159016000Y-116154000D03*
X158382000Y-116154000D03*
X157746000Y-116154000D03*
X157112000Y-116154000D03*
X156476000Y-116154000D03*
X155842000Y-116154000D03*
X155206000Y-116154000D03*
X154572000Y-116154000D03*
X153936000Y-116154000D03*
X153302000Y-116154000D03*
X152666000Y-116154000D03*
X152032000Y-116154000D03*
X151396000Y-116154000D03*
X150762000Y-116154000D03*
X150126000Y-116154000D03*
X149492000Y-116154000D03*
X148856000Y-116154000D03*
X148222000Y-116154000D03*
X147586000Y-116154000D03*
X146952000Y-116154000D03*
X146316000Y-116154000D03*
X145682000Y-116154000D03*
X145046000Y-116154000D03*
X144412000Y-116154000D03*
X144412000Y-106654000D03*
X145046000Y-106654000D03*
X145682000Y-106654000D03*
X146316000Y-106654000D03*
X146952000Y-106654000D03*
X147586000Y-106654000D03*
X148222000Y-106654000D03*
X148856000Y-106654000D03*
X149492000Y-106654000D03*
X150126000Y-106654000D03*
X150762000Y-106654000D03*
X151396000Y-106654000D03*
X152032000Y-106654000D03*
X152666000Y-106654000D03*
X153302000Y-106654000D03*
X153936000Y-106654000D03*
X154572000Y-106654000D03*
X155206000Y-106654000D03*
X155842000Y-106654000D03*
X156476000Y-106654000D03*
X157112000Y-106654000D03*
X157746000Y-106654000D03*
X158382000Y-106654000D03*
X159016000Y-106654000D03*
X159652000Y-106654000D03*
X160286000Y-106654000D03*
X160922000Y-106654000D03*
X161556000Y-106654000D03*
%TD*%
%TO.C,C58*%
G36*
G01*
X139004460Y-68473741D02*
X139004460Y-67573739D01*
G75*
G02*
X139254459Y-67323740I249999J0D01*
G01*
X139904461Y-67323740D01*
G75*
G02*
X140154460Y-67573739I0J-249999D01*
G01*
X140154460Y-68473741D01*
G75*
G02*
X139904461Y-68723740I-249999J0D01*
G01*
X139254459Y-68723740D01*
G75*
G02*
X139004460Y-68473741I0J249999D01*
G01*
G37*
G36*
G01*
X136954460Y-68473741D02*
X136954460Y-67573739D01*
G75*
G02*
X137204459Y-67323740I249999J0D01*
G01*
X137854461Y-67323740D01*
G75*
G02*
X138104460Y-67573739I0J-249999D01*
G01*
X138104460Y-68473741D01*
G75*
G02*
X137854461Y-68723740I-249999J0D01*
G01*
X137204459Y-68723740D01*
G75*
G02*
X136954460Y-68473741I0J249999D01*
G01*
G37*
%TD*%
%TO.C,C59*%
G36*
G01*
X137545659Y-80335540D02*
X138445661Y-80335540D01*
G75*
G02*
X138695660Y-80585539I0J-249999D01*
G01*
X138695660Y-81235541D01*
G75*
G02*
X138445661Y-81485540I-249999J0D01*
G01*
X137545659Y-81485540D01*
G75*
G02*
X137295660Y-81235541I0J249999D01*
G01*
X137295660Y-80585539D01*
G75*
G02*
X137545659Y-80335540I249999J0D01*
G01*
G37*
G36*
G01*
X137545659Y-78285540D02*
X138445661Y-78285540D01*
G75*
G02*
X138695660Y-78535539I0J-249999D01*
G01*
X138695660Y-79185541D01*
G75*
G02*
X138445661Y-79435540I-249999J0D01*
G01*
X137545659Y-79435540D01*
G75*
G02*
X137295660Y-79185541I0J249999D01*
G01*
X137295660Y-78535539D01*
G75*
G02*
X137545659Y-78285540I249999J0D01*
G01*
G37*
%TD*%
%TO.C,C60*%
G36*
G01*
X105020959Y-118816540D02*
X105920961Y-118816540D01*
G75*
G02*
X106170960Y-119066539I0J-249999D01*
G01*
X106170960Y-119716541D01*
G75*
G02*
X105920961Y-119966540I-249999J0D01*
G01*
X105020959Y-119966540D01*
G75*
G02*
X104770960Y-119716541I0J249999D01*
G01*
X104770960Y-119066539D01*
G75*
G02*
X105020959Y-118816540I249999J0D01*
G01*
G37*
G36*
G01*
X105020959Y-116766540D02*
X105920961Y-116766540D01*
G75*
G02*
X106170960Y-117016539I0J-249999D01*
G01*
X106170960Y-117666541D01*
G75*
G02*
X105920961Y-117916540I-249999J0D01*
G01*
X105020959Y-117916540D01*
G75*
G02*
X104770960Y-117666541I0J249999D01*
G01*
X104770960Y-117016539D01*
G75*
G02*
X105020959Y-116766540I249999J0D01*
G01*
G37*
%TD*%
%TO.C,D4*%
G36*
G01*
X154999500Y-69906400D02*
X154524500Y-69906400D01*
G75*
G02*
X154287000Y-69668900I0J237500D01*
G01*
X154287000Y-69093900D01*
G75*
G02*
X154524500Y-68856400I237500J0D01*
G01*
X154999500Y-68856400D01*
G75*
G02*
X155237000Y-69093900I0J-237500D01*
G01*
X155237000Y-69668900D01*
G75*
G02*
X154999500Y-69906400I-237500J0D01*
G01*
G37*
G36*
G01*
X154999500Y-71656400D02*
X154524500Y-71656400D01*
G75*
G02*
X154287000Y-71418900I0J237500D01*
G01*
X154287000Y-70843900D01*
G75*
G02*
X154524500Y-70606400I237500J0D01*
G01*
X154999500Y-70606400D01*
G75*
G02*
X155237000Y-70843900I0J-237500D01*
G01*
X155237000Y-71418900D01*
G75*
G02*
X154999500Y-71656400I-237500J0D01*
G01*
G37*
%TD*%
D11*
%TO.C,L1*%
X169397460Y-140180000D03*
X169397460Y-130380000D03*
%TD*%
%TO.C,L2*%
X156297460Y-140180000D03*
X156297460Y-130380000D03*
%TD*%
%TO.C,L3*%
X143197460Y-140202540D03*
X143197460Y-130402540D03*
%TD*%
%TO.C,L4*%
X130124000Y-140180000D03*
X130124000Y-130380000D03*
%TD*%
D12*
%TO.C,U1*%
X91414200Y-87020400D03*
D13*
X97714200Y-89320400D03*
X97714200Y-87020400D03*
X97714200Y-84720400D03*
%TD*%
D14*
%TO.C,U2*%
X137094000Y-85706800D03*
D15*
X134794000Y-92006800D03*
X137094000Y-92006800D03*
X139394000Y-92006800D03*
%TD*%
%TO.C,U3*%
G36*
G01*
X101954000Y-75821400D02*
X101954000Y-76121400D01*
G75*
G02*
X101804000Y-76271400I-150000J0D01*
G01*
X100154000Y-76271400D01*
G75*
G02*
X100004000Y-76121400I0J150000D01*
G01*
X100004000Y-75821400D01*
G75*
G02*
X100154000Y-75671400I150000J0D01*
G01*
X101804000Y-75671400D01*
G75*
G02*
X101954000Y-75821400I0J-150000D01*
G01*
G37*
G36*
G01*
X101954000Y-74551400D02*
X101954000Y-74851400D01*
G75*
G02*
X101804000Y-75001400I-150000J0D01*
G01*
X100154000Y-75001400D01*
G75*
G02*
X100004000Y-74851400I0J150000D01*
G01*
X100004000Y-74551400D01*
G75*
G02*
X100154000Y-74401400I150000J0D01*
G01*
X101804000Y-74401400D01*
G75*
G02*
X101954000Y-74551400I0J-150000D01*
G01*
G37*
G36*
G01*
X101954000Y-73281400D02*
X101954000Y-73581400D01*
G75*
G02*
X101804000Y-73731400I-150000J0D01*
G01*
X100154000Y-73731400D01*
G75*
G02*
X100004000Y-73581400I0J150000D01*
G01*
X100004000Y-73281400D01*
G75*
G02*
X100154000Y-73131400I150000J0D01*
G01*
X101804000Y-73131400D01*
G75*
G02*
X101954000Y-73281400I0J-150000D01*
G01*
G37*
G36*
G01*
X101954000Y-72011400D02*
X101954000Y-72311400D01*
G75*
G02*
X101804000Y-72461400I-150000J0D01*
G01*
X100154000Y-72461400D01*
G75*
G02*
X100004000Y-72311400I0J150000D01*
G01*
X100004000Y-72011400D01*
G75*
G02*
X100154000Y-71861400I150000J0D01*
G01*
X101804000Y-71861400D01*
G75*
G02*
X101954000Y-72011400I0J-150000D01*
G01*
G37*
G36*
G01*
X106904000Y-72011400D02*
X106904000Y-72311400D01*
G75*
G02*
X106754000Y-72461400I-150000J0D01*
G01*
X105104000Y-72461400D01*
G75*
G02*
X104954000Y-72311400I0J150000D01*
G01*
X104954000Y-72011400D01*
G75*
G02*
X105104000Y-71861400I150000J0D01*
G01*
X106754000Y-71861400D01*
G75*
G02*
X106904000Y-72011400I0J-150000D01*
G01*
G37*
G36*
G01*
X106904000Y-73281400D02*
X106904000Y-73581400D01*
G75*
G02*
X106754000Y-73731400I-150000J0D01*
G01*
X105104000Y-73731400D01*
G75*
G02*
X104954000Y-73581400I0J150000D01*
G01*
X104954000Y-73281400D01*
G75*
G02*
X105104000Y-73131400I150000J0D01*
G01*
X106754000Y-73131400D01*
G75*
G02*
X106904000Y-73281400I0J-150000D01*
G01*
G37*
G36*
G01*
X106904000Y-74551400D02*
X106904000Y-74851400D01*
G75*
G02*
X106754000Y-75001400I-150000J0D01*
G01*
X105104000Y-75001400D01*
G75*
G02*
X104954000Y-74851400I0J150000D01*
G01*
X104954000Y-74551400D01*
G75*
G02*
X105104000Y-74401400I150000J0D01*
G01*
X106754000Y-74401400D01*
G75*
G02*
X106904000Y-74551400I0J-150000D01*
G01*
G37*
G36*
G01*
X106904000Y-75821400D02*
X106904000Y-76121400D01*
G75*
G02*
X106754000Y-76271400I-150000J0D01*
G01*
X105104000Y-76271400D01*
G75*
G02*
X104954000Y-76121400I0J150000D01*
G01*
X104954000Y-75821400D01*
G75*
G02*
X105104000Y-75671400I150000J0D01*
G01*
X106754000Y-75671400D01*
G75*
G02*
X106904000Y-75821400I0J-150000D01*
G01*
G37*
%TD*%
%TO.C,U4*%
G36*
G01*
X89508200Y-75821400D02*
X89508200Y-76121400D01*
G75*
G02*
X89358200Y-76271400I-150000J0D01*
G01*
X87708200Y-76271400D01*
G75*
G02*
X87558200Y-76121400I0J150000D01*
G01*
X87558200Y-75821400D01*
G75*
G02*
X87708200Y-75671400I150000J0D01*
G01*
X89358200Y-75671400D01*
G75*
G02*
X89508200Y-75821400I0J-150000D01*
G01*
G37*
G36*
G01*
X89508200Y-74551400D02*
X89508200Y-74851400D01*
G75*
G02*
X89358200Y-75001400I-150000J0D01*
G01*
X87708200Y-75001400D01*
G75*
G02*
X87558200Y-74851400I0J150000D01*
G01*
X87558200Y-74551400D01*
G75*
G02*
X87708200Y-74401400I150000J0D01*
G01*
X89358200Y-74401400D01*
G75*
G02*
X89508200Y-74551400I0J-150000D01*
G01*
G37*
G36*
G01*
X89508200Y-73281400D02*
X89508200Y-73581400D01*
G75*
G02*
X89358200Y-73731400I-150000J0D01*
G01*
X87708200Y-73731400D01*
G75*
G02*
X87558200Y-73581400I0J150000D01*
G01*
X87558200Y-73281400D01*
G75*
G02*
X87708200Y-73131400I150000J0D01*
G01*
X89358200Y-73131400D01*
G75*
G02*
X89508200Y-73281400I0J-150000D01*
G01*
G37*
G36*
G01*
X89508200Y-72011400D02*
X89508200Y-72311400D01*
G75*
G02*
X89358200Y-72461400I-150000J0D01*
G01*
X87708200Y-72461400D01*
G75*
G02*
X87558200Y-72311400I0J150000D01*
G01*
X87558200Y-72011400D01*
G75*
G02*
X87708200Y-71861400I150000J0D01*
G01*
X89358200Y-71861400D01*
G75*
G02*
X89508200Y-72011400I0J-150000D01*
G01*
G37*
G36*
G01*
X94458200Y-72011400D02*
X94458200Y-72311400D01*
G75*
G02*
X94308200Y-72461400I-150000J0D01*
G01*
X92658200Y-72461400D01*
G75*
G02*
X92508200Y-72311400I0J150000D01*
G01*
X92508200Y-72011400D01*
G75*
G02*
X92658200Y-71861400I150000J0D01*
G01*
X94308200Y-71861400D01*
G75*
G02*
X94458200Y-72011400I0J-150000D01*
G01*
G37*
G36*
G01*
X94458200Y-73281400D02*
X94458200Y-73581400D01*
G75*
G02*
X94308200Y-73731400I-150000J0D01*
G01*
X92658200Y-73731400D01*
G75*
G02*
X92508200Y-73581400I0J150000D01*
G01*
X92508200Y-73281400D01*
G75*
G02*
X92658200Y-73131400I150000J0D01*
G01*
X94308200Y-73131400D01*
G75*
G02*
X94458200Y-73281400I0J-150000D01*
G01*
G37*
G36*
G01*
X94458200Y-74551400D02*
X94458200Y-74851400D01*
G75*
G02*
X94308200Y-75001400I-150000J0D01*
G01*
X92658200Y-75001400D01*
G75*
G02*
X92508200Y-74851400I0J150000D01*
G01*
X92508200Y-74551400D01*
G75*
G02*
X92658200Y-74401400I150000J0D01*
G01*
X94308200Y-74401400D01*
G75*
G02*
X94458200Y-74551400I0J-150000D01*
G01*
G37*
G36*
G01*
X94458200Y-75821400D02*
X94458200Y-76121400D01*
G75*
G02*
X94308200Y-76271400I-150000J0D01*
G01*
X92658200Y-76271400D01*
G75*
G02*
X92508200Y-76121400I0J150000D01*
G01*
X92508200Y-75821400D01*
G75*
G02*
X92658200Y-75671400I150000J0D01*
G01*
X94308200Y-75671400D01*
G75*
G02*
X94458200Y-75821400I0J-150000D01*
G01*
G37*
%TD*%
%TO.C,U9*%
G36*
G01*
X148897000Y-80646400D02*
X149197000Y-80646400D01*
G75*
G02*
X149347000Y-80796400I0J-150000D01*
G01*
X149347000Y-82446400D01*
G75*
G02*
X149197000Y-82596400I-150000J0D01*
G01*
X148897000Y-82596400D01*
G75*
G02*
X148747000Y-82446400I0J150000D01*
G01*
X148747000Y-80796400D01*
G75*
G02*
X148897000Y-80646400I150000J0D01*
G01*
G37*
G36*
G01*
X147627000Y-80646400D02*
X147927000Y-80646400D01*
G75*
G02*
X148077000Y-80796400I0J-150000D01*
G01*
X148077000Y-82446400D01*
G75*
G02*
X147927000Y-82596400I-150000J0D01*
G01*
X147627000Y-82596400D01*
G75*
G02*
X147477000Y-82446400I0J150000D01*
G01*
X147477000Y-80796400D01*
G75*
G02*
X147627000Y-80646400I150000J0D01*
G01*
G37*
G36*
G01*
X146357000Y-80646400D02*
X146657000Y-80646400D01*
G75*
G02*
X146807000Y-80796400I0J-150000D01*
G01*
X146807000Y-82446400D01*
G75*
G02*
X146657000Y-82596400I-150000J0D01*
G01*
X146357000Y-82596400D01*
G75*
G02*
X146207000Y-82446400I0J150000D01*
G01*
X146207000Y-80796400D01*
G75*
G02*
X146357000Y-80646400I150000J0D01*
G01*
G37*
G36*
G01*
X145087000Y-80646400D02*
X145387000Y-80646400D01*
G75*
G02*
X145537000Y-80796400I0J-150000D01*
G01*
X145537000Y-82446400D01*
G75*
G02*
X145387000Y-82596400I-150000J0D01*
G01*
X145087000Y-82596400D01*
G75*
G02*
X144937000Y-82446400I0J150000D01*
G01*
X144937000Y-80796400D01*
G75*
G02*
X145087000Y-80646400I150000J0D01*
G01*
G37*
G36*
G01*
X143817000Y-80646400D02*
X144117000Y-80646400D01*
G75*
G02*
X144267000Y-80796400I0J-150000D01*
G01*
X144267000Y-82446400D01*
G75*
G02*
X144117000Y-82596400I-150000J0D01*
G01*
X143817000Y-82596400D01*
G75*
G02*
X143667000Y-82446400I0J150000D01*
G01*
X143667000Y-80796400D01*
G75*
G02*
X143817000Y-80646400I150000J0D01*
G01*
G37*
G36*
G01*
X142547000Y-80646400D02*
X142847000Y-80646400D01*
G75*
G02*
X142997000Y-80796400I0J-150000D01*
G01*
X142997000Y-82446400D01*
G75*
G02*
X142847000Y-82596400I-150000J0D01*
G01*
X142547000Y-82596400D01*
G75*
G02*
X142397000Y-82446400I0J150000D01*
G01*
X142397000Y-80796400D01*
G75*
G02*
X142547000Y-80646400I150000J0D01*
G01*
G37*
G36*
G01*
X141277000Y-80646400D02*
X141577000Y-80646400D01*
G75*
G02*
X141727000Y-80796400I0J-150000D01*
G01*
X141727000Y-82446400D01*
G75*
G02*
X141577000Y-82596400I-150000J0D01*
G01*
X141277000Y-82596400D01*
G75*
G02*
X141127000Y-82446400I0J150000D01*
G01*
X141127000Y-80796400D01*
G75*
G02*
X141277000Y-80646400I150000J0D01*
G01*
G37*
G36*
G01*
X140007000Y-80646400D02*
X140307000Y-80646400D01*
G75*
G02*
X140457000Y-80796400I0J-150000D01*
G01*
X140457000Y-82446400D01*
G75*
G02*
X140307000Y-82596400I-150000J0D01*
G01*
X140007000Y-82596400D01*
G75*
G02*
X139857000Y-82446400I0J150000D01*
G01*
X139857000Y-80796400D01*
G75*
G02*
X140007000Y-80646400I150000J0D01*
G01*
G37*
G36*
G01*
X140007000Y-75696400D02*
X140307000Y-75696400D01*
G75*
G02*
X140457000Y-75846400I0J-150000D01*
G01*
X140457000Y-77496400D01*
G75*
G02*
X140307000Y-77646400I-150000J0D01*
G01*
X140007000Y-77646400D01*
G75*
G02*
X139857000Y-77496400I0J150000D01*
G01*
X139857000Y-75846400D01*
G75*
G02*
X140007000Y-75696400I150000J0D01*
G01*
G37*
G36*
G01*
X141277000Y-75696400D02*
X141577000Y-75696400D01*
G75*
G02*
X141727000Y-75846400I0J-150000D01*
G01*
X141727000Y-77496400D01*
G75*
G02*
X141577000Y-77646400I-150000J0D01*
G01*
X141277000Y-77646400D01*
G75*
G02*
X141127000Y-77496400I0J150000D01*
G01*
X141127000Y-75846400D01*
G75*
G02*
X141277000Y-75696400I150000J0D01*
G01*
G37*
G36*
G01*
X142547000Y-75696400D02*
X142847000Y-75696400D01*
G75*
G02*
X142997000Y-75846400I0J-150000D01*
G01*
X142997000Y-77496400D01*
G75*
G02*
X142847000Y-77646400I-150000J0D01*
G01*
X142547000Y-77646400D01*
G75*
G02*
X142397000Y-77496400I0J150000D01*
G01*
X142397000Y-75846400D01*
G75*
G02*
X142547000Y-75696400I150000J0D01*
G01*
G37*
G36*
G01*
X143817000Y-75696400D02*
X144117000Y-75696400D01*
G75*
G02*
X144267000Y-75846400I0J-150000D01*
G01*
X144267000Y-77496400D01*
G75*
G02*
X144117000Y-77646400I-150000J0D01*
G01*
X143817000Y-77646400D01*
G75*
G02*
X143667000Y-77496400I0J150000D01*
G01*
X143667000Y-75846400D01*
G75*
G02*
X143817000Y-75696400I150000J0D01*
G01*
G37*
G36*
G01*
X145087000Y-75696400D02*
X145387000Y-75696400D01*
G75*
G02*
X145537000Y-75846400I0J-150000D01*
G01*
X145537000Y-77496400D01*
G75*
G02*
X145387000Y-77646400I-150000J0D01*
G01*
X145087000Y-77646400D01*
G75*
G02*
X144937000Y-77496400I0J150000D01*
G01*
X144937000Y-75846400D01*
G75*
G02*
X145087000Y-75696400I150000J0D01*
G01*
G37*
G36*
G01*
X146357000Y-75696400D02*
X146657000Y-75696400D01*
G75*
G02*
X146807000Y-75846400I0J-150000D01*
G01*
X146807000Y-77496400D01*
G75*
G02*
X146657000Y-77646400I-150000J0D01*
G01*
X146357000Y-77646400D01*
G75*
G02*
X146207000Y-77496400I0J150000D01*
G01*
X146207000Y-75846400D01*
G75*
G02*
X146357000Y-75696400I150000J0D01*
G01*
G37*
G36*
G01*
X147627000Y-75696400D02*
X147927000Y-75696400D01*
G75*
G02*
X148077000Y-75846400I0J-150000D01*
G01*
X148077000Y-77496400D01*
G75*
G02*
X147927000Y-77646400I-150000J0D01*
G01*
X147627000Y-77646400D01*
G75*
G02*
X147477000Y-77496400I0J150000D01*
G01*
X147477000Y-75846400D01*
G75*
G02*
X147627000Y-75696400I150000J0D01*
G01*
G37*
G36*
G01*
X148897000Y-75696400D02*
X149197000Y-75696400D01*
G75*
G02*
X149347000Y-75846400I0J-150000D01*
G01*
X149347000Y-77496400D01*
G75*
G02*
X149197000Y-77646400I-150000J0D01*
G01*
X148897000Y-77646400D01*
G75*
G02*
X148747000Y-77496400I0J150000D01*
G01*
X148747000Y-75846400D01*
G75*
G02*
X148897000Y-75696400I150000J0D01*
G01*
G37*
%TD*%
D16*
%TO.C,J7*%
X153928000Y-63640500D03*
X153428000Y-63640500D03*
X152928000Y-63640500D03*
X152428000Y-63640500D03*
X151928000Y-63640500D03*
X151428000Y-63640500D03*
X150928000Y-63640500D03*
X150428000Y-63640500D03*
X149928000Y-63640500D03*
X149428000Y-63640500D03*
X148928000Y-63640500D03*
X148428000Y-63640500D03*
X147928000Y-63640500D03*
X147428000Y-63640500D03*
X146928000Y-63640500D03*
X146428000Y-63640500D03*
X145928000Y-63640500D03*
X145428000Y-63640500D03*
X144928000Y-63640500D03*
%TD*%
%TO.C,C19*%
G36*
G01*
X114180000Y-78950399D02*
X114180000Y-79850401D01*
G75*
G02*
X113930001Y-80100400I-249999J0D01*
G01*
X113279999Y-80100400D01*
G75*
G02*
X113030000Y-79850401I0J249999D01*
G01*
X113030000Y-78950399D01*
G75*
G02*
X113279999Y-78700400I249999J0D01*
G01*
X113930001Y-78700400D01*
G75*
G02*
X114180000Y-78950399I0J-249999D01*
G01*
G37*
G36*
G01*
X116230000Y-78950399D02*
X116230000Y-79850401D01*
G75*
G02*
X115980001Y-80100400I-249999J0D01*
G01*
X115329999Y-80100400D01*
G75*
G02*
X115080000Y-79850401I0J249999D01*
G01*
X115080000Y-78950399D01*
G75*
G02*
X115329999Y-78700400I249999J0D01*
G01*
X115980001Y-78700400D01*
G75*
G02*
X116230000Y-78950399I0J-249999D01*
G01*
G37*
%TD*%
%TO.C,R57*%
G36*
G01*
X108270461Y-122425040D02*
X107370459Y-122425040D01*
G75*
G02*
X107120460Y-122175041I0J249999D01*
G01*
X107120460Y-121525039D01*
G75*
G02*
X107370459Y-121275040I249999J0D01*
G01*
X108270461Y-121275040D01*
G75*
G02*
X108520460Y-121525039I0J-249999D01*
G01*
X108520460Y-122175041D01*
G75*
G02*
X108270461Y-122425040I-249999J0D01*
G01*
G37*
G36*
G01*
X108270461Y-124475040D02*
X107370459Y-124475040D01*
G75*
G02*
X107120460Y-124225041I0J249999D01*
G01*
X107120460Y-123575039D01*
G75*
G02*
X107370459Y-123325040I249999J0D01*
G01*
X108270461Y-123325040D01*
G75*
G02*
X108520460Y-123575039I0J-249999D01*
G01*
X108520460Y-124225041D01*
G75*
G02*
X108270461Y-124475040I-249999J0D01*
G01*
G37*
%TD*%
%TO.C,R58*%
G36*
G01*
X150755999Y-94432500D02*
X151656001Y-94432500D01*
G75*
G02*
X151906000Y-94682499I0J-249999D01*
G01*
X151906000Y-95332501D01*
G75*
G02*
X151656001Y-95582500I-249999J0D01*
G01*
X150755999Y-95582500D01*
G75*
G02*
X150506000Y-95332501I0J249999D01*
G01*
X150506000Y-94682499D01*
G75*
G02*
X150755999Y-94432500I249999J0D01*
G01*
G37*
G36*
G01*
X150755999Y-92382500D02*
X151656001Y-92382500D01*
G75*
G02*
X151906000Y-92632499I0J-249999D01*
G01*
X151906000Y-93282501D01*
G75*
G02*
X151656001Y-93532500I-249999J0D01*
G01*
X150755999Y-93532500D01*
G75*
G02*
X150506000Y-93282501I0J249999D01*
G01*
X150506000Y-92632499D01*
G75*
G02*
X150755999Y-92382500I249999J0D01*
G01*
G37*
%TD*%
D17*
%TO.C,D7*%
X152197000Y-81426900D03*
X152197000Y-84226900D03*
%TD*%
%TO.C,D8*%
X152270000Y-76032400D03*
X152270000Y-78832400D03*
%TD*%
D18*
%TO.C,Q6*%
X145670000Y-92595700D03*
X145670000Y-90695700D03*
X143570000Y-91645700D03*
%TD*%
%TO.C,R59*%
G36*
G01*
X130825660Y-103043141D02*
X130825660Y-102143139D01*
G75*
G02*
X131075659Y-101893140I249999J0D01*
G01*
X131725661Y-101893140D01*
G75*
G02*
X131975660Y-102143139I0J-249999D01*
G01*
X131975660Y-103043141D01*
G75*
G02*
X131725661Y-103293140I-249999J0D01*
G01*
X131075659Y-103293140D01*
G75*
G02*
X130825660Y-103043141I0J249999D01*
G01*
G37*
G36*
G01*
X128775660Y-103043141D02*
X128775660Y-102143139D01*
G75*
G02*
X129025659Y-101893140I249999J0D01*
G01*
X129675661Y-101893140D01*
G75*
G02*
X129925660Y-102143139I0J-249999D01*
G01*
X129925660Y-103043141D01*
G75*
G02*
X129675661Y-103293140I-249999J0D01*
G01*
X129025659Y-103293140D01*
G75*
G02*
X128775660Y-103043141I0J249999D01*
G01*
G37*
%TD*%
%TO.C,R60*%
G36*
G01*
X148783001Y-93532500D02*
X147882999Y-93532500D01*
G75*
G02*
X147633000Y-93282501I0J249999D01*
G01*
X147633000Y-92632499D01*
G75*
G02*
X147882999Y-92382500I249999J0D01*
G01*
X148783001Y-92382500D01*
G75*
G02*
X149033000Y-92632499I0J-249999D01*
G01*
X149033000Y-93282501D01*
G75*
G02*
X148783001Y-93532500I-249999J0D01*
G01*
G37*
G36*
G01*
X148783001Y-95582500D02*
X147882999Y-95582500D01*
G75*
G02*
X147633000Y-95332501I0J249999D01*
G01*
X147633000Y-94682499D01*
G75*
G02*
X147882999Y-94432500I249999J0D01*
G01*
X148783001Y-94432500D01*
G75*
G02*
X149033000Y-94682499I0J-249999D01*
G01*
X149033000Y-95332501D01*
G75*
G02*
X148783001Y-95582500I-249999J0D01*
G01*
G37*
%TD*%
%TO.C,C38*%
G36*
G01*
X109020000Y-84864401D02*
X109020000Y-83964399D01*
G75*
G02*
X109269999Y-83714400I249999J0D01*
G01*
X109920001Y-83714400D01*
G75*
G02*
X110170000Y-83964399I0J-249999D01*
G01*
X110170000Y-84864401D01*
G75*
G02*
X109920001Y-85114400I-249999J0D01*
G01*
X109269999Y-85114400D01*
G75*
G02*
X109020000Y-84864401I0J249999D01*
G01*
G37*
G36*
G01*
X106970000Y-84864401D02*
X106970000Y-83964399D01*
G75*
G02*
X107219999Y-83714400I249999J0D01*
G01*
X107870001Y-83714400D01*
G75*
G02*
X108120000Y-83964399I0J-249999D01*
G01*
X108120000Y-84864401D01*
G75*
G02*
X107870001Y-85114400I-249999J0D01*
G01*
X107219999Y-85114400D01*
G75*
G02*
X106970000Y-84864401I0J249999D01*
G01*
G37*
%TD*%
%TO.C,C1*%
G36*
G01*
X155835999Y-81120400D02*
X156736001Y-81120400D01*
G75*
G02*
X156986000Y-81370399I0J-249999D01*
G01*
X156986000Y-82020401D01*
G75*
G02*
X156736001Y-82270400I-249999J0D01*
G01*
X155835999Y-82270400D01*
G75*
G02*
X155586000Y-82020401I0J249999D01*
G01*
X155586000Y-81370399D01*
G75*
G02*
X155835999Y-81120400I249999J0D01*
G01*
G37*
G36*
G01*
X155835999Y-79070400D02*
X156736001Y-79070400D01*
G75*
G02*
X156986000Y-79320399I0J-249999D01*
G01*
X156986000Y-79970401D01*
G75*
G02*
X156736001Y-80220400I-249999J0D01*
G01*
X155835999Y-80220400D01*
G75*
G02*
X155586000Y-79970401I0J249999D01*
G01*
X155586000Y-79320399D01*
G75*
G02*
X155835999Y-79070400I249999J0D01*
G01*
G37*
%TD*%
%TO.C,C2*%
G36*
G01*
X156657461Y-84871140D02*
X155757459Y-84871140D01*
G75*
G02*
X155507460Y-84621141I0J249999D01*
G01*
X155507460Y-83971139D01*
G75*
G02*
X155757459Y-83721140I249999J0D01*
G01*
X156657461Y-83721140D01*
G75*
G02*
X156907460Y-83971139I0J-249999D01*
G01*
X156907460Y-84621141D01*
G75*
G02*
X156657461Y-84871140I-249999J0D01*
G01*
G37*
G36*
G01*
X156657461Y-86921140D02*
X155757459Y-86921140D01*
G75*
G02*
X155507460Y-86671141I0J249999D01*
G01*
X155507460Y-86021139D01*
G75*
G02*
X155757459Y-85771140I249999J0D01*
G01*
X156657461Y-85771140D01*
G75*
G02*
X156907460Y-86021139I0J-249999D01*
G01*
X156907460Y-86671141D01*
G75*
G02*
X156657461Y-86921140I-249999J0D01*
G01*
G37*
%TD*%
%TO.C,C3*%
G36*
G01*
X103927000Y-86888701D02*
X103927000Y-85988699D01*
G75*
G02*
X104176999Y-85738700I249999J0D01*
G01*
X104827001Y-85738700D01*
G75*
G02*
X105077000Y-85988699I0J-249999D01*
G01*
X105077000Y-86888701D01*
G75*
G02*
X104827001Y-87138700I-249999J0D01*
G01*
X104176999Y-87138700D01*
G75*
G02*
X103927000Y-86888701I0J249999D01*
G01*
G37*
G36*
G01*
X101877000Y-86888701D02*
X101877000Y-85988699D01*
G75*
G02*
X102126999Y-85738700I249999J0D01*
G01*
X102777001Y-85738700D01*
G75*
G02*
X103027000Y-85988699I0J-249999D01*
G01*
X103027000Y-86888701D01*
G75*
G02*
X102777001Y-87138700I-249999J0D01*
G01*
X102126999Y-87138700D01*
G75*
G02*
X101877000Y-86888701I0J249999D01*
G01*
G37*
%TD*%
%TO.C,C4*%
G36*
G01*
X154701660Y-89530341D02*
X154701660Y-88630339D01*
G75*
G02*
X154951659Y-88380340I249999J0D01*
G01*
X155601661Y-88380340D01*
G75*
G02*
X155851660Y-88630339I0J-249999D01*
G01*
X155851660Y-89530341D01*
G75*
G02*
X155601661Y-89780340I-249999J0D01*
G01*
X154951659Y-89780340D01*
G75*
G02*
X154701660Y-89530341I0J249999D01*
G01*
G37*
G36*
G01*
X152651660Y-89530341D02*
X152651660Y-88630339D01*
G75*
G02*
X152901659Y-88380340I249999J0D01*
G01*
X153551661Y-88380340D01*
G75*
G02*
X153801660Y-88630339I0J-249999D01*
G01*
X153801660Y-89530341D01*
G75*
G02*
X153551661Y-89780340I-249999J0D01*
G01*
X152901659Y-89780340D01*
G75*
G02*
X152651660Y-89530341I0J249999D01*
G01*
G37*
%TD*%
%TO.C,C7*%
G36*
G01*
X100879001Y-87995300D02*
X99978999Y-87995300D01*
G75*
G02*
X99729000Y-87745301I0J249999D01*
G01*
X99729000Y-87095299D01*
G75*
G02*
X99978999Y-86845300I249999J0D01*
G01*
X100879001Y-86845300D01*
G75*
G02*
X101129000Y-87095299I0J-249999D01*
G01*
X101129000Y-87745301D01*
G75*
G02*
X100879001Y-87995300I-249999J0D01*
G01*
G37*
G36*
G01*
X100879001Y-90045300D02*
X99978999Y-90045300D01*
G75*
G02*
X99729000Y-89795301I0J249999D01*
G01*
X99729000Y-89145299D01*
G75*
G02*
X99978999Y-88895300I249999J0D01*
G01*
X100879001Y-88895300D01*
G75*
G02*
X101129000Y-89145299I0J-249999D01*
G01*
X101129000Y-89795301D01*
G75*
G02*
X100879001Y-90045300I-249999J0D01*
G01*
G37*
%TD*%
%TO.C,C8*%
G36*
G01*
X152026000Y-86062399D02*
X152026000Y-86962401D01*
G75*
G02*
X151776001Y-87212400I-249999J0D01*
G01*
X151125999Y-87212400D01*
G75*
G02*
X150876000Y-86962401I0J249999D01*
G01*
X150876000Y-86062399D01*
G75*
G02*
X151125999Y-85812400I249999J0D01*
G01*
X151776001Y-85812400D01*
G75*
G02*
X152026000Y-86062399I0J-249999D01*
G01*
G37*
G36*
G01*
X154076000Y-86062399D02*
X154076000Y-86962401D01*
G75*
G02*
X153826001Y-87212400I-249999J0D01*
G01*
X153175999Y-87212400D01*
G75*
G02*
X152926000Y-86962401I0J249999D01*
G01*
X152926000Y-86062399D01*
G75*
G02*
X153175999Y-85812400I249999J0D01*
G01*
X153826001Y-85812400D01*
G75*
G02*
X154076000Y-86062399I0J-249999D01*
G01*
G37*
%TD*%
%TO.C,C10*%
G36*
G01*
X88018200Y-80982399D02*
X88018200Y-81882401D01*
G75*
G02*
X87768201Y-82132400I-249999J0D01*
G01*
X87118199Y-82132400D01*
G75*
G02*
X86868200Y-81882401I0J249999D01*
G01*
X86868200Y-80982399D01*
G75*
G02*
X87118199Y-80732400I249999J0D01*
G01*
X87768201Y-80732400D01*
G75*
G02*
X88018200Y-80982399I0J-249999D01*
G01*
G37*
G36*
G01*
X90068200Y-80982399D02*
X90068200Y-81882401D01*
G75*
G02*
X89818201Y-82132400I-249999J0D01*
G01*
X89168199Y-82132400D01*
G75*
G02*
X88918200Y-81882401I0J249999D01*
G01*
X88918200Y-80982399D01*
G75*
G02*
X89168199Y-80732400I249999J0D01*
G01*
X89818201Y-80732400D01*
G75*
G02*
X90068200Y-80982399I0J-249999D01*
G01*
G37*
%TD*%
%TO.C,C11*%
G36*
G01*
X100946799Y-80312480D02*
X101846801Y-80312480D01*
G75*
G02*
X102096800Y-80562479I0J-249999D01*
G01*
X102096800Y-81212481D01*
G75*
G02*
X101846801Y-81462480I-249999J0D01*
G01*
X100946799Y-81462480D01*
G75*
G02*
X100696800Y-81212481I0J249999D01*
G01*
X100696800Y-80562479D01*
G75*
G02*
X100946799Y-80312480I249999J0D01*
G01*
G37*
G36*
G01*
X100946799Y-78262480D02*
X101846801Y-78262480D01*
G75*
G02*
X102096800Y-78512479I0J-249999D01*
G01*
X102096800Y-79162481D01*
G75*
G02*
X101846801Y-79412480I-249999J0D01*
G01*
X100946799Y-79412480D01*
G75*
G02*
X100696800Y-79162481I0J249999D01*
G01*
X100696800Y-78512479D01*
G75*
G02*
X100946799Y-78262480I249999J0D01*
G01*
G37*
%TD*%
%TO.C,C12*%
G36*
G01*
X88018200Y-78188399D02*
X88018200Y-79088401D01*
G75*
G02*
X87768201Y-79338400I-249999J0D01*
G01*
X87118199Y-79338400D01*
G75*
G02*
X86868200Y-79088401I0J249999D01*
G01*
X86868200Y-78188399D01*
G75*
G02*
X87118199Y-77938400I249999J0D01*
G01*
X87768201Y-77938400D01*
G75*
G02*
X88018200Y-78188399I0J-249999D01*
G01*
G37*
G36*
G01*
X90068200Y-78188399D02*
X90068200Y-79088401D01*
G75*
G02*
X89818201Y-79338400I-249999J0D01*
G01*
X89168199Y-79338400D01*
G75*
G02*
X88918200Y-79088401I0J249999D01*
G01*
X88918200Y-78188399D01*
G75*
G02*
X89168199Y-77938400I249999J0D01*
G01*
X89818201Y-77938400D01*
G75*
G02*
X90068200Y-78188399I0J-249999D01*
G01*
G37*
%TD*%
%TO.C,C13*%
G36*
G01*
X87510200Y-69298399D02*
X87510200Y-70198401D01*
G75*
G02*
X87260201Y-70448400I-249999J0D01*
G01*
X86610199Y-70448400D01*
G75*
G02*
X86360200Y-70198401I0J249999D01*
G01*
X86360200Y-69298399D01*
G75*
G02*
X86610199Y-69048400I249999J0D01*
G01*
X87260201Y-69048400D01*
G75*
G02*
X87510200Y-69298399I0J-249999D01*
G01*
G37*
G36*
G01*
X89560200Y-69298399D02*
X89560200Y-70198401D01*
G75*
G02*
X89310201Y-70448400I-249999J0D01*
G01*
X88660199Y-70448400D01*
G75*
G02*
X88410200Y-70198401I0J249999D01*
G01*
X88410200Y-69298399D01*
G75*
G02*
X88660199Y-69048400I249999J0D01*
G01*
X89310201Y-69048400D01*
G75*
G02*
X89560200Y-69298399I0J-249999D01*
G01*
G37*
%TD*%
%TO.C,C14*%
G36*
G01*
X103740799Y-80312480D02*
X104640801Y-80312480D01*
G75*
G02*
X104890800Y-80562479I0J-249999D01*
G01*
X104890800Y-81212481D01*
G75*
G02*
X104640801Y-81462480I-249999J0D01*
G01*
X103740799Y-81462480D01*
G75*
G02*
X103490800Y-81212481I0J249999D01*
G01*
X103490800Y-80562479D01*
G75*
G02*
X103740799Y-80312480I249999J0D01*
G01*
G37*
G36*
G01*
X103740799Y-78262480D02*
X104640801Y-78262480D01*
G75*
G02*
X104890800Y-78512479I0J-249999D01*
G01*
X104890800Y-79162481D01*
G75*
G02*
X104640801Y-79412480I-249999J0D01*
G01*
X103740799Y-79412480D01*
G75*
G02*
X103490800Y-79162481I0J249999D01*
G01*
X103490800Y-78512479D01*
G75*
G02*
X103740799Y-78262480I249999J0D01*
G01*
G37*
%TD*%
%TO.C,C15*%
G36*
G01*
X98940200Y-69298399D02*
X98940200Y-70198401D01*
G75*
G02*
X98690201Y-70448400I-249999J0D01*
G01*
X98040199Y-70448400D01*
G75*
G02*
X97790200Y-70198401I0J249999D01*
G01*
X97790200Y-69298399D01*
G75*
G02*
X98040199Y-69048400I249999J0D01*
G01*
X98690201Y-69048400D01*
G75*
G02*
X98940200Y-69298399I0J-249999D01*
G01*
G37*
G36*
G01*
X100990200Y-69298399D02*
X100990200Y-70198401D01*
G75*
G02*
X100740201Y-70448400I-249999J0D01*
G01*
X100090199Y-70448400D01*
G75*
G02*
X99840200Y-70198401I0J249999D01*
G01*
X99840200Y-69298399D01*
G75*
G02*
X100090199Y-69048400I249999J0D01*
G01*
X100740201Y-69048400D01*
G75*
G02*
X100990200Y-69298399I0J-249999D01*
G01*
G37*
%TD*%
%TO.C,C16*%
G36*
G01*
X97185059Y-78633740D02*
X98085061Y-78633740D01*
G75*
G02*
X98335060Y-78883739I0J-249999D01*
G01*
X98335060Y-79533741D01*
G75*
G02*
X98085061Y-79783740I-249999J0D01*
G01*
X97185059Y-79783740D01*
G75*
G02*
X96935060Y-79533741I0J249999D01*
G01*
X96935060Y-78883739D01*
G75*
G02*
X97185059Y-78633740I249999J0D01*
G01*
G37*
G36*
G01*
X97185059Y-76583740D02*
X98085061Y-76583740D01*
G75*
G02*
X98335060Y-76833739I0J-249999D01*
G01*
X98335060Y-77483741D01*
G75*
G02*
X98085061Y-77733740I-249999J0D01*
G01*
X97185059Y-77733740D01*
G75*
G02*
X96935060Y-77483741I0J249999D01*
G01*
X96935060Y-76833739D01*
G75*
G02*
X97185059Y-76583740I249999J0D01*
G01*
G37*
%TD*%
%TO.C,C36*%
G36*
G01*
X133770999Y-117567000D02*
X134671001Y-117567000D01*
G75*
G02*
X134921000Y-117816999I0J-249999D01*
G01*
X134921000Y-118467001D01*
G75*
G02*
X134671001Y-118717000I-249999J0D01*
G01*
X133770999Y-118717000D01*
G75*
G02*
X133521000Y-118467001I0J249999D01*
G01*
X133521000Y-117816999D01*
G75*
G02*
X133770999Y-117567000I249999J0D01*
G01*
G37*
G36*
G01*
X133770999Y-115517000D02*
X134671001Y-115517000D01*
G75*
G02*
X134921000Y-115766999I0J-249999D01*
G01*
X134921000Y-116417001D01*
G75*
G02*
X134671001Y-116667000I-249999J0D01*
G01*
X133770999Y-116667000D01*
G75*
G02*
X133521000Y-116417001I0J249999D01*
G01*
X133521000Y-115766999D01*
G75*
G02*
X133770999Y-115517000I249999J0D01*
G01*
G37*
%TD*%
D19*
%TO.C,IC1*%
X115690000Y-82782400D03*
X116190000Y-82782400D03*
X116690000Y-82782400D03*
X117190000Y-82782400D03*
X117690000Y-82782400D03*
X118190000Y-82782400D03*
X118690000Y-82782400D03*
X119190000Y-82782400D03*
X119690000Y-82782400D03*
X120190000Y-82782400D03*
X120690000Y-82782400D03*
X121190000Y-82782400D03*
D20*
X122678000Y-84270400D03*
X122678000Y-84770400D03*
X122678000Y-85270400D03*
X122678000Y-85770400D03*
X122678000Y-86270400D03*
X122678000Y-86770400D03*
X122678000Y-87270400D03*
X122678000Y-87770400D03*
X122678000Y-88270400D03*
X122678000Y-88770400D03*
X122678000Y-89270400D03*
X122678000Y-89770400D03*
D19*
X121190000Y-91258400D03*
X120690000Y-91258400D03*
X120190000Y-91258400D03*
X119690000Y-91258400D03*
X119190000Y-91258400D03*
X118690000Y-91258400D03*
X118190000Y-91258400D03*
X117690000Y-91258400D03*
X117190000Y-91258400D03*
X116690000Y-91258400D03*
X116190000Y-91258400D03*
X115690000Y-91258400D03*
D20*
X114202000Y-89770400D03*
X114202000Y-89270400D03*
X114202000Y-88770400D03*
X114202000Y-88270400D03*
X114202000Y-87770400D03*
X114202000Y-87270400D03*
X114202000Y-86770400D03*
X114202000Y-86270400D03*
X114202000Y-85770400D03*
X114202000Y-85270400D03*
X114202000Y-84770400D03*
X114202000Y-84270400D03*
%TD*%
D21*
%TO.C,D3*%
X130690860Y-91556740D03*
X130690860Y-89956740D03*
X131990860Y-89956740D03*
X131990860Y-91556740D03*
%TD*%
%TO.C,D2*%
G36*
G01*
X83155800Y-87081820D02*
X82680800Y-87081820D01*
G75*
G02*
X82443300Y-86844320I0J237500D01*
G01*
X82443300Y-86269320D01*
G75*
G02*
X82680800Y-86031820I237500J0D01*
G01*
X83155800Y-86031820D01*
G75*
G02*
X83393300Y-86269320I0J-237500D01*
G01*
X83393300Y-86844320D01*
G75*
G02*
X83155800Y-87081820I-237500J0D01*
G01*
G37*
G36*
G01*
X83155800Y-85331820D02*
X82680800Y-85331820D01*
G75*
G02*
X82443300Y-85094320I0J237500D01*
G01*
X82443300Y-84519320D01*
G75*
G02*
X82680800Y-84281820I237500J0D01*
G01*
X83155800Y-84281820D01*
G75*
G02*
X83393300Y-84519320I0J-237500D01*
G01*
X83393300Y-85094320D01*
G75*
G02*
X83155800Y-85331820I-237500J0D01*
G01*
G37*
%TD*%
%TO.C,R1*%
G36*
G01*
X82491159Y-87736880D02*
X83391161Y-87736880D01*
G75*
G02*
X83641160Y-87986879I0J-249999D01*
G01*
X83641160Y-88636881D01*
G75*
G02*
X83391161Y-88886880I-249999J0D01*
G01*
X82491159Y-88886880D01*
G75*
G02*
X82241160Y-88636881I0J249999D01*
G01*
X82241160Y-87986879D01*
G75*
G02*
X82491159Y-87736880I249999J0D01*
G01*
G37*
G36*
G01*
X82491159Y-89786880D02*
X83391161Y-89786880D01*
G75*
G02*
X83641160Y-90036879I0J-249999D01*
G01*
X83641160Y-90686881D01*
G75*
G02*
X83391161Y-90936880I-249999J0D01*
G01*
X82491159Y-90936880D01*
G75*
G02*
X82241160Y-90686881I0J249999D01*
G01*
X82241160Y-90036879D01*
G75*
G02*
X82491159Y-89786880I249999J0D01*
G01*
G37*
%TD*%
M02*
