M48
; DRILL file {KiCad (5.1.6-0-10_14)} date Saturday, July 11, 2020 at 12:21:03 AM
; FORMAT={-:-/ absolute / metric / decimal}
; #@! TF.CreationDate,2020-07-11T00:21:03+09:00
; #@! TF.GenerationSoftware,Kicad,Pcbnew,(5.1.6-0-10_14)
FMAT,2
METRIC
T1C0.400
T2C0.500
T3C0.600
T4C0.700
T5C0.800
T6C0.870
T7C1.000
T8C1.100
T9C1.200
T10C1.300
T11C1.500
T12C1.520
T13C1.800
T14C1.923
T15C2.000
T16C2.500
T17C3.200
T18C0.300
T19C1.600
T20C1.800
T21C2.500
T22C3.200
%
G90
G05
T1
X78.803Y-93.477
X79.436Y-113.414
X79.69Y-104.397
X80.515Y-114.493
X84.325Y-116.335
X90.521Y-122.53
X90.675Y-125.288
X91.539Y-72.545
X93.774Y-88.522
X95.146Y-88.522
X95.753Y-87.02
X96.83Y-68.476
X99.565Y-116.208
X99.591Y-79.2
X99.596Y-114.229
X102.169Y-114.747
X102.921Y-90.991
X103.477Y-72.926
X105.712Y-87.76
X105.821Y-122.603
X106.982Y-92.484
X109.167Y-90.046
X109.662Y-119.319
X111.054Y-84.414
X111.059Y-123.955
X111.224Y-89.36
X112.556Y-95.235
X112.835Y-89.27
X113.18Y-81.587
X115.767Y-71.303
X115.801Y-84.635
X116.492Y-98.953
X116.964Y-76.888
X116.964Y-79.428
X117.249Y-80.698
X117.297Y-84.603
X118.354Y-98.87
X118.819Y-89.36
X119.233Y-87.768
X119.256Y-85.941
X119.497Y-79.303
X120.157Y-98.844
X120.63Y-84.988
X120.647Y-89.233
X121.152Y-74.626
X121.663Y-92.459
X122.044Y-81.13
X122.238Y-98.777
X123.289Y-72.24
X124.356Y-80.749
X124.356Y-67.389
X124.356Y-90.172
X125.118Y-84.356
X126.642Y-80.673
X128.293Y-96.599
X128.684Y-92.608
X128.826Y-94.897
X129.233Y-90.046
X129.859Y-89.063
X130.655Y-97.691
X131.214Y-94.11
X132.191Y-96.04
X132.636Y-118.359
X132.654Y-120.035
X133.584Y-74.033
X134.239Y-120.053
X134.391Y-79.149
X134.541Y-95.964
X134.892Y-93.644
X135.597Y-102.803
X136.276Y-118.397
X136.276Y-120.018
X137.094Y-93.856
X137.157Y-85.6
X137.157Y-89.864
X138.133Y-119.946
X138.478Y-102.73
X139.276Y-123.193
X139.38Y-93.856
X139.774Y-119.916
X140.134Y-118.359
X140.157Y-74.874
X140.449Y-79.649
X140.692Y-88.967
X140.81Y-86.733
X141.607Y-74.435
X141.697Y-119.903
X142.921Y-105.169
X143.02Y-106.253
X143.236Y-118.377
X143.253Y-97.716
X143.464Y-107.34
X143.894Y-105.25
X144.191Y-118.087
X144.991Y-74.755
X145.692Y-102.974
X146.012Y-114.28
X146.494Y-74.907
X146.494Y-113.454
X146.972Y-114.28
X146.99Y-104.32
X147.071Y-123.802
X147.485Y-113.454
X147.963Y-114.297
X148.443Y-113.454
X148.497Y-90.703
X148.513Y-121.09
X148.74Y-122.166
X148.892Y-114.323
X149.097Y-101.303
X149.116Y-79.639
X149.197Y-99.603
X149.382Y-113.454
X149.827Y-114.31
X149.897Y-89.203
X150.123Y-98.912
X150.162Y-100.578
X150.304Y-113.454
X150.325Y-103.8
X150.772Y-108.257
X150.785Y-114.28
X150.846Y-104.866
X151.178Y-96.37
X151.234Y-113.454
X151.254Y-91.493
X151.348Y-103.977
X151.704Y-114.31
X151.907Y-104.879
X151.961Y-122.535
X152.016Y-108.27
X154.071Y-79.192
X154.938Y-108.207
X154.976Y-104.508
X154.997Y-103.303
X155.204Y-114.323
X155.506Y-117.889
X155.687Y-113.457
X156.169Y-114.297
X156.66Y-113.457
X157.124Y-114.308
X157.127Y-117.973
X157.617Y-113.457
X158.036Y-118.349
X158.09Y-114.282
X158.399Y-122.753
X158.56Y-113.457
X158.984Y-118.011
X159.004Y-114.28
X159.454Y-113.457
X159.586Y-118.849
X159.893Y-114.292
X161.541Y-104.905
X162.113Y-104.079
X162.621Y-104.905
X162.631Y-105.877
X163.302Y-121.112
X163.342Y-118.095
X164.97Y-119.573
X164.998Y-121.14
X166.771Y-121.237
X168.46Y-121.227
X168.471Y-119.708
T2
X152.42Y-73.393
X152.397Y-70.487
X159.571Y-70.726
X160.274Y-69.029
X160.274Y-72.423
X161.971Y-68.326
X161.971Y-73.126
X163.668Y-69.029
X163.668Y-72.423
X164.371Y-70.726
T3
X101.676Y-64.446
X101.676Y-66.446
X88.92Y-138.836
X88.92Y-146.456
X91.46Y-138.836
X91.46Y-146.456
X94.0Y-138.836
X94.0Y-146.456
X96.54Y-138.836
X96.54Y-146.456
X99.08Y-138.836
X99.08Y-146.456
X101.62Y-138.836
X101.62Y-146.456
X88.976Y-64.7
X88.976Y-66.7
T5
X142.698Y-147.958
X147.698Y-147.958
X150.873Y-147.958
X155.873Y-147.958
X93.444Y-79.003
X93.444Y-81.003
X123.822Y-147.958
X128.822Y-147.958
X110.82Y-63.502
X113.36Y-63.502
X115.9Y-63.502
X169.622Y-147.958
X174.622Y-147.958
X108.582Y-79.403
X110.582Y-79.403
X130.378Y-71.018
X130.378Y-75.898
X79.245Y-111.509
X79.245Y-119.129
X81.785Y-111.509
X81.785Y-119.129
X84.325Y-111.509
X84.325Y-119.129
X86.865Y-111.509
X86.865Y-119.129
X89.405Y-111.509
X89.405Y-119.129
X91.945Y-111.509
X91.945Y-119.129
X94.485Y-111.509
X94.485Y-119.129
X97.025Y-111.509
X97.025Y-119.129
X99.565Y-111.509
X99.565Y-119.129
X102.105Y-111.509
X102.105Y-119.129
X110.233Y-72.678
X110.233Y-74.678
X131.902Y-63.502
X134.442Y-63.502
X136.982Y-63.502
T6
X158.826Y-81.432
X158.826Y-83.972
X158.826Y-86.512
T7
X79.373Y-133.353
X81.912Y-133.353
X84.453Y-133.353
X86.992Y-133.353
X89.532Y-133.353
X92.072Y-133.353
X94.612Y-133.353
X97.152Y-133.353
X99.692Y-133.353
X102.233Y-133.353
X104.772Y-133.353
X79.372Y-127.003
X81.912Y-127.003
X84.452Y-127.003
X86.992Y-127.003
X89.532Y-127.003
X92.072Y-127.003
X94.612Y-127.003
X97.152Y-127.003
X99.692Y-127.003
X102.232Y-127.003
X104.772Y-127.003
X109.852Y-133.353
X112.392Y-133.353
X114.932Y-133.353
X117.472Y-133.353
X115.397Y-102.63
X117.397Y-103.303
X117.397Y-108.303
X119.397Y-108.975
X90.612Y-107.953
X93.152Y-107.953
X95.692Y-107.953
X98.232Y-107.953
X100.772Y-107.953
X103.312Y-107.953
X167.245Y-72.45
X167.917Y-74.45
X172.917Y-74.45
X173.589Y-76.45
X111.154Y-137.312
X113.654Y-137.312
X116.154Y-137.312
X105.264Y-103.44
X107.264Y-97.768
X107.264Y-102.768
X109.264Y-97.096
X77.721Y-108.143
X80.261Y-108.143
X82.801Y-108.143
X85.341Y-108.143
X167.169Y-102.51
X167.841Y-100.51
X172.841Y-100.51
X173.513Y-98.51
X93.834Y-103.186
X95.834Y-97.514
X95.834Y-102.514
X97.834Y-96.842
X78.562Y-77.368
X78.562Y-79.908
X78.562Y-82.448
X78.562Y-84.988
X78.562Y-87.528
X78.562Y-90.068
X167.245Y-85.302
X167.917Y-87.302
X172.917Y-87.302
X173.589Y-89.302
X115.897Y-113.93
X117.897Y-114.603
X117.897Y-119.603
X119.897Y-120.275
X128.445Y-85.347
X130.985Y-85.347
X109.852Y-127.003
X112.392Y-127.003
X114.932Y-127.003
X117.472Y-127.003
X82.404Y-103.186
X84.404Y-97.514
X84.404Y-102.514
X86.404Y-96.842
T8
X110.82Y-60.883
X115.9Y-60.883
X77.872Y-137.82
X77.872Y-144.32
X82.372Y-137.82
X82.372Y-144.32
X131.902Y-60.883
X136.982Y-60.883
T9
X80.318Y-62.386
X94.318Y-62.386
X161.541Y-59.438
X161.541Y-64.519
T11
X169.923Y-64.519
T12
X160.271Y-148.593
X165.351Y-148.593
X133.22Y-148.593
X138.3Y-148.593
T13
X166.603Y-130.2
X172.191Y-140.36
X153.503Y-130.2
X159.091Y-140.36
X140.403Y-130.223
X145.991Y-140.383
X127.33Y-130.2
X132.918Y-140.36
T14
X142.178Y-56.92
X142.178Y-62.88
X156.678Y-56.92
X156.678Y-62.88
T16
X84.318Y-57.636
X98.318Y-57.636
T17
X161.971Y-70.726
T18
X90.04Y-130.178
X90.802Y-130.178
X91.564Y-130.178
X105.28Y-130.178
X106.042Y-130.178
X106.804Y-130.178
X79.88Y-130.178
X80.642Y-130.178
X81.404Y-130.178
X112.9Y-130.178
X113.662Y-130.178
X114.424Y-130.178
X77.34Y-130.178
X78.102Y-130.178
X78.864Y-130.178
X95.12Y-130.178
X95.882Y-130.178
X96.644Y-130.178
X110.36Y-130.178
X111.122Y-130.178
X111.884Y-130.178
X97.66Y-130.178
X98.422Y-130.178
X99.184Y-130.178
X115.44Y-130.178
X116.202Y-130.178
X116.964Y-130.178
X84.96Y-130.178
X85.722Y-130.178
X86.484Y-130.178
X82.42Y-130.178
X83.182Y-130.178
X83.944Y-130.178
X117.98Y-130.178
X118.742Y-130.178
X119.504Y-130.178
X102.74Y-130.178
X103.502Y-130.178
X104.264Y-130.178
X92.581Y-130.178
X93.343Y-130.178
X94.105Y-130.178
X100.2Y-130.178
X100.962Y-130.178
X101.724Y-130.178
X107.82Y-130.178
X108.582Y-130.178
X109.344Y-130.178
X87.501Y-130.178
X88.263Y-130.178
X89.024Y-130.178
T19
X169.923Y-55.518
T22
X126.413Y-111.712
X79.578Y-148.996
X139.748Y-111.661
X122.23Y-125.616
X79.578Y-70.726
X166.393Y-111.686
T4
G00X167.747Y-139.23
M15
G01X167.747Y-140.53
M16
G05
G00X171.047Y-130.03
M15
G01X171.047Y-131.33
M16
G05
G00X154.647Y-139.23
M15
G01X154.647Y-140.53
M16
G05
G00X157.947Y-130.03
M15
G01X157.947Y-131.33
M16
G05
G00X141.547Y-139.253
M15
G01X141.547Y-140.553
M16
G05
G00X144.847Y-130.053
M15
G01X144.847Y-131.353
M16
G05
G00X128.474Y-139.23
M15
G01X128.474Y-140.53
M16
G05
G00X131.774Y-130.03
M15
G01X131.774Y-131.33
M16
G05
T7
G00X124.028Y-60.972
M15
G01X124.028Y-59.472
M16
G05
G00X165.423Y-58.268
M15
G01X165.423Y-56.768
M16
G05
G00X170.573Y-58.518
M15
G01X169.273Y-58.518
M16
G05
G00X174.423Y-58.268
M15
G01X174.423Y-56.768
M16
G05
T10
G00X123.428Y-56.222
M15
G01X124.628Y-56.222
M16
G05
T15
G00X108.054Y-144.562
M15
G01X108.054Y-145.062
M16
G05
G00X119.254Y-144.562
M15
G01X119.254Y-145.062
M16
G05
T20
G00X119.778Y-52.222
M15
G01X119.778Y-53.122
M16
G05
G00X128.278Y-52.222
M15
G01X128.278Y-53.122
M16
G05
T21
G00X79.718Y-56.786
M15
G01X79.718Y-58.486
M16
G05
G00X102.918Y-56.786
M15
G01X102.918Y-58.486
M16
G05
T0
M30
